# Blender 5.1.2
# www.blender.org
mtllib shield3.mtl
o Shield__shield_small_round_plain_passive
v 0.197953 -0.033464 -0.006521
v 0.183477 -0.081672 -0.004098
v 0.157452 -0.124762 -0.001770
v 0.121515 -0.160027 0.000318
v 0.077923 -0.185250 0.002034
v 0.029415 -0.198847 0.003270
v -0.020961 -0.199964 0.003949
v -0.070039 -0.188530 0.004028
v -0.114736 -0.165264 0.003502
v -0.152244 -0.131627 0.002403
v -0.180205 -0.089734 0.000802
v -0.196863 -0.042216 -0.001201
v -0.201170 0.007941 -0.003481
v -0.192858 0.057584 -0.005894
v -0.172446 0.103596 -0.008288
v -0.141219 0.143085 -0.010514
v -0.101138 0.173569 -0.012431
v -0.054722 0.193133 -0.013919
v -0.004887 0.200549 -0.014884
v 0.045235 0.195349 -0.015266
v 0.092495 0.177861 -0.015040
v 0.133924 0.149183 -0.014222
v 0.166919 0.111118 -0.012862
v 0.189405 0.066057 -0.011045
v 0.199971 0.016832 -0.008886
v 0.183613 -0.081163 0.006846
v 0.198089 -0.032955 0.004423
v 0.200108 0.017341 0.002058
v 0.189542 0.066567 -0.000101
v 0.167055 0.111627 -0.001917
v 0.134060 0.149693 -0.003278
v 0.092631 0.178370 -0.004096
v 0.045371 0.195858 -0.004322
v -0.004751 0.201058 -0.003940
v -0.054586 0.193642 -0.002975
v -0.101002 0.174078 -0.001487
v -0.141083 0.143594 0.000430
v -0.172310 0.104105 0.002656
v -0.192721 0.058094 0.005050
v -0.201034 0.008450 0.007463
v -0.196726 -0.041707 0.009743
v -0.180069 -0.089225 0.011747
v -0.152108 -0.131118 0.013348
v -0.114600 -0.164754 0.014446
v -0.069903 -0.188020 0.014972
v -0.020825 -0.199455 0.014893
v 0.029551 -0.198338 0.014214
v 0.078059 -0.184741 0.012978
v 0.121651 -0.159518 0.011262
v 0.157588 -0.124253 0.009174
v -0.000285 -0.000118 -0.003412
v 0.048241 -0.007706 0.007662
v 0.047441 0.010655 0.006818
v 0.036591 0.032397 0.005942
v 0.016601 0.046235 0.005547
v -0.007584 0.048744 0.005731
v -0.029980 0.039304 0.006449
v -0.045047 0.020250 0.007523
v -0.049058 -0.003704 0.008687
v -0.041021 -0.026632 0.009654
v -0.022923 -0.042862 0.010183
v 0.000758 -0.048379 0.010145
v 0.024163 -0.041818 0.009549
v 0.041504 -0.024802 0.008541
v -0.000038 0.001626 0.033315
v 0.198089 -0.032955 0.004423
v 0.183613 -0.081163 0.006846
v 0.200108 0.017341 0.002058
v 0.189542 0.066567 -0.000101
v 0.167055 0.111627 -0.001917
v 0.134060 0.149693 -0.003278
v 0.092631 0.178370 -0.004096
v 0.045371 0.195858 -0.004322
v -0.004751 0.201058 -0.003940
v -0.054586 0.193642 -0.002975
v -0.101002 0.174078 -0.001487
v -0.141083 0.143594 0.000430
v -0.172310 0.104105 0.002656
v -0.192721 0.058094 0.005050
v -0.201034 0.008450 0.007463
v -0.196726 -0.041707 0.009743
v -0.180069 -0.089225 0.011747
v -0.152108 -0.131118 0.013348
v -0.114600 -0.164754 0.014446
v -0.069903 -0.188020 0.014972
v -0.020825 -0.199455 0.014893
v 0.029551 -0.198338 0.014214
v 0.078059 -0.184741 0.012978
v 0.121651 -0.159518 0.011262
v 0.157588 -0.124253 0.009174
v 0.197953 -0.033464 -0.006521
v 0.183477 -0.081672 -0.004098
v 0.183477 -0.081672 -0.004098
v 0.157452 -0.124762 -0.001770
v -0.000285 -0.000118 -0.003412
v 0.157452 -0.124762 -0.001770
v 0.121515 -0.160027 0.000318
v -0.000285 -0.000118 -0.003412
v 0.121515 -0.160027 0.000318
v 0.077923 -0.185250 0.002034
v -0.000285 -0.000118 -0.003412
v 0.077923 -0.185250 0.002034
v 0.029415 -0.198847 0.003270
v -0.000285 -0.000118 -0.003412
v 0.029415 -0.198847 0.003270
v -0.020961 -0.199964 0.003949
v -0.000285 -0.000118 -0.003412
v -0.020961 -0.199964 0.003949
v -0.070039 -0.188530 0.004028
v -0.000285 -0.000118 -0.003412
v -0.070039 -0.188530 0.004028
v -0.114736 -0.165264 0.003502
v -0.000285 -0.000118 -0.003412
v -0.114736 -0.165264 0.003502
v -0.152244 -0.131627 0.002403
v -0.000285 -0.000118 -0.003412
v -0.152244 -0.131627 0.002403
v -0.180205 -0.089734 0.000802
v -0.000285 -0.000118 -0.003412
v -0.180205 -0.089734 0.000802
v -0.196863 -0.042216 -0.001201
v -0.000285 -0.000118 -0.003412
v -0.196863 -0.042216 -0.001201
v -0.201170 0.007941 -0.003481
v -0.000285 -0.000118 -0.003412
v -0.201170 0.007941 -0.003481
v -0.192858 0.057584 -0.005894
v -0.000285 -0.000118 -0.003412
v -0.192858 0.057584 -0.005894
v -0.172446 0.103596 -0.008288
v -0.000285 -0.000118 -0.003412
v -0.172446 0.103596 -0.008288
v -0.141219 0.143085 -0.010514
v -0.000285 -0.000118 -0.003412
v -0.141219 0.143085 -0.010514
v -0.101138 0.173569 -0.012431
v -0.000285 -0.000118 -0.003412
v -0.101138 0.173569 -0.012431
v -0.054722 0.193133 -0.013919
v -0.000285 -0.000118 -0.003412
v -0.054722 0.193133 -0.013919
v -0.004887 0.200549 -0.014884
v -0.000285 -0.000118 -0.003412
v -0.004887 0.200549 -0.014884
v 0.045235 0.195349 -0.015266
v -0.000285 -0.000118 -0.003412
v 0.045235 0.195349 -0.015266
v 0.092495 0.177861 -0.015040
v -0.000285 -0.000118 -0.003412
v 0.092495 0.177861 -0.015040
v 0.133924 0.149183 -0.014222
v -0.000285 -0.000118 -0.003412
v 0.133924 0.149183 -0.014222
v 0.166919 0.111118 -0.012862
v -0.000285 -0.000118 -0.003412
v 0.166919 0.111118 -0.012862
v 0.189405 0.066057 -0.011045
v -0.000285 -0.000118 -0.003412
v 0.189405 0.066057 -0.011045
v 0.199971 0.016832 -0.008886
v -0.000285 -0.000118 -0.003412
v 0.199971 0.016832 -0.008886
v 0.197953 -0.033464 -0.006521
v -0.000285 -0.000118 -0.003412
v 0.041504 -0.024802 0.008541
v 0.048241 -0.007706 0.007662
v 0.047441 0.010655 0.006818
v 0.036591 0.032397 0.005942
v 0.016601 0.046235 0.005547
v -0.007584 0.048744 0.005731
v -0.029980 0.039304 0.006449
v -0.045047 0.020250 0.007523
v -0.049058 -0.003704 0.008687
v -0.041021 -0.026632 0.009654
v -0.022923 -0.042862 0.010183
v 0.000758 -0.048379 0.010145
v 0.024163 -0.041818 0.009549
vn 0.0307 0.0434 0.9986
vn 0.2427 -0.3580 0.9016
vn 0.3961 -0.2143 0.8928
vn 0.0215 -0.4200 0.9073
vn -0.2022 -0.3679 0.9076
vn -0.3732 -0.2146 0.9026
vn -0.4491 0.0020 0.8935
vn -0.4112 0.2283 0.8825
vn -0.2689 0.4084 0.8723
vn -0.0573 0.4975 0.8655
vn 0.1712 0.4738 0.8638
vn 0.3601 0.3431 0.8675
vn 0.4583 0.1572 0.8748
vn 0.4637 -0.0346 0.8853
vn -0.0234 -0.0460 -0.9987
vn -0.0232 -0.0488 -0.9985
vn -0.0223 -0.0514 -0.9984
vn -0.0207 -0.0536 -0.9983
vn -0.0187 -0.0555 -0.9983
vn -0.0162 -0.0568 -0.9983
vn -0.0136 -0.0574 -0.9983
vn -0.0108 -0.0573 -0.9983
vn -0.0082 -0.0566 -0.9984
vn -0.0058 -0.0552 -0.9985
vn -0.0038 -0.0533 -0.9986
vn -0.0024 -0.0509 -0.9987
vn -0.0016 -0.0483 -0.9988
vn -0.0015 -0.0455 -0.9990
vn -0.0021 -0.0428 -0.9991
vn -0.0033 -0.0404 -0.9992
vn -0.0051 -0.0383 -0.9993
vn -0.0074 -0.0367 -0.9993
vn -0.0099 -0.0358 -0.9993
vn -0.0127 -0.0355 -0.9993
vn -0.0154 -0.0359 -0.9992
vn -0.0179 -0.0370 -0.9992
vn -0.0201 -0.0386 -0.9991
vn -0.0218 -0.0408 -0.9989
vn -0.0229 -0.0433 -0.9988
vn 0.8101 -0.5860 0.0172
vn 0.8964 -0.4432 0.0095
vn 0.7580 -0.6519 0.0209
vn 0.9304 -0.3664 0.0055
vn 0.6389 -0.7688 0.0278
vn 0.5720 -0.8196 0.0310
vn 0.4275 -0.9033 0.0367
vn 0.3501 -0.9359 0.0392
vn 0.1893 -0.9810 0.0433
vn 0.1062 -0.9933 0.0449
vn -0.0608 -0.9970 0.0471
vn -0.1444 -0.9884 0.0478
vn -0.3071 -0.9505 0.0481
vn -0.3860 -0.9213 0.0477
vn -0.5341 -0.8442 0.0460
vn -0.6032 -0.7963 0.0446
vn -0.7276 -0.6848 0.0409
vn -0.7826 -0.6213 0.0386
vn -0.8753 -0.4825 0.0333
vn -0.9128 -0.4073 0.0303
vn -0.9680 -0.2498 0.0237
vn -0.9856 -0.1676 0.0201
vn -0.9999 -0.0014 0.0125
vn -0.9966 0.0825 0.0086
vn -0.9690 0.2471 0.0006
vn -0.9448 0.3275 -0.0034
vn -0.8772 0.4800 -0.0114
vn -0.8338 0.5519 -0.0153
vn -0.7303 0.6828 -0.0227
vn -0.6703 0.7416 -0.0262
vn -0.5375 0.8427 -0.0325
vn -0.4647 0.8848 -0.0354
vn -0.3109 0.9496 -0.0403
vn -0.2299 0.9723 -0.0424
vn -0.0648 0.9969 -0.0456
vn 0.0193 0.9987 -0.0467
vn 0.1854 0.9815 -0.0480
vn 0.2673 0.9624 -0.0481
vn 0.4240 0.9044 -0.0473
vn 0.4985 0.8657 -0.0465
vn 0.6358 0.7706 -0.0438
vn 0.6984 0.7145 -0.0420
vn 0.8078 0.5883 -0.0374
vn 0.8544 0.5184 -0.0347
vn 0.9290 0.3690 -0.0288
vn 0.9568 0.2897 -0.0255
vn 0.9918 0.1266 -0.0183
vn 0.9990 0.0429 -0.0145
vn 0.9923 -0.1238 -0.0066
vn 0.9784 -0.2066 -0.0025
vn 0.0269 0.0385 0.9989
vn 0.0253 0.0358 0.9990
vn 0.0277 0.0398 0.9988
vn 0.0215 0.0328 0.9992
vn 0.0226 0.0332 0.9992
vn 0.0183 0.0309 0.9994
vn 0.0138 0.0301 0.9995
vn 0.0149 0.0300 0.9994
vn 0.0102 0.0300 0.9995
vn 0.0056 0.0316 0.9995
vn 0.0067 0.0308 0.9995
vn 0.0024 0.0331 0.9994
vn -0.0006 0.0365 0.9993
vn -0.0002 0.0355 0.9994
vn -0.0027 0.0394 0.9992
vn -0.0038 0.0442 0.9990
vn -0.0039 0.0429 0.9991
vn -0.0042 0.0478 0.9988
vn -0.0030 0.0522 0.9986
vn -0.0036 0.0512 0.9987
vn -0.0019 0.0551 0.9985
vn 0.0016 0.0589 0.9983
vn 0.0007 0.0583 0.9983
vn 0.0041 0.0609 0.9981
vn 0.0091 0.0625 0.9980
vn 0.0079 0.0625 0.9980
vn 0.0124 0.0631 0.9979
vn 0.0170 0.0622 0.9979
vn 0.0162 0.0627 0.9979
vn 0.0202 0.0612 0.9979
vn 0.0241 0.0580 0.9980
vn 0.0235 0.0589 0.9980
vn 0.0263 0.0557 0.9981
vn 0.0282 0.0512 0.9983
vn 0.0281 0.0520 0.9983
vn 0.0291 0.0479 0.9984
vn 0.0289 0.0441 0.9986
vn 0.0287 0.0426 0.9987
vt 0.556773 0.472620
vt 0.567950 0.481436
vt 0.562173 0.485500
vt 0.570992 0.475215
vt 0.570533 0.468357
vt 0.566676 0.462554
vt 0.560371 0.459243
vt 0.553176 0.459243
vt 0.546870 0.462554
vt 0.543014 0.468357
vt 0.542554 0.475215
vt 0.545596 0.481436
vt 0.551373 0.485500
vt 0.556773 0.486644
vt 0.226071 0.313270
vt 0.247662 0.318241
vt 0.248641 0.314079
vt 0.245326 0.322090
vt 0.241781 0.325384
vt 0.237248 0.327918
vt 0.232013 0.329531
vt 0.226405 0.330123
vt 0.221661 0.329160
vt 0.216807 0.327003
vt 0.212508 0.324405
vt 0.208059 0.321355
vt 0.204686 0.318714
vt 0.204207 0.313504
vt 0.585353 0.522351
vt 0.570799 0.524876
vt 0.583938 0.519893
vt 0.571530 0.527591
vt 0.597373 0.513994
vt 0.595362 0.511951
vt 0.606842 0.503047
vt 0.604362 0.501544
vt 0.613165 0.490198
vt 0.610372 0.489332
vt 0.615947 0.476251
vt 0.613016 0.476074
vt 0.615013 0.462082
vt 0.612128 0.462608
vt 0.610421 0.448579
vt 0.607764 0.449773
vt 0.602458 0.436592
vt 0.600196 0.438380
vt 0.591624 0.426872
vt 0.589898 0.429141
vt 0.578601 0.420031
vt 0.577520 0.422640
vt 0.564205 0.416500
vt 0.563836 0.419283
vt 0.549341 0.416500
vt 0.549711 0.419283
vt 0.534945 0.420031
vt 0.536026 0.422640
vt 0.521922 0.426872
vt 0.523649 0.429141
vt 0.511088 0.436592
vt 0.513350 0.438380
vt 0.503125 0.448580
vt 0.505782 0.449773
vt 0.498533 0.462082
vt 0.501418 0.462608
vt 0.497598 0.476251
vt 0.500530 0.476075
vt 0.500381 0.490198
vt 0.503173 0.489332
vt 0.506705 0.503047
vt 0.509184 0.501544
vt 0.516173 0.513994
vt 0.518183 0.511951
vt 0.528194 0.522351
vt 0.529608 0.519893
vt 0.542018 0.527591
vt 0.542747 0.524876
vt 0.556773 0.529374
vt 0.556773 0.526571
s 1
usemtl characterlod0__single.002
f 65/1/1 177/2/2 165/3/3
f 65/1/1 176/4/4 177/2/2
f 65/1/1 175/5/5 176/4/4
f 65/1/1 174/6/6 175/5/5
f 65/1/1 173/7/7 174/6/6
f 65/1/1 172/8/8 173/7/7
f 65/1/1 171/9/9 172/8/8
f 65/1/1 170/10/10 171/9/9
f 65/1/1 169/11/11 170/10/10
f 65/1/1 168/12/12 169/11/11
f 65/1/1 167/13/13 168/12/12
f 65/1/1 166/14/14 167/13/13
f 65/1/1 165/3/3 166/14/14
f 164/15/15 162/16/15 163/17/15
f 161/15/16 159/18/16 160/16/16
f 158/15/17 156/19/17 157/18/17
f 155/15/18 153/20/18 154/19/18
f 152/15/19 150/21/19 151/20/19
f 149/15/20 147/22/20 148/21/20
f 146/15/21 144/23/21 145/22/21
f 143/15/22 141/24/22 142/23/22
f 140/15/23 138/25/23 139/24/23
f 137/15/24 135/26/24 136/25/24
f 134/15/25 132/27/25 133/26/25
f 131/15/26 129/28/26 130/27/26
f 128/15/27 126/28/27 127/28/27
f 125/15/28 123/27/28 124/28/28
f 122/15/29 120/26/29 121/27/29
f 119/15/30 117/25/30 118/26/30
f 116/15/31 114/24/31 115/25/31
f 113/15/32 111/23/32 112/24/32
f 110/15/33 108/22/33 109/23/33
f 107/15/34 105/21/34 106/22/34
f 104/15/35 102/20/35 103/21/35
f 101/15/36 99/19/36 100/20/36
f 98/15/37 96/18/37 97/19/37
f 95/15/38 93/16/38 94/18/38
f 51/15/39 91/17/39 92/16/39
f 3/29/40 67/30/41 90/31/42
f 67/30/41 3/29/40 2/32/43
f 4/33/44 90/31/42 89/34/45
f 90/31/42 4/33/44 3/29/40
f 5/35/46 89/34/45 88/36/47
f 89/34/45 5/35/46 4/33/44
f 6/37/48 88/36/47 87/38/49
f 88/36/47 6/37/48 5/35/46
f 7/39/50 87/38/49 86/40/51
f 87/38/49 7/39/50 6/37/48
f 8/41/52 86/40/51 85/42/53
f 86/40/51 8/41/52 7/39/50
f 9/43/54 85/42/53 84/44/55
f 85/42/53 9/43/54 8/41/52
f 10/45/56 84/44/55 83/46/57
f 84/44/55 10/45/56 9/43/54
f 11/47/58 83/46/57 82/48/59
f 83/46/57 11/47/58 10/45/56
f 12/49/60 82/48/59 81/50/61
f 82/48/59 12/49/60 11/47/58
f 13/51/62 81/50/61 80/52/63
f 81/50/61 13/51/62 12/49/60
f 14/53/64 80/52/63 79/54/65
f 80/52/63 14/53/64 13/51/62
f 15/55/66 79/54/65 78/56/67
f 79/54/65 15/55/66 14/53/64
f 16/57/68 78/56/67 77/58/69
f 78/56/67 16/57/68 15/55/66
f 17/59/70 77/58/69 76/60/71
f 77/58/69 17/59/70 16/57/68
f 18/61/72 76/60/71 75/62/73
f 76/60/71 18/61/72 17/59/70
f 19/63/74 75/62/73 74/64/75
f 75/62/73 19/63/74 18/61/72
f 20/65/76 74/64/75 73/66/77
f 74/64/75 20/65/76 19/63/74
f 21/67/78 73/66/77 72/68/79
f 73/66/77 21/67/78 20/65/76
f 22/69/80 72/68/79 71/70/81
f 72/68/79 22/69/80 21/67/78
f 23/71/82 71/70/81 70/72/83
f 71/70/81 23/71/82 22/69/80
f 24/73/84 70/72/83 69/74/85
f 70/72/83 24/73/84 23/71/82
f 25/75/86 69/74/85 68/76/87
f 69/74/85 25/75/86 24/73/84
f 1/77/88 68/76/87 66/78/89
f 68/76/87 1/77/88 25/75/86
f 2/32/43 66/78/89 67/30/41
f 66/78/89 2/32/43 1/77/88
f 64/3/90 50/31/91 26/30/92
f 50/31/91 63/2/93 49/34/94
f 63/2/93 50/31/91 64/3/90
f 63/2/93 48/36/95 49/34/94
f 48/36/95 62/4/96 47/38/97
f 62/4/96 48/36/95 63/2/93
f 62/4/96 46/40/98 47/38/97
f 46/40/98 61/5/99 45/42/100
f 61/5/99 46/40/98 62/4/96
f 61/5/99 44/44/101 45/42/100
f 44/44/101 60/6/102 43/46/103
f 60/6/102 44/44/101 61/5/99
f 60/6/102 42/48/104 43/46/103
f 42/48/104 59/7/105 41/50/106
f 59/7/105 42/48/104 60/6/102
f 59/7/105 40/52/107 41/50/106
f 40/52/107 58/8/108 39/54/109
f 58/8/108 40/52/107 59/7/105
f 58/8/108 38/56/110 39/54/109
f 38/56/110 57/9/111 37/58/112
f 57/9/111 38/56/110 58/8/108
f 57/9/111 36/60/113 37/58/112
f 36/60/113 56/10/114 35/62/115
f 56/10/114 36/60/113 57/9/111
f 56/10/114 34/64/116 35/62/115
f 34/64/116 55/11/117 33/66/118
f 55/11/117 34/64/116 56/10/114
f 55/11/117 32/68/119 33/66/118
f 32/68/119 54/12/120 31/70/121
f 54/12/120 32/68/119 55/11/117
f 54/12/120 30/72/122 31/70/121
f 30/72/122 53/13/123 29/74/124
f 53/13/123 30/72/122 54/12/120
f 53/13/123 28/76/125 29/74/124
f 28/76/125 52/14/126 27/78/127
f 52/14/126 28/76/125 53/13/123
f 27/78/127 64/3/90 26/30/92
f 64/3/90 27/78/127 52/14/126
