# Blender 5.1.2
# www.blender.org
mtllib sword2.mtl
o Sword__longsword_01_active
v -0.031092 0.005973 -0.653783
v -0.002427 -0.000846 -0.654329
v 0.000710 -0.007258 0.073971
v -0.029022 -0.000440 0.074337
v 0.025758 0.008350 -0.654445
v 0.027828 0.001938 0.073893
v -0.003698 0.010114 -0.760582
v -0.002907 0.015169 -0.653900
v 0.000833 -0.016629 0.083781
v -0.016160 -0.000803 0.084184
v 0.016669 0.000364 0.083966
v -0.000045 0.008756 0.074258
v -0.000324 0.016191 0.084370
v 0.002035 -0.020623 0.215523
v -0.022159 -0.003537 0.216504
v 0.024787 -0.002084 0.215919
v 0.000592 0.015001 0.216900
v 0.001533 -0.003591 0.240341
v 0.069867 -0.009919 0.074031
v 0.069866 0.004890 0.074318
v 0.069866 0.011765 0.084430
v 0.069867 -0.018585 0.083841
v -0.068700 -0.008742 0.075103
v -0.068699 -0.017302 0.084913
v -0.068713 0.012678 0.085502
v -0.068709 0.005887 0.075391
v 0.000710 -0.007258 0.073971
v -0.002427 -0.000846 -0.654329
v -0.003698 0.010114 -0.760582
v -0.031092 0.005973 -0.653783
v -0.029022 -0.000440 0.074337
v 0.027828 0.001938 0.073893
v 0.025758 0.008350 -0.654445
v -0.002907 0.015169 -0.653900
v -0.000045 0.008756 0.074258
v 0.000710 -0.007258 0.073971
v 0.027828 0.001938 0.073893
v 0.069867 -0.009919 0.074031
v 0.027828 0.001938 0.073893
v -0.000045 0.008756 0.074258
v 0.069866 0.004890 0.074318
v 0.069866 0.004890 0.074318
v 0.069867 -0.009919 0.074031
v 0.027828 0.001938 0.073893
v -0.000045 0.008756 0.074258
v -0.000324 0.016191 0.084370
v 0.069866 0.011765 0.084430
v 0.069866 0.011765 0.084430
v 0.069866 0.004890 0.074318
v -0.000045 0.008756 0.074258
v -0.000324 0.016191 0.084370
v 0.016669 0.000364 0.083966
v 0.069866 0.011765 0.084430
v 0.016669 0.000364 0.083966
v 0.000833 -0.016629 0.083781
v 0.069867 -0.018585 0.083841
v 0.069867 -0.018585 0.083841
v 0.069866 0.011765 0.084430
v 0.016669 0.000364 0.083966
v 0.000833 -0.016629 0.083781
v 0.000710 -0.007258 0.073971
v 0.069867 -0.009919 0.074031
v 0.069867 -0.009919 0.074031
v 0.069867 -0.018585 0.083841
v 0.000833 -0.016629 0.083781
v -0.029022 -0.000440 0.074337
v 0.000710 -0.007258 0.073971
v -0.068700 -0.008742 0.075103
v -0.068700 -0.008742 0.075103
v -0.068709 0.005887 0.075391
v -0.029022 -0.000440 0.074337
v 0.000710 -0.007258 0.073971
v 0.000833 -0.016629 0.083781
v -0.068699 -0.017302 0.084913
v -0.068699 -0.017302 0.084913
v -0.068700 -0.008742 0.075103
v 0.000710 -0.007258 0.073971
v 0.000833 -0.016629 0.083781
v -0.016160 -0.000803 0.084184
v -0.068699 -0.017302 0.084913
v -0.016160 -0.000803 0.084184
v -0.000324 0.016191 0.084370
v -0.068713 0.012678 0.085502
v -0.068713 0.012678 0.085502
v -0.068699 -0.017302 0.084913
v -0.016160 -0.000803 0.084184
v -0.000324 0.016191 0.084370
v -0.000045 0.008756 0.074258
v -0.068709 0.005887 0.075391
v -0.068709 0.005887 0.075391
v -0.068713 0.012678 0.085502
v -0.000324 0.016191 0.084370
v -0.000045 0.008756 0.074258
v -0.029022 -0.000440 0.074337
v -0.068709 0.005887 0.075391
v -0.003698 0.010114 -0.760582
v -0.003698 0.010114 -0.760582
v 0.024787 -0.002084 0.215919
v 0.016669 0.000364 0.083966
v -0.022159 -0.003537 0.216504
v -0.016160 -0.000803 0.084184
v 0.001533 -0.003591 0.240341
vn -0.0186 0.0499 -0.9986
vn -0.0518 0.8290 -0.5568
vn -0.0434 0.8043 -0.5926
vn 0.0200 -0.0196 0.9996
vn 0.0180 -0.0277 0.9995
vn 0.0164 -0.0079 0.9998
vn 0.0054 -0.7535 -0.6575
vn -0.0042 -0.7231 -0.6907
vn -0.0234 0.0197 -0.9995
vn -0.0160 -0.0159 -0.9997
vn -0.0207 -0.7493 -0.6619
vn -0.0272 -0.7230 -0.6903
vn -0.0046 -0.0194 0.9998
vn -0.0011 -0.0098 1.0000
vn -0.0026 -0.0284 0.9996
vn 0.0462 0.8261 -0.5616
vn 0.0513 0.8053 -0.5907
vn 0.0087 0.0194 -0.9998
vn 0.0049 0.0735 -0.9973
vn 0.0005 -0.0099 -1.0000
vn -0.9666 -0.0433 0.2527
vn 0.0125 -0.0346 0.9993
vn -0.0282 0.9379 0.3457
vn 0.9712 0.0252 0.2370
vn 0.9712 0.0257 0.2370
vn 0.0122 -0.0345 0.9993
vn 0.0359 -0.9553 0.2934
vn -0.9666 -0.0429 0.2527
vn -0.0350 0.9993 -0.0109
vn -0.9983 -0.0348 -0.0460
vn 0.9975 0.0361 -0.0606
vn 0.0345 -0.9981 -0.0506
vn 0.9975 0.0367 -0.0607
vn -0.9984 -0.0341 -0.0460
vn -1.0000 -0.0005 -0.0003
vn -1.0000 -0.0005 -0.0001
vn 1.0000 0.0001 -0.0000
vn 1.0000 -0.0000 -0.0000
vn -1.0000 -0.0006 -0.0004
vn 0.2332 0.9724 -0.0108
vn 0.2310 0.9728 -0.0199
vn -0.0126 0.0269 -0.9996
vn -0.3102 0.9505 -0.0167
vn -0.3076 0.9515 -0.0080
vn -0.0122 0.0252 -0.9996
vn 0.2348 0.9720 0.0078
vn 0.2377 0.9713 0.0076
vn -0.3063 0.9519 0.0094
vn -0.3025 0.9531 0.0096
vn -0.0126 0.0255 -0.9996
vn 0.3095 -0.9493 -0.0553
vn 0.3134 -0.9488 -0.0401
vn -0.0125 0.0275 -0.9995
vn -0.2293 -0.9726 -0.0376
vn -0.2320 -0.9713 -0.0525
vn 0.3156 -0.9488 -0.0095
vn 0.3211 -0.9470 -0.0097
vn -0.2276 -0.9737 -0.0078
vn -0.2236 -0.9747 -0.0076
vt 0.211587 0.885517
vt 0.138748 0.886796
vt 0.169214 0.884175
vt 0.139649 0.889130
vt 0.212173 0.887688
vt 0.155901 0.884595
vt 0.211164 0.879913
vt 0.137333 0.880632
vt 0.137418 0.882650
vt 0.211090 0.881723
vt 0.063921 0.882552
vt 0.063990 0.880715
vt 0.121081 0.885167
vt 0.064996 0.888585
vt 0.064410 0.886392
vt 0.108926 0.885254
vt 0.015959 0.903322
vt 0.009697 0.891579
vt 0.015959 0.891579
vt 0.015959 0.879835
vt 0.039825 0.891579
vt 0.039825 0.898109
vt 0.039825 0.885048
vt 0.218080 0.890876
vt 0.218080 0.878981
vt 0.244093 0.890876
vt 0.218080 0.902771
vt 0.052910 0.879957
vt 0.052891 0.891853
vt 0.052910 0.903748
vt 0.052910 0.891853
s 1
usemtl characterlod0__single.003
f 95/1/1 93/2/1 94/3/1
f 92/4/2 90/1/2 91/5/2
f 89/1/3 87/4/3 88/2/3
f 86/6/4 84/5/4 85/7/4
f 83/5/5 81/6/5 82/4/5
f 80/7/6 78/8/6 79/6/6
f 77/9/7 75/7/7 76/10/7
f 74/7/8 72/9/8 73/8/8
f 71/3/9 69/10/9 70/1/9
f 68/10/10 66/3/10 67/9/10
f 65/8/11 63/11/11 64/12/11
f 62/11/12 60/8/12 61/9/12
f 59/13/13 57/12/13 58/14/13
f 56/12/14 54/13/14 55/8/14
f 53/14/15 51/4/15 52/13/15
f 50/2/16 48/14/16 49/15/16
f 47/14/17 45/2/17 46/4/17
f 44/16/18 42/15/18 43/11/18
f 41/15/19 39/16/19 40/2/19
f 38/11/20 36/9/20 37/16/20
f 100/17/21 102/18/22 17/19/23
f 17/19/23 102/18/22 98/20/24
f 16/20/25 18/18/26 14/19/27
f 14/19/27 18/18/26 15/17/28
f 100/17/21 13/21/29 101/22/30
f 13/21/29 100/17/21 17/19/23
f 13/21/29 98/20/24 99/23/31
f 98/20/24 13/21/29 17/19/23
f 16/20/25 9/21/32 11/23/33
f 9/21/32 16/20/25 14/19/27
f 9/21/32 15/17/28 10/22/34
f 15/17/28 9/21/32 14/19/27
f 24/7/35 25/5/36 26/1/36
f 21/14/37 19/11/38 20/15/37
f 21/14/37 22/12/38 19/11/38
f 24/7/35 26/1/36 23/10/39
f 34/24/40 33/25/41 97/26/42
f 30/27/43 8/24/44 96/26/45
f 32/28/46 34/24/40 35/29/47
f 34/24/40 32/28/46 33/25/41
f 8/24/44 31/30/48 12/29/49
f 31/30/48 8/24/44 30/27/43
f 29/26/50 5/25/51 28/24/52
f 7/26/53 2/24/54 1/27/55
f 6/28/56 28/24/52 5/25/51
f 28/24/52 6/28/56 27/31/57
f 4/30/58 2/24/54 3/31/59
f 2/24/54 4/30/58 1/27/55
