# Blender 5.1.2
# www.blender.org
mtllib torch.mtl
o Cylinder.001
v -0.034069 4.036728 -0.348743
v -0.029749 5.076976 -0.352969
v 0.107236 5.074538 -0.325919
v 0.122929 4.021569 -0.312552
v 0.265655 5.196279 -0.096123
v 0.207684 5.175869 -0.208555
v 0.172035 5.234147 -0.173720
v 0.215128 5.241510 -0.078253
v 0.300629 5.183740 0.018855
v 0.242439 5.238418 0.041790
v 0.275109 5.191010 0.157339
v 0.226862 5.204182 0.132160
v 0.192649 5.196507 0.262289
v 0.161870 5.202415 0.223250
v 0.094287 5.170622 0.309452
v 0.063888 5.207511 0.272479
v -0.027606 5.159759 0.345348
v -0.045866 5.234892 0.316931
v -0.154271 5.192010 0.339848
v -0.138233 5.227378 0.303833
v -0.281813 5.181780 0.259121
v -0.213702 5.210702 0.222891
v -0.350042 5.181325 0.160958
v -0.275276 5.208240 0.136689
v -0.373729 5.183638 0.022699
v -0.346952 5.212668 0.036397
v -0.313713 5.169600 -0.095206
v -0.298531 5.215575 -0.060013
v -0.276772 5.188087 -0.205213
v -0.248382 5.229764 -0.162520
v -0.159469 5.168080 -0.248419
v -0.125826 5.214353 -0.212908
v 0.075074 5.162611 -0.290920
v 0.067459 5.240057 -0.262093
v -0.041161 5.239151 -0.265655
v -0.032327 5.178487 -0.301564
v -0.191882 4.019815 -0.315955
v -0.192670 5.080726 -0.312863
v 0.204928 5.067199 -0.220647
v 0.233286 4.026035 -0.243668
v 0.175008 3.924369 -0.186110
v 0.242383 3.916884 -0.087392
v 0.233264 3.867033 -0.085506
v 0.161396 3.888365 -0.148618
v 0.318749 5.079258 -0.117535
v 0.312162 4.020487 -0.125494
v 0.276777 3.933034 0.017235
v 0.257512 3.867691 0.034759
v 0.309846 5.068918 0.030809
v 0.341091 4.025197 0.014633
v 0.260464 3.937759 0.142468
v 0.206678 3.890455 0.142145
v 0.317813 5.063537 0.170595
v 0.311031 4.005967 0.168818
v 0.203810 3.910917 0.269822
v 0.156730 3.895278 0.229490
v 0.207093 5.061692 0.287786
v 0.204223 4.025330 0.279677
v 0.097546 3.904103 0.330889
v 0.052496 3.883059 0.277962
v 0.085905 5.067158 0.363434
v 0.103248 4.036137 0.351685
v -0.020645 3.927397 0.339641
v -0.032166 3.888471 0.290375
v -0.031743 5.086308 0.378909
v -0.025355 4.023245 0.412111
v -0.163825 3.911958 0.344070
v -0.130149 3.863475 0.296245
v -0.179141 5.072194 0.347706
v -0.169738 4.008842 0.379834
v -0.281319 3.923519 0.263580
v -0.230859 3.895514 0.221022
v -0.278532 5.066718 0.276843
v -0.309986 4.012847 0.289030
v -0.319778 3.929745 0.140181
v -0.282896 3.859397 0.144769
v -0.366949 5.074947 0.150526
v -0.355634 4.033549 0.175260
v -0.374536 3.912598 0.032383
v -0.312435 3.856279 0.027304
v -0.387700 5.072913 0.014568
v -0.415641 4.019746 0.042002
v -0.348513 3.917028 -0.081808
v -0.273947 3.888255 -0.073110
v -0.353643 5.067938 -0.104824
v -0.388093 4.012903 -0.103415
v -0.266858 3.932333 -0.180750
v -0.230402 3.866393 -0.181706
v -0.289342 5.058681 -0.215822
v -0.308137 4.012400 -0.234309
v -0.144065 3.930557 -0.255878
v -0.130289 3.859152 -0.226976
v -0.027495 3.933973 -0.277654
v 0.096820 3.905521 -0.274835
v 0.069443 3.858596 -0.233735
v -0.021084 3.889901 -0.245700
v -0.093717 0.098586 -0.158097
v -0.099678 0.532631 -0.156818
v -0.028240 0.532650 -0.170993
v -0.028240 0.098566 -0.171282
v 0.079092 0.102745 -0.107308
v 0.089758 0.532290 -0.102373
v 0.144178 0.532488 -0.055770
v 0.129916 0.098471 -0.065533
v 0.158435 0.532388 0.015648
v 0.123646 0.102849 0.000024
v 0.125926 0.532576 0.079483
v 0.129935 0.098329 0.065496
v 0.089777 0.532660 0.133643
v 0.079186 0.102968 0.107451
v 0.035611 0.532719 0.169777
v 0.029884 0.103016 0.140348
v -0.028240 0.532127 0.202270
v -0.028240 0.098250 0.171054
v -0.092129 0.532716 0.169865
v -0.093765 0.098227 0.158168
v -0.146178 0.532663 0.133563
v -0.149302 0.098271 0.121038
v -0.182352 0.532577 0.079460
v -0.168655 0.102895 0.058186
v -0.195098 0.532476 0.015625
v -0.180039 0.102870 0.000024
v -0.182318 0.532375 -0.048196
v -0.186424 0.098465 -0.065545
v -0.146183 0.532288 -0.102317
v -0.149314 0.098521 -0.121096
v -0.028240 3.754893 -0.159075
v -0.095927 3.754883 -0.145559
v -0.087204 4.659969 -0.111449
v -0.028240 4.659965 -0.123209
v -0.176198 4.987489 -0.030376
v -0.168631 4.986383 0.030910
v -0.164668 5.317182 0.030910
v -0.137292 5.310010 -0.014261
v 0.037269 0.098568 -0.158176
v 0.043161 0.532629 -0.156730
v 0.006703 -0.032288 -0.084360
v -0.028240 -0.048386 -0.102922
v 0.036343 -0.032318 -0.064582
v 0.056144 -0.032323 -0.034953
v 0.063064 -0.032278 0.000001
v 0.066845 -0.048382 0.039386
v 0.044495 -0.048304 0.072736
v 0.011143 -0.048375 0.095081
v -0.028240 -0.032265 0.091296
v -0.067644 -0.048446 0.095129
v -0.101050 -0.048450 0.072811
v -0.123338 -0.048400 0.039391
v -0.131113 -0.048316 0.000001
v -0.123331 -0.048390 -0.039387
v -0.092823 -0.032318 -0.064582
v -0.063201 -0.032348 -0.084401
v 0.128844 3.754911 0.017855
v 0.116903 3.754863 -0.042265
v 0.114080 4.660007 -0.028050
v 0.145666 4.660482 0.030919
v -0.095930 3.754647 0.181270
v -0.028240 3.755039 0.174911
v -0.028240 4.660104 0.184860
v -0.094780 4.660416 0.191559
v -0.139332 3.754821 -0.093236
v -0.191603 3.754814 -0.049816
v -0.188757 4.660506 -0.035570
v -0.137208 4.659985 -0.078066
v 0.082844 3.754821 -0.093229
v 0.031883 3.754794 -0.127294
v 0.030686 4.659966 -0.111361
v 0.094684 4.660532 -0.092006
v 0.039445 3.754647 0.181259
v 0.082790 3.755002 0.128885
v 0.094678 4.660430 0.153837
v 0.030683 4.660098 0.173153
v -0.205029 3.754766 0.017852
v -0.173276 3.754961 0.077931
v -0.188885 4.660454 0.097460
v -0.202060 4.660480 0.030919
v 0.116826 3.754961 0.077944
v 0.113993 4.660059 0.089816
v -0.139277 3.755002 0.128892
v -0.137106 4.660083 0.139766
v -0.130747 1.357799 0.132276
v -0.162193 1.357821 0.085255
v -0.128745 2.183465 0.104648
v -0.177941 2.183617 0.066105
v -0.129782 3.009285 0.110931
v -0.179198 3.008995 0.071912
v 0.105716 1.357822 0.085256
v 0.074269 1.357799 0.132279
v 0.103228 2.183507 0.058600
v 0.072319 2.183466 0.104703
v 0.122575 3.008997 0.071854
v 0.073291 3.009285 0.110921
v -0.028240 1.358075 -0.135030
v 0.027281 1.357913 -0.104271
v -0.028240 2.183674 -0.138174
v 0.033752 2.183458 -0.145566
v -0.028240 3.009136 -0.134217
v 0.026696 3.009143 -0.123239
v -0.173260 1.357849 0.029770
v -0.162253 1.357875 -0.025740
v -0.170503 2.183553 0.004143
v -0.159684 2.183600 -0.050302
v -0.171657 3.009225 0.009390
v -0.160827 3.009191 -0.045530
v 0.034837 1.358209 0.182112
v -0.028240 1.358215 0.194721
v 0.033767 2.183683 0.153797
v -0.028240 2.183430 0.146393
v 0.034258 3.008948 0.160268
v -0.028240 3.009311 0.152935
v 0.074286 1.357898 -0.072757
v 0.124016 1.358118 -0.033237
v 0.086384 2.183484 -0.110527
v 0.121420 2.183524 -0.057894
v 0.087270 3.009091 -0.106127
v 0.104267 3.009191 -0.045497
v -0.144832 1.358096 -0.086762
v -0.083708 1.357912 -0.104140
v -0.142757 2.183485 -0.110419
v -0.090274 2.183457 -0.145665
v -0.129725 3.009162 -0.092095
v -0.083194 3.009143 -0.123280
v -0.083717 1.357784 0.163701
v -0.082637 2.183439 0.135468
v -0.090765 3.008947 0.160331
v 0.136643 1.358146 0.029829
v 0.133729 2.183570 0.004098
v 0.135068 3.009030 0.009384
v 0.025434 4.986376 -0.098672
v -0.028240 4.987489 -0.129239
v -0.028240 5.309981 -0.087054
v 0.024005 5.317220 -0.095223
v 0.119588 4.987481 -0.030322
v 0.071035 4.986383 -0.068366
v 0.055180 5.309986 -0.052511
v 0.080759 5.309988 -0.014239
v -0.028240 4.987485 0.190995
v 0.025433 4.986376 0.160489
v 0.024017 5.317232 0.157071
v -0.028240 5.310008 0.148940
v 0.084937 4.987484 0.144088
v 0.055174 5.309983 0.114325
v -0.157859 4.986378 0.084600
v -0.137323 5.310023 0.076093
v -0.141377 4.987481 0.144046
v -0.124769 5.317215 0.127438
v 0.101322 4.986375 0.084577
v 0.080863 5.310032 0.076102
v -0.118686 5.347286 0.068357
v -0.141390 5.353230 0.030842
v 0.131864 4.987487 0.030910
v 0.089767 5.309999 0.030910
v -0.089515 4.987488 0.178841
v -0.080454 5.317187 0.156964
v -0.081968 4.986384 -0.098800
v -0.127424 4.986377 -0.068274
v -0.124803 5.317233 -0.065653
v -0.073445 5.310044 -0.078223
v 0.041141 5.347253 0.100100
v 0.015271 5.353271 0.135591
v 0.069862 5.347266 0.030842
v 0.062469 5.347294 0.068365
v -0.071469 5.353234 0.135503
v -0.108263 5.353257 0.110988
v -0.108291 5.353272 -0.049331
v -0.065649 5.347304 -0.059768
v -0.023307 5.374815 -0.021667
v -0.052719 5.374865 -0.015946
v -0.071007 5.370492 -0.012232
v -0.083051 5.353585 0.007964
v -0.088782 5.370482 0.030805
v -0.083118 5.353553 0.053636
v -0.068992 5.373645 0.080337
v -0.058143 5.373659 0.087561
v -0.027997 5.353590 0.090352
v -0.004787 5.370469 0.086956
v 0.005602 5.374944 0.071420
v 0.019645 5.374584 0.050524
v 0.023524 5.374745 0.030831
v 0.019584 5.374711 0.011084
v 0.005702 5.375186 -0.009741
v -0.004771 5.370460 -0.025340
v -0.028117 5.347274 0.128841
v -0.118660 5.347276 -0.006662
v -0.028117 5.347252 -0.067100
v 0.062383 5.347258 -0.006644
v 0.041145 5.347255 -0.038420
v 0.015262 5.353261 -0.073883
vn 0.0020 -0.3007 -0.9537
vn 0.4795 0.2434 -0.8431
vn 0.3750 -0.2444 -0.8942
vn 0.7357 0.6045 -0.3055
vn 0.3783 0.8575 -0.3486
vn 0.2514 0.9611 -0.1147
vn 0.8643 0.4967 0.0789
vn 0.4976 0.8598 0.1149
vn 0.4215 0.8720 0.2490
vn 0.6501 0.7176 0.2498
vn 0.1852 0.9385 0.2913
vn 0.3677 0.7373 0.5667
vn 0.2630 0.6017 0.7541
vn 0.3564 0.5197 0.7764
vn 0.1642 0.4453 0.8802
vn 0.1470 0.7410 0.6552
vn -0.3258 0.4807 0.8141
vn -0.2941 0.8957 0.3336
vn -0.3178 0.9180 0.2371
vn -0.5751 0.6055 0.5502
vn -0.6992 0.5255 0.4848
vn -0.7220 0.6044 0.3368
vn -0.4967 0.8668 -0.0428
vn -0.8814 0.4541 -0.1299
vn -0.5134 0.8306 -0.2157
vn -0.8301 0.4178 -0.3693
vn -0.2680 0.9342 -0.2353
vn -0.6327 0.4751 -0.6115
vn -0.3540 0.6190 -0.7011
vn -0.2232 0.8697 -0.4403
vn 0.6117 0.3886 -0.6891
vn 0.2292 0.7491 -0.6216
vn -0.1224 0.5080 -0.8526
vn 0.3500 0.3903 -0.8516
vn -0.5004 0.3189 -0.8049
vn -0.3513 -0.3288 -0.8766
vn -0.1437 0.8980 -0.4160
vn 0.6708 0.0816 -0.7371
vn 0.6620 -0.3148 -0.6802
vn 0.7898 -0.4347 -0.4327
vn 0.3904 -0.8694 -0.3029
vn 0.6139 -0.6045 -0.5076
vn 0.8760 -0.3068 -0.3721
vn 0.8870 -0.4610 -0.0266
vn 0.5169 -0.8183 -0.2515
vn 0.9961 0.0842 0.0279
vn 0.9536 -0.3005 -0.0192
vn 0.7590 -0.5930 0.2690
vn 0.5276 -0.8235 0.2085
vn 0.9221 0.1713 0.3469
vn 0.8324 -0.3449 0.4338
vn 0.6496 -0.5867 0.4836
vn 0.2933 -0.9141 0.2800
vn 0.6777 -0.1025 0.7281
vn 0.2158 -0.6561 0.7232
vn 0.1750 -0.9673 0.1834
vn 0.6241 0.1362 0.7694
vn 0.4593 -0.1345 0.8780
vn 0.1030 -0.6300 0.7698
vn 0.0604 -0.9524 0.2987
vn 0.3562 0.2088 0.9108
vn 0.1257 -0.3014 0.9452
vn -0.1473 -0.9001 0.4100
vn 0.0802 -0.5979 0.7976
vn -0.3950 0.0815 0.9151
vn -0.3477 -0.1982 0.9164
vn -0.2593 -0.6114 0.7476
vn -0.5849 -0.6639 0.4661
vn -0.7118 0.0503 0.7006
vn -0.7678 -0.1853 0.6133
vn -0.7880 -0.4896 0.3733
vn -0.6339 -0.6681 0.3896
vn -0.9082 -0.1880 0.3740
vn -0.2872 -0.9576 -0.0219
vn -0.4777 -0.8674 0.1392
vn -0.9914 0.0977 -0.0869
vn -0.9751 -0.1779 0.1322
vn -0.6363 -0.6657 -0.3897
vn -0.8142 -0.5693 0.1137
vn -0.8984 0.1991 -0.3915
vn -0.9003 -0.2185 -0.3766
vn -0.5736 -0.5848 -0.5736
vn -0.1389 -0.9488 -0.2838
vn -0.7663 0.1651 -0.6210
vn -0.6828 -0.3271 -0.6533
vn -0.2604 -0.5185 -0.8145
vn -0.4521 -0.7834 -0.4265
vn 0.3371 -0.5429 -0.7692
vn -0.0969 -0.4531 -0.8862
vn -0.0811 -0.5571 -0.8265
vn 0.2194 -0.9373 -0.2708
vn -0.0292 0.2246 -0.9740
vn 0.9174 0.1460 -0.3702
vn 0.0192 0.1997 0.9797
vn -0.9318 0.0616 0.3576
vn 0.0565 -0.8419 -0.5367
vn -0.3705 -0.2713 -0.8883
vn 0.0006 0.0219 -0.9998
vn -0.0005 -0.2607 -0.9654
vn 0.7042 0.0193 -0.7097
vn 0.8866 -0.2826 -0.3662
vn 0.6856 -0.2418 -0.6866
vn 0.8657 -0.0017 -0.5005
vn 0.9728 -0.2318 -0.0032
vn 0.8666 -0.0246 0.4985
vn 0.9036 -0.2248 0.3648
vn 0.5936 -0.1913 0.7817
vn 0.7062 -0.0229 0.7076
vn 0.4817 -0.2237 0.8473
vn 0.0011 -0.0319 0.9995
vn 0.1413 -0.2911 0.9462
vn -0.5007 -0.0152 0.8655
vn -0.3532 -0.2499 0.9016
vn -0.7130 -0.0104 0.7010
vn -0.7872 -0.2190 0.5765
vn -0.9509 -0.1818 0.2505
vn -1.0000 -0.0041 0.0005
vn -0.9749 -0.1793 0.1322
vn -0.9273 0.0121 -0.3742
vn -0.9420 -0.2283 -0.2459
vn -0.7933 0.0327 -0.6080
vn -0.6845 -0.2636 -0.6796
vn -0.5026 0.0339 -0.8638
vn -0.5090 0.0068 -0.8607
vn 0.0042 0.0324 -0.9995
vn 0.1438 0.0031 -0.9896
vn -0.9868 0.0777 0.1420
vn -0.8944 0.2525 -0.3693
vn -0.9204 0.0850 -0.3816
vn 0.5086 0.0234 -0.8607
vn 0.5023 -0.2700 -0.8214
vn 0.4062 -0.7326 -0.5461
vn -0.0040 -0.9127 -0.4085
vn 0.7101 -0.6179 -0.3377
vn 0.4920 -0.8154 -0.3050
vn 0.9350 -0.3453 -0.0811
vn 0.5706 -0.7890 0.2278
vn 0.2893 -0.7933 0.5358
vn 0.0502 -0.6611 0.7486
vn -0.1851 -0.8486 0.4956
vn -0.5175 -0.7095 0.4784
vn -0.0752 -0.9154 0.3954
vn -0.6173 -0.7849 0.0536
vn -0.4038 -0.8372 -0.3687
vn -0.5144 -0.8281 -0.2227
vn -0.3466 -0.7400 -0.5764
vn -0.2010 -0.8557 -0.4769
vn 1.0000 -0.0001 -0.0030
vn 0.9212 0.0271 -0.3881
vn 0.9999 0.0172 -0.0016
vn 0.0032 -0.0148 0.9999
vn -0.3825 0.0161 0.9238
vn -0.3826 -0.0192 0.9237
vn -0.8595 -0.0137 -0.5110
vn -0.5964 0.0282 -0.8022
vn -0.7077 0.0011 -0.7066
vn 0.7076 0.0026 -0.7066
vn 0.2538 0.0355 -0.9666
vn 0.7037 0.0521 -0.7085
vn 0.7997 -0.0105 0.6003
vn 0.2449 0.0101 0.9695
vn 0.3831 -0.0084 0.9237
vn -0.8588 -0.0127 0.5121
vn -0.9989 0.0475 0.0022
vn -0.9906 -0.0102 0.1367
vn 0.9208 -0.0100 0.3899
vn 0.9226 0.0130 0.3857
vn -0.7130 0.0240 0.7008
vn -0.8002 -0.0197 0.5994
vn -0.3860 0.0345 -0.9219
vn 0.9236 -0.0014 -0.3834
vn 0.1483 0.0109 0.9889
vn -0.8624 0.0393 -0.5046
vn 0.5030 0.0095 -0.8642
vn 0.7061 0.0075 0.7081
vn -0.8585 0.0425 0.5111
vn -0.9228 0.0115 0.3851
vn -0.9232 -0.0142 0.3841
vn -0.5890 0.0057 0.8081
vn -0.9229 -0.0004 0.3849
vn -0.9214 -0.0142 0.3883
vn -0.7074 -0.0150 0.7066
vn 0.8528 0.0184 0.5219
vn 0.8063 0.0129 0.5914
vn 0.8072 0.0025 0.5903
vn 0.8548 -0.0078 0.5188
vn 0.7102 -0.0100 0.7039
vn -0.0010 0.0104 -0.9999
vn 0.5228 0.0031 -0.8525
vn 0.2389 0.0004 -0.9710
vn 0.0007 0.0107 -0.9999
vn 0.2340 -0.0005 -0.9722
vn 0.0045 -0.0080 -1.0000
vn -0.9719 0.0130 -0.2350
vn -0.9877 -0.0010 -0.1563
vn -0.9717 0.0030 -0.2363
vn -0.9228 -0.0133 -0.3851
vn -0.9874 -0.0223 -0.1567
vn 0.5051 -0.0282 0.8626
vn -0.1514 0.0284 0.9881
vn 0.5167 0.0125 0.8561
vn -0.1576 0.0136 0.9874
vn 0.3850 0.0142 0.9228
vn -0.0028 -0.0237 0.9997
vn 0.3826 -0.0189 0.9237
vn 0.5932 0.0022 -0.8050
vn 0.8537 0.0111 -0.5206
vn 0.9244 -0.0034 -0.3814
vn 0.7078 0.0092 -0.7064
vn 0.9239 0.0059 -0.3825
vn -0.3916 0.0026 -0.9201
vn -0.8078 -0.0006 -0.5895
vn -0.2402 0.0003 -0.9707
vn -0.3798 -0.0087 -0.9250
vn -0.7130 -0.0037 -0.7011
vn -0.7054 0.0185 0.7086
vn -0.3837 0.0118 0.9234
vn -0.3824 -0.0312 0.9235
vn 0.9878 0.0167 0.1548
vn 0.8545 0.0007 0.5195
vn 0.9888 -0.0078 -0.1491
vn -1.0000 0.0069 -0.0002
vn 0.7033 -0.0153 -0.7107
vn -0.7078 0.0012 -0.7064
vn -0.5191 0.0251 0.8543
vn 0.9903 -0.0301 0.1359
vn 0.9888 0.0049 0.1490
vn 0.5104 0.0495 -0.8585
vn -0.1800 0.2614 -0.9483
vn 0.3661 0.2866 -0.8853
vn 0.5980 0.0554 -0.7995
vn 0.8801 0.2927 -0.3739
vn 0.8505 0.0548 -0.5232
vn 0.3735 0.0600 0.9257
vn 0.0067 0.2643 0.9644
vn 0.1585 0.0545 0.9859
vn 0.7983 0.2609 0.5428
vn 0.3640 0.2851 0.8867
vn -0.8944 0.2633 0.3616
vn -0.9586 0.2847 -0.0035
vn 0.8041 0.2432 -0.5424
vn -0.8106 0.0275 0.5850
vn -0.9666 0.0583 0.2494
vn 0.9211 0.0756 0.3819
vn 0.7048 0.0870 0.7041
vn -0.5812 0.8138 -0.0004
vn 0.9562 0.2927 0.0071
vn 0.8868 0.2695 0.3755
vn -0.1838 0.3118 0.9322
vn -0.7928 0.2940 0.5339
vn -0.5913 0.0613 -0.8041
vn -0.1965 0.2591 -0.9456
vn -0.5113 0.0520 -0.8578
vn -0.3748 0.0429 0.9261
vn -0.6763 0.2849 -0.6793
vn 0.9862 0.0722 0.1491
vn 0.2168 0.8052 0.5519
vn 0.6651 0.6939 0.2759
vn -0.5537 0.7719 0.3123
vn -0.4265 0.8053 -0.4118
vn -0.1229 0.7002 -0.7033
vn 0.0367 0.9502 0.3094
vn 0.2995 0.9322 0.2033
vn 0.0994 0.9888 -0.1110
vn 0.0037 0.7537 0.6572
vn -0.6057 0.7554 -0.2498
vn 0.6028 0.6916 0.3979
vn -0.5984 0.7604 0.2523
vn -0.1533 0.7001 -0.6974
vn 0.7397 0.6726 0.0230
vn -0.1455 0.7324 0.6652
vn 0.6036 0.6987 -0.3840
vn 0.6927 0.6720 -0.2617
vn 0.2302 0.7967 -0.5588
vn 0.0011 0.0554 -0.9985
vn -0.4518 0.8668 0.2111
vn 0.1979 0.9802 -0.0018
vn 0.1299 0.9858 -0.1066
vn -0.5658 0.8011 -0.1954
vn 0.1729 0.9307 0.3223
vn -0.0829 0.8525 0.5161
vn -0.0174 0.9111 -0.4118
vn 0.2978 0.9500 -0.0943
vn -0.2931 0.9523 -0.0855
vn -0.3291 0.9433 0.0427
vn -0.1398 0.9854 -0.0974
vn 0.0629 0.9793 0.1923
vn 0.2194 0.9002 0.3761
vt 0.164217 0.250202
vt 0.140787 0.078123
vt 0.138185 0.252715
vt 0.381923 0.479208
vt 0.369057 0.463684
vt 0.384886 0.470830
vt 0.400987 0.485007
vt 0.404790 0.475358
vt 0.419774 0.472775
vt 0.423949 0.480775
vt 0.434878 0.461999
vt 0.441351 0.467102
vt 0.449171 0.450793
vt 0.443041 0.445753
vt 0.104420 0.575855
vt 0.119591 0.583773
vt 0.101393 0.588313
vt 0.083418 0.581203
vt 0.086077 0.587067
vt 0.454211 0.409580
vt 0.434819 0.399725
vt 0.440826 0.388432
vt 0.420525 0.389516
vt 0.424549 0.377119
vt 0.403896 0.377631
vt 0.401625 0.373191
vt 0.220275 0.101759
vt 0.214979 0.115474
vt 0.222602 0.121309
vt 0.212627 0.132470
vt 0.219537 0.139549
vt 0.185009 0.062612
vt 0.199752 0.052385
vt 0.179431 0.054940
vt 0.124132 0.061321
vt 0.147382 0.050678
vt 0.130043 0.051658
vt 0.450411 0.427554
vt 0.163928 0.060887
vt 0.146120 0.063519
vt 0.190515 0.077097
vt 0.190384 0.253006
vt 0.165393 0.050828
vt 0.124589 0.079340
vt 0.119887 0.251975
vt 0.222277 0.174867
vt 0.217548 0.164715
vt 0.223518 0.158498
vt 0.413010 0.152772
vt 0.239455 0.168549
vt 0.240375 0.148954
vt 0.224954 0.192215
vt 0.214011 0.175179
vt 0.413295 0.194466
vt 0.240236 0.191783
vt 0.225738 0.212980
vt 0.214120 0.195120
vt 0.412403 0.217643
vt 0.237047 0.217349
vt 0.161266 0.377048
vt 0.182436 0.376573
vt 0.182382 0.367655
vt 0.240258 0.235730
vt 0.151140 0.394668
vt 0.167953 0.384855
vt 0.143336 0.559594
vt 0.126117 0.389547
vt 0.142860 0.387755
vt 0.149689 0.414265
vt 0.159916 0.402138
vt 0.123241 0.560501
vt 0.104793 0.387410
vt 0.156884 0.432422
vt 0.157858 0.416176
vt 0.079294 0.561336
vt 0.080853 0.385021
vt 0.148954 0.438006
vt 0.169357 0.449121
vt 0.062814 0.560428
vt 0.057599 0.385685
vt 0.182761 0.463864
vt 0.162300 0.457488
vt 0.239661 0.059619
vt 0.410971 0.076463
vt 0.414404 0.057599
vt 0.201477 0.462647
vt 0.182001 0.457749
vt 0.238634 0.103107
vt 0.413260 0.098558
vt 0.219569 0.468629
vt 0.200635 0.472944
vt 0.239459 0.122904
vt 0.414394 0.122670
vt 0.235975 0.455090
vt 0.218127 0.456265
vt 0.240994 0.141308
vt 0.414478 0.144374
vt 0.248432 0.434729
vt 0.236133 0.449045
vt 0.206544 0.080752
vt 0.209660 0.254236
vt 0.142514 0.271957
vt 0.162064 0.274547
vt 0.163127 0.267240
vt 0.129550 0.268832
vt 0.147054 0.279738
vt 0.163501 0.077718
vt 0.415010 0.169869
vt 0.431029 0.154777
vt 0.434413 0.173419
vt 0.432334 0.192483
vt 0.433539 0.215445
vt 0.412097 0.237075
vt 0.434451 0.232847
vt 0.125172 0.367655
vt 0.142791 0.368784
vt 0.124631 0.577656
vt 0.105575 0.371517
vt 0.103734 0.563676
vt 0.062352 0.370874
vt 0.081834 0.368957
vt 0.062270 0.579506
vt 0.429215 0.061819
vt 0.238297 0.080564
vt 0.220583 0.062558
vt 0.220658 0.078834
vt 0.428183 0.082279
vt 0.431026 0.100153
vt 0.427754 0.135493
vt 0.430291 0.119087
vt 0.202816 0.267512
vt 0.182455 0.267806
vt 0.180171 0.279646
vt 0.044445 0.876280
vt 0.033589 0.804308
vt 0.033589 0.876283
vt 0.014024 0.804367
vt 0.007365 0.876299
vt 0.015792 0.875590
vt 0.152529 0.331056
vt 0.081290 0.340307
vt 0.080564 0.329437
vt 0.152543 0.353482
vt 0.080541 0.351163
vt 0.081310 0.358120
vt 0.994187 0.142879
vt 0.984257 0.071640
vt 0.992431 0.071632
vt 0.974619 0.142791
vt 0.974619 0.070850
vt 0.964026 0.142889
vt 0.963754 0.070846
vt 0.955064 0.142880
vt 0.954546 0.070853
vt 0.854136 0.014616
vt 0.925396 0.027115
vt 0.926162 0.016693
vt 0.854167 0.034172
vt 0.925400 0.036759
vt 0.854184 0.044754
vt 0.926130 0.047630
vt 0.854198 0.053728
vt 0.926121 0.056842
vt 0.053664 0.876291
vt 0.045434 0.804311
vt 0.044812 0.270029
vt 0.033589 0.119957
vt 0.033589 0.270027
vt 0.115664 0.031637
vt 0.062004 0.039127
vt 0.115481 0.041799
vt 0.021750 0.804311
vt 0.022727 0.876283
vt 0.027795 0.897980
vt 0.033589 0.900649
vt 0.081273 0.322510
vt 0.058877 0.334508
vt 0.058878 0.329595
vt 0.058885 0.340303
vt 0.056215 0.346834
vt 0.986679 0.046550
vt 0.974619 0.049209
vt 0.981149 0.046538
vt 0.962546 0.046525
vt 0.968085 0.046526
vt 0.950490 0.024690
vt 0.950482 0.030231
vt 0.950480 0.043293
vt 0.950468 0.036762
vt 0.947816 0.047471
vt 0.044297 0.897985
vt 0.039385 0.897990
vt 0.075616 0.086617
vt 0.096459 0.067398
vt 0.077118 0.055069
vt 0.686839 0.343264
vt 0.836913 0.335652
vt 0.836992 0.345430
vt 0.974619 0.677182
vt 0.963586 0.827303
vt 0.963395 0.677117
vt 0.060676 0.270040
vt 0.051657 0.119954
vt 0.052009 0.270039
vt 0.015170 0.270039
vt 0.023818 0.119957
vt 0.013207 0.119863
vt 0.993029 0.677176
vt 0.984389 0.827250
vt 0.985842 0.677117
vt 0.319846 0.023841
vt 0.169702 0.031636
vt 0.319879 0.033803
vt 0.686847 0.353227
vt 0.836922 0.355196
vt 0.319898 0.006706
vt 0.169768 0.013588
vt 0.319840 0.015391
vt 0.043365 0.119957
vt 0.686831 0.333295
vt 0.837000 0.325048
vt 0.974619 0.827251
vt 0.169698 0.042660
vt 0.319871 0.045022
vt 0.023620 0.270044
vt 0.686854 0.361674
vt 0.836983 0.365811
vt 0.169707 0.020603
vt 0.717316 0.022626
vt 0.854150 0.023587
vt 0.580417 0.019411
vt 0.580391 0.025802
vt 0.443535 0.024839
vt 0.443487 0.018369
vt 0.152557 0.362463
vt 0.289377 0.354440
vt 0.289374 0.362236
vt 0.426277 0.357664
vt 0.563159 0.352217
vt 0.563207 0.358695
vt 0.033589 0.667444
vt 0.024383 0.667471
vt 0.023310 0.530587
vt 0.033589 0.530551
vt 0.024480 0.393680
vt 0.033589 0.393681
vt 0.717308 0.041030
vt 0.580402 0.036075
vt 0.580394 0.045103
vt 0.443503 0.044312
vt 0.443497 0.035206
vt 0.985206 0.142889
vt 0.974619 0.279765
vt 0.985078 0.279764
vt 0.974619 0.416594
vt 0.984900 0.416635
vt 0.974619 0.553533
vt 0.984982 0.553473
vt 0.005000 0.804335
vt 0.016589 0.667473
vt 0.008343 0.667437
vt 0.289390 0.328239
vt 0.426287 0.330704
vt 0.289426 0.334792
vt 0.563174 0.322706
vt 0.563191 0.332759
vt 0.686824 0.324845
vt 0.053145 0.804368
vt 0.042786 0.667471
vt 0.052577 0.530583
vt 0.043874 0.530587
vt 0.042701 0.393680
vt 0.050416 0.393677
vt 0.957622 0.279696
vt 0.965600 0.416595
vt 0.957954 0.416599
vt 0.957782 0.553529
vt 0.443543 0.010178
vt 0.289431 0.345249
vt 0.426284 0.350020
vt 0.563164 0.341859
vt 0.717312 0.031826
vt 0.991616 0.279696
vt 0.426314 0.365804
vt 0.289442 0.370499
vt 0.563151 0.366877
vt 0.686795 0.370358
vt 0.014583 0.530583
vt 0.014436 0.393689
vt 0.717271 0.051148
vt 0.580413 0.055071
vt 0.443507 0.052033
vt 0.319870 0.052222
vt 0.965420 0.279693
vt 0.964252 0.553473
vt 0.152512 0.342898
vt 0.426295 0.340983
vt 0.024689 0.065835
vt 0.033589 0.012178
vt 0.024926 0.010978
vt 0.891029 0.328968
vt 0.944686 0.337942
vt 0.891211 0.335275
vt 0.983519 0.881350
vt 0.974619 0.935012
vt 0.974619 0.881534
vt 0.988450 0.935007
vt 0.983284 0.936209
vt 0.062002 0.024145
vt 0.060815 0.031637
vt 0.019757 0.012177
vt 0.017128 0.065834
vt 0.115482 0.012878
vt 0.115665 0.022735
vt 0.891028 0.354327
vt 0.944686 0.359259
vt 0.891212 0.364194
vt 0.054837 0.031648
vt 0.944688 0.345428
vt 0.944694 0.352922
vt 0.955860 0.881533
vt 0.965962 0.936202
vt 0.958613 0.936207
vt 0.050034 0.065835
vt 0.041084 0.012168
vt 0.042497 0.065834
vt 0.964459 0.881534
vt 0.115665 0.048083
vt 0.060806 0.047648
vt 0.891212 0.345428
vt 0.981834 0.942185
vt 0.950872 0.351639
vt 0.961350 0.942183
vt 0.046862 0.005000
vt 0.039791 0.005990
vt 0.092673 0.106006
vt 0.086532 0.118904
vt 0.073953 0.114856
vt 0.974639 0.941191
vt 0.055825 0.037867
vt 0.950865 0.356901
vt 0.054833 0.018360
vt 0.055823 0.025428
vt 0.033568 0.005998
vt 0.950867 0.345417
vt 0.967451 0.942179
vt 0.950865 0.333933
vt 0.950866 0.339202
vt 0.054830 0.044942
vt 0.026376 0.005002
vt 0.022084 0.005998
vt 0.033589 0.065651
vt 0.060204 0.119868
vt 0.956568 0.827247
vt 0.993385 0.881534
vt 0.071784 0.122469
vt 0.076539 0.116593
vt 0.067028 0.110985
vt 0.065904 0.118178
vt 0.077053 0.125991
vt 0.083267 0.119548
vt 0.083269 0.127231
vt 0.079992 0.118894
vt 0.094752 0.122469
vt 0.089996 0.116576
vt 0.089490 0.126005
vt 0.099517 0.110985
vt 0.092573 0.114853
vt 0.093136 0.111005
vt 0.100637 0.118179
vt 0.100622 0.103797
vt 0.091475 0.104208
vt 0.096557 0.097696
vt 0.089489 0.095968
vt 0.083262 0.100926
vt 0.083269 0.092203
vt 0.087048 0.101865
vt 0.077050 0.095972
vt 0.076126 0.103873
vt 0.069975 0.097691
vt 0.079475 0.101876
vt 0.075511 0.106906
vt 0.074562 0.111783
vt 0.068244 0.104762
vt 0.363280 0.469595
vt 0.448240 0.412239
vt 0.215461 0.099488
vt 0.204459 0.059295
vt 0.354403 0.446345
vt 0.353813 0.428334
vt 0.362559 0.414296
vt 0.370914 0.393975
vt 0.387910 0.385660
vt 0.217894 0.212926
vt 0.243640 0.432445
vt 0.131807 0.274802
vt 0.246744 0.414338
vt 0.244760 0.399328
vt 0.230647 0.384081
vt 0.220182 0.372165
vt 0.200241 0.368144
vt 0.221287 0.234096
vt 0.140941 0.581948
vt 0.022880 0.897985
vt 0.056227 0.352364
vt 0.071581 0.057099
vt 0.065873 0.059971
vt 0.064767 0.066465
vt 0.064520 0.072368
vt 0.066548 0.077917
vt 0.070543 0.082260
vt 0.082251 0.086884
vt 0.088491 0.084601
vt 0.091649 0.078956
vt 0.096183 0.074054
vt 0.089660 0.056254
vt 0.083639 0.053446
vt 0.094167 0.061146
vt 0.995000 0.827305
vt 0.169713 0.005000
vt 0.717320 0.014830
vt 0.426280 0.321977
vt 0.052921 0.667440
vt 0.944686 0.331596
vt 0.060809 0.015632
vt 0.049600 0.010976
vt 0.986123 0.941187
vt 0.058122 0.065651
s 1
usemtl Material.001
f 1/1/1 3/2/2 4/3/3
f 5/4/4 7/5/5 8/6/6
f 9/7/7 8/6/6 10/8/8
f 9/7/7 12/9/9 11/10/10
f 11/10/10 14/11/11 13/12/12
f 15/13/13 14/11/11 16/14/14
f 17/15/15 16/16/14 18/17/16
f 19/18/17 18/17/16 20/19/18
f 19/20/17 22/21/19 21/22/20
f 21/22/20 24/23/21 23/24/22
f 23/24/22 26/25/23 25/26/24
f 25/27/24 28/28/25 27/29/26
f 27/29/26 30/30/27 29/31/28
f 31/32/29 30/33/27 32/34/30
f 6/35/31 34/36/32 7/37/5
f 26/25/23 18/38/16 10/8/8
f 36/39/33 34/36/32 33/40/34
f 38/41/35 1/1/1 37/42/36
f 36/39/33 32/34/30 35/43/37
f 4/3/3 39/44/38 40/45/39
f 42/46/40 44/47/41 41/48/42
f 39/49/38 46/50/43 40/51/39
f 47/52/44 43/53/45 42/46/40
f 46/50/43 49/54/46 50/55/47
f 51/56/48 48/57/49 47/52/44
f 50/55/47 53/58/50 54/59/51
f 55/60/52 52/61/53 51/62/48
f 53/58/50 58/63/54 54/59/51
f 59/64/55 56/65/56 55/60/52
f 57/66/57 62/67/58 58/68/54
f 63/69/59 60/70/60 59/64/55
f 61/71/61 66/72/62 62/67/58
f 63/69/59 68/73/63 64/74/64
f 66/72/62 69/75/65 70/76/66
f 67/77/67 72/78/68 68/73/63
f 70/76/66 73/79/69 74/80/70
f 75/81/71 72/78/68 71/82/72
f 73/83/69 78/84/73 74/85/70
f 75/81/71 80/86/74 76/87/75
f 78/84/73 81/88/76 82/89/77
f 83/90/78 80/86/74 79/91/79
f 82/89/77 85/92/80 86/93/81
f 87/94/82 84/95/83 83/90/78
f 86/93/81 89/96/84 90/97/85
f 91/98/86 88/99/87 87/94/82
f 89/100/84 37/42/36 90/101/85
f 94/102/88 96/103/89 93/104/90
f 41/105/42 95/106/91 94/102/88
f 52/61/53 68/73/63 84/95/83
f 4/3/3 93/104/90 1/1/1
f 2/107/92 33/40/34 3/2/2
f 4/3/3 41/105/42 94/102/88
f 39/44/38 33/40/34 6/35/31
f 46/50/43 41/48/42 40/51/39
f 45/108/93 6/109/31 5/110/4
f 46/50/43 47/52/44 42/46/40
f 45/108/93 9/111/7 49/54/46
f 50/55/47 51/56/48 47/52/44
f 49/54/46 11/112/10 53/58/50
f 58/63/54 51/56/48 54/59/51
f 57/113/57 11/112/10 13/114/12
f 58/68/54 59/115/55 55/116/52
f 57/66/57 15/117/13 61/71/61
f 62/67/58 63/118/59 59/115/55
f 61/71/61 17/15/15 65/119/94
f 70/76/66 63/118/59 66/72/62
f 65/119/94 19/18/17 69/75/65
f 70/76/66 71/120/72 67/121/67
f 69/75/65 21/122/20 73/79/69
f 78/84/73 71/123/72 74/85/70
f 77/124/95 21/125/20 23/126/22
f 82/89/77 75/127/71 78/84/73
f 77/124/95 25/27/24 81/88/76
f 86/93/81 79/128/79 82/89/77
f 81/88/76 27/29/26 85/92/80
f 86/93/81 87/129/82 83/130/78
f 89/96/84 27/29/26 29/31/28
f 37/42/36 87/131/82 90/101/85
f 89/100/84 31/32/29 38/41/35
f 1/1/1 91/132/86 37/42/36
f 38/41/35 36/39/33 2/107/92
f 91/132/86 96/103/89 92/133/96
f 97/134/97 99/135/98 100/136/99
f 102/137/100 104/138/101 101/139/102
f 103/140/103 106/141/104 104/142/101
f 106/141/104 107/143/105 108/144/106
f 107/143/105 110/145/107 108/144/106
f 109/146/108 112/147/109 110/148/107
f 112/147/109 113/149/110 114/150/111
f 114/150/111 115/151/112 116/152/113
f 116/152/113 117/153/114 118/154/115
f 117/155/114 120/156/116 118/157/115
f 120/156/116 121/158/117 122/159/118
f 122/159/118 123/160/119 124/161/120
f 124/161/120 125/162/121 126/163/122
f 126/164/122 98/165/123 97/134/97
f 128/166/124 130/167/125 127/168/126
f 132/169/127 134/170/128 131/171/129
f 136/172/130 101/139/102 135/173/131
f 99/135/98 135/173/131 100/136/99
f 100/136/99 137/174/132 138/175/133
f 101/139/102 137/174/132 135/173/131
f 101/176/102 140/177/134 139/178/135
f 106/141/104 140/177/134 104/142/101
f 108/144/106 141/179/136 106/141/104
f 110/145/107 142/180/137 108/144/106
f 112/147/109 143/181/138 110/148/107
f 112/147/109 145/182/139 144/183/140
f 116/152/113 145/182/139 114/150/111
f 116/152/113 147/184/141 146/185/142
f 120/156/116 147/186/141 118/157/115
f 122/159/118 148/187/143 120/156/116
f 122/159/118 150/188/144 149/189/145
f 124/161/120 151/190/146 150/188/144
f 97/134/97 151/191/146 126/164/122
f 100/136/99 152/192/147 97/134/97
f 142/193/137 147/194/141 151/195/146
f 153/196/148 155/197/149 156/198/150
f 158/199/151 160/200/152 157/201/153
f 162/202/154 164/203/155 161/204/156
f 165/205/157 167/206/158 168/207/159
f 170/208/160 172/209/161 169/210/162
f 174/211/163 176/212/164 173/213/165
f 177/214/166 156/198/150 178/215/167
f 157/216/153 180/217/168 179/218/169
f 161/204/156 129/219/170 128/166/124
f 154/220/171 168/221/159 155/197/149
f 158/199/151 172/209/161 159/222/172
f 173/213/165 163/223/173 162/224/154
f 166/225/174 130/167/125 167/206/158
f 170/226/160 178/215/167 171/227/175
f 179/218/169 175/228/176 174/211/163
f 117/155/114 182/229/177 119/230/178
f 182/229/177 183/231/179 184/232/180
f 183/231/179 186/233/181 184/232/180
f 185/234/182 174/211/163 186/233/181
f 109/235/108 187/236/183 188/237/184
f 187/236/183 190/238/185 188/237/184
f 190/238/185 191/239/186 192/240/187
f 192/240/187 177/214/166 170/226/160
f 136/172/130 193/241/188 194/242/189
f 193/241/188 196/243/190 194/242/189
f 195/244/191 198/245/192 196/243/190
f 197/246/193 166/225/174 198/245/192
f 121/158/117 200/247/194 123/160/119
f 200/247/194 201/248/195 202/249/196
f 201/248/195 204/250/197 202/249/196
f 203/251/198 162/224/154 204/250/197
f 111/252/199 206/253/200 113/149/110
f 205/254/201 208/255/202 206/253/200
f 207/256/203 210/257/204 208/255/202
f 209/258/205 158/199/151 210/257/204
f 103/259/103 211/260/206 212/261/207
f 211/262/206 214/263/208 212/264/207
f 214/263/208 215/265/209 216/266/210
f 216/266/210 165/267/157 154/220/171
f 125/268/121 218/269/211 98/165/123
f 218/269/211 219/270/212 220/271/213
f 219/270/212 222/272/214 220/271/213
f 221/273/215 128/166/124 222/272/214
f 115/151/112 181/274/216 117/153/114
f 181/274/216 224/275/217 183/276/179
f 224/275/217 185/277/182 183/276/179
f 225/278/218 179/218/169 185/234/182
f 107/143/105 226/279/219 187/236/183
f 226/279/219 189/280/220 187/236/183
f 189/280/220 228/281/221 191/239/186
f 191/239/186 153/196/148 177/214/166
f 119/230/178 199/282/222 121/158/117
f 199/282/222 184/232/180 201/248/195
f 184/232/180 203/251/198 201/248/195
f 186/233/181 173/213/165 203/251/198
f 111/252/199 188/283/184 205/254/201
f 188/237/184 207/284/203 205/285/201
f 207/284/203 192/240/187 209/286/205
f 209/286/205 170/226/160 169/287/162
f 102/137/100 194/242/189 211/260/206
f 194/242/189 213/288/223 211/260/206
f 213/288/223 198/245/192 215/289/209
f 215/289/209 166/225/174 165/205/157
f 123/160/119 217/290/224 125/162/121
f 217/290/224 202/249/196 219/291/212
f 202/249/196 221/292/215 219/291/212
f 204/250/197 161/293/156 221/292/215
f 115/151/112 206/253/200 223/294/225
f 223/294/225 208/255/202 224/275/217
f 224/275/217 210/257/204 225/295/218
f 225/295/218 158/199/151 157/201/153
f 105/296/226 212/264/207 226/279/219
f 212/264/207 227/297/227 226/279/219
f 227/297/227 216/266/210 228/281/221
f 228/281/221 154/220/171 153/196/148
f 98/165/123 193/241/188 99/135/98
f 193/241/188 220/271/213 195/244/191
f 195/244/191 222/272/214 197/246/193
f 222/272/214 127/168/126 197/246/193
f 229/298/228 231/299/229 232/300/230
f 234/301/231 236/302/232 233/303/233
f 238/304/234 240/305/235 237/306/236
f 238/304/234 242/307/237 239/308/238
f 132/169/127 244/309/239 133/310/240
f 229/298/228 235/311/241 234/312/231
f 245/313/242 244/309/239 243/314/243
f 247/315/244 242/316/237 241/317/245
f 244/309/239 250/318/246 133/310/240
f 247/315/244 252/319/247 248/320/248
f 245/321/242 254/322/249 246/323/250
f 256/324/251 258/325/252 255/326/253
f 253/327/254 240/305/235 254/322/249
f 256/328/251 134/170/128 257/329/255
f 251/330/256 236/302/232 252/319/247
f 242/307/237 260/331/257 239/308/238
f 252/319/247 262/332/258 248/320/248
f 254/322/249 264/333/259 246/323/250
f 258/325/252 265/334/260 266/335/261
f 274/336/262 278/337/263 282/338/264
f 240/305/235 260/331/257 283/339/265
f 134/170/128 250/318/246 284/340/266
f 248/320/248 259/341/267 242/316/237
f 244/309/239 264/342/259 249/343/268
f 231/299/229 266/335/261 285/344/269
f 236/302/232 261/345/270 252/319/247
f 240/305/235 263/346/271 254/322/249
f 236/302/232 287/347/272 286/348/273
f 134/170/128 265/349/260 257/329/255
f 235/311/241 288/350/274 287/351/272
f 255/326/253 231/299/229 230/352/275
f 130/167/125 255/326/253 230/352/275
f 155/197/149 251/330/256 156/198/150
f 163/353/173 256/324/251 164/203/155
f 159/222/172 253/327/254 160/200/152
f 164/203/155 255/326/253 129/219/170
f 180/354/168 253/327/254 245/321/242
f 178/215/167 251/330/256 247/315/244
f 178/215/167 241/317/245 171/227/175
f 180/217/168 243/314/243 175/228/176
f 167/206/158 234/312/231 168/207/159
f 176/212/164 243/314/243 132/169/127
f 172/209/161 241/355/245 238/304/234
f 159/222/172 238/304/234 237/306/236
f 155/197/149 234/301/231 233/303/233
f 130/167/125 229/298/228 167/206/158
f 163/223/173 132/169/127 131/171/129
f 287/356/272 282/338/264 281/357/276
f 285/358/269 282/338/264 288/359/274
f 286/360/273 279/361/277 261/362/270
f 287/356/272 280/363/278 286/360/273
f 259/364/267 278/337/263 277/365/279
f 261/362/270 278/337/263 262/366/258
f 283/367/265 276/368/280 275/369/281
f 259/364/267 276/368/280 260/370/257
f 263/371/271 273/372/282 264/373/259
f 283/367/265 274/336/262 263/371/271
f 249/374/268 271/375/283 250/376/246
f 249/374/268 273/372/282 272/377/284
f 284/378/266 269/379/285 265/380/260
f 284/378/266 271/375/283 270/381/286
f 285/358/269 268/382/287 267/383/288
f 266/384/261 269/379/285 268/382/287
f 231/299/229 288/350/274 232/300/230
f 1/1/1 2/107/92 3/2/2
f 5/4/4 6/385/31 7/5/5
f 9/7/7 5/4/4 8/6/6
f 9/7/7 10/8/8 12/9/9
f 11/10/10 12/9/9 14/11/11
f 15/13/13 13/12/12 14/11/11
f 17/15/15 15/117/13 16/16/14
f 19/18/17 17/15/15 18/17/16
f 19/20/17 20/386/18 22/21/19
f 21/22/20 22/21/19 24/23/21
f 23/24/22 24/23/21 26/25/23
f 25/27/24 26/387/23 28/28/25
f 27/29/26 28/28/25 30/30/27
f 31/32/29 29/388/28 30/33/27
f 6/35/31 33/40/34 34/36/32
f 7/5/5 34/389/32 35/390/37
f 32/391/30 30/392/27 28/393/25
f 7/5/5 35/390/37 32/391/30
f 10/8/8 8/6/6 7/5/5
f 14/11/11 12/9/9 10/8/8
f 18/38/16 16/14/14 14/11/11
f 22/21/19 20/386/18 18/38/16
f 26/25/23 24/23/21 22/21/19
f 32/391/30 28/393/25 26/25/23
f 10/8/8 7/5/5 32/391/30
f 18/38/16 14/11/11 10/8/8
f 26/25/23 22/21/19 18/38/16
f 10/8/8 32/391/30 26/25/23
f 36/39/33 35/43/37 34/36/32
f 38/41/35 2/107/92 1/1/1
f 36/39/33 31/32/29 32/34/30
f 4/3/3 3/2/2 39/44/38
f 42/46/40 43/53/45 44/47/41
f 39/49/38 45/108/93 46/50/43
f 47/52/44 48/57/49 43/53/45
f 46/50/43 45/108/93 49/54/46
f 51/56/48 52/394/53 48/57/49
f 50/55/47 49/54/46 53/58/50
f 55/60/52 56/65/56 52/61/53
f 53/58/50 57/113/57 58/63/54
f 59/64/55 60/70/60 56/65/56
f 57/66/57 61/71/61 62/67/58
f 63/69/59 64/74/64 60/70/60
f 61/71/61 65/119/94 66/72/62
f 63/69/59 67/77/67 68/73/63
f 66/72/62 65/119/94 69/75/65
f 67/77/67 71/82/72 72/78/68
f 70/76/66 69/75/65 73/79/69
f 75/81/71 76/87/75 72/78/68
f 73/83/69 77/124/95 78/84/73
f 75/81/71 79/91/79 80/86/74
f 78/84/73 77/124/95 81/88/76
f 83/90/78 84/95/83 80/86/74
f 82/89/77 81/88/76 85/92/80
f 87/94/82 88/99/87 84/95/83
f 86/93/81 85/92/80 89/96/84
f 91/98/86 92/395/96 88/99/87
f 89/100/84 38/41/35 37/42/36
f 94/102/88 95/106/91 96/103/89
f 41/105/42 44/396/41 95/106/91
f 92/395/96 96/397/89 95/398/91
f 44/399/41 43/400/45 48/401/49
f 92/395/96 95/398/91 44/399/41
f 84/95/83 88/99/87 92/395/96
f 76/87/75 80/86/74 84/95/83
f 68/73/63 72/78/68 76/87/75
f 60/70/60 64/74/64 68/73/63
f 52/61/53 56/65/56 60/70/60
f 44/399/41 48/401/49 52/61/53
f 84/95/83 92/395/96 44/399/41
f 68/73/63 76/87/75 84/95/83
f 52/61/53 60/70/60 68/73/63
f 84/95/83 44/399/41 52/61/53
f 4/3/3 94/102/88 93/104/90
f 2/107/92 36/39/33 33/40/34
f 4/3/3 40/45/39 41/105/42
f 39/44/38 3/2/2 33/40/34
f 46/50/43 42/46/40 41/48/42
f 45/108/93 39/49/38 6/109/31
f 46/50/43 50/55/47 47/52/44
f 45/108/93 5/110/4 9/111/7
f 50/55/47 54/59/51 51/56/48
f 49/54/46 9/111/7 11/112/10
f 58/63/54 55/402/52 51/56/48
f 57/113/57 53/58/50 11/112/10
f 58/68/54 62/67/58 59/115/55
f 57/66/57 13/403/12 15/117/13
f 62/67/58 66/72/62 63/118/59
f 61/71/61 15/117/13 17/15/15
f 70/76/66 67/121/67 63/118/59
f 65/119/94 17/15/15 19/18/17
f 70/76/66 74/80/70 71/120/72
f 69/75/65 19/18/17 21/122/20
f 78/84/73 75/127/71 71/123/72
f 77/124/95 73/83/69 21/125/20
f 82/89/77 79/128/79 75/127/71
f 77/124/95 23/126/22 25/27/24
f 86/93/81 83/130/78 79/128/79
f 81/88/76 25/27/24 27/29/26
f 86/93/81 90/97/85 87/129/82
f 89/96/84 85/92/80 27/29/26
f 37/42/36 91/132/86 87/131/82
f 89/100/84 29/388/28 31/32/29
f 1/1/1 93/104/90 91/132/86
f 38/41/35 31/32/29 36/39/33
f 91/132/86 93/104/90 96/103/89
f 97/134/97 98/165/123 99/135/98
f 102/137/100 103/259/103 104/138/101
f 103/140/103 105/296/226 106/141/104
f 106/141/104 105/296/226 107/143/105
f 107/143/105 109/235/108 110/145/107
f 109/146/108 111/252/199 112/147/109
f 112/147/109 111/252/199 113/149/110
f 114/150/111 113/149/110 115/151/112
f 116/152/113 115/151/112 117/153/114
f 117/155/114 119/230/178 120/156/116
f 120/156/116 119/230/178 121/158/117
f 122/159/118 121/158/117 123/160/119
f 124/161/120 123/160/119 125/162/121
f 126/164/122 125/268/121 98/165/123
f 128/166/124 129/219/170 130/167/125
f 132/169/127 133/310/240 134/170/128
f 136/172/130 102/137/100 101/139/102
f 99/135/98 136/172/130 135/173/131
f 100/136/99 135/173/131 137/174/132
f 101/139/102 139/404/135 137/174/132
f 101/176/102 104/142/101 140/177/134
f 106/141/104 141/179/136 140/177/134
f 108/144/106 142/180/137 141/179/136
f 110/145/107 143/405/138 142/180/137
f 112/147/109 144/183/140 143/181/138
f 112/147/109 114/150/111 145/182/139
f 116/152/113 146/185/142 145/182/139
f 116/152/113 118/154/115 147/184/141
f 120/156/116 148/187/143 147/186/141
f 122/159/118 149/189/145 148/187/143
f 122/159/118 124/161/120 150/188/144
f 124/161/120 126/163/122 151/190/146
f 97/134/97 152/192/147 151/191/146
f 100/136/99 138/175/133 152/192/147
f 152/406/147 138/407/133 137/408/132
f 137/408/132 139/409/135 140/410/134
f 140/410/134 141/411/136 142/193/137
f 142/193/137 143/412/138 144/413/140
f 145/414/139 146/415/142 147/194/141
f 142/193/137 144/413/140 145/414/139
f 137/408/132 140/410/134 142/193/137
f 151/195/146 152/406/147 137/408/132
f 149/416/145 150/417/144 151/195/146
f 147/194/141 148/418/143 149/416/145
f 142/193/137 145/414/139 147/194/141
f 151/195/146 137/408/132 142/193/137
f 147/194/141 149/416/145 151/195/146
f 153/196/148 154/220/171 155/197/149
f 158/199/151 159/222/172 160/200/152
f 162/202/154 163/353/173 164/203/155
f 165/205/157 166/225/174 167/206/158
f 170/208/160 171/419/175 172/209/161
f 174/211/163 175/228/176 176/212/164
f 177/214/166 153/196/148 156/198/150
f 157/216/153 160/420/152 180/217/168
f 161/204/156 164/203/155 129/219/170
f 154/220/171 165/267/157 168/221/159
f 158/199/151 169/210/162 172/209/161
f 173/213/165 176/212/164 163/223/173
f 166/225/174 127/168/126 130/167/125
f 170/226/160 177/214/166 178/215/167
f 179/218/169 180/217/168 175/228/176
f 117/155/114 181/421/216 182/229/177
f 182/229/177 181/421/216 183/231/179
f 183/231/179 185/234/182 186/233/181
f 185/234/182 179/218/169 174/211/163
f 109/235/108 107/143/105 187/236/183
f 187/236/183 189/280/220 190/238/185
f 190/238/185 189/280/220 191/239/186
f 192/240/187 191/239/186 177/214/166
f 136/172/130 99/135/98 193/241/188
f 193/241/188 195/244/191 196/243/190
f 195/244/191 197/246/193 198/245/192
f 197/246/193 127/168/126 166/225/174
f 121/158/117 199/282/222 200/247/194
f 200/247/194 199/282/222 201/248/195
f 201/248/195 203/251/198 204/250/197
f 203/251/198 173/213/165 162/224/154
f 111/252/199 205/254/201 206/253/200
f 205/254/201 207/256/203 208/255/202
f 207/256/203 209/258/205 210/257/204
f 209/258/205 169/210/162 158/199/151
f 103/259/103 102/137/100 211/260/206
f 211/262/206 213/422/223 214/263/208
f 214/263/208 213/422/223 215/265/209
f 216/266/210 215/265/209 165/267/157
f 125/268/121 217/423/224 218/269/211
f 218/269/211 217/423/224 219/270/212
f 219/270/212 221/273/215 222/272/214
f 221/273/215 161/204/156 128/166/124
f 115/151/112 223/294/225 181/274/216
f 181/274/216 223/294/225 224/275/217
f 224/275/217 225/295/218 185/277/182
f 225/278/218 157/216/153 179/218/169
f 107/143/105 105/296/226 226/279/219
f 226/279/219 227/297/227 189/280/220
f 189/280/220 227/297/227 228/281/221
f 191/239/186 228/281/221 153/196/148
f 119/230/178 182/229/177 199/282/222
f 199/282/222 182/229/177 184/232/180
f 184/232/180 186/233/181 203/251/198
f 186/233/181 174/211/163 173/213/165
f 111/252/199 109/146/108 188/283/184
f 188/237/184 190/238/185 207/284/203
f 207/284/203 190/238/185 192/240/187
f 209/286/205 192/240/187 170/226/160
f 102/137/100 136/172/130 194/242/189
f 194/242/189 196/243/190 213/288/223
f 213/288/223 196/243/190 198/245/192
f 215/289/209 198/245/192 166/225/174
f 123/160/119 200/247/194 217/290/224
f 217/290/224 200/247/194 202/249/196
f 202/249/196 204/250/197 221/292/215
f 204/250/197 162/224/154 161/293/156
f 115/151/112 113/149/110 206/253/200
f 223/294/225 206/253/200 208/255/202
f 224/275/217 208/255/202 210/257/204
f 225/295/218 210/257/204 158/199/151
f 105/296/226 103/140/103 212/264/207
f 212/264/207 214/263/208 227/297/227
f 227/297/227 214/263/208 216/266/210
f 228/281/221 216/266/210 154/220/171
f 98/165/123 218/269/211 193/241/188
f 193/241/188 218/269/211 220/271/213
f 195/244/191 220/271/213 222/272/214
f 222/272/214 128/166/124 127/168/126
f 229/298/228 230/352/275 231/299/229
f 234/301/231 235/424/241 236/302/232
f 238/304/234 239/308/238 240/305/235
f 238/304/234 241/355/245 242/307/237
f 132/169/127 243/314/243 244/309/239
f 229/298/228 232/300/230 235/311/241
f 245/313/242 246/425/250 244/309/239
f 247/315/244 248/320/248 242/316/237
f 244/309/239 249/343/268 250/318/246
f 247/315/244 251/330/256 252/319/247
f 245/321/242 253/327/254 254/322/249
f 256/324/251 257/426/255 258/325/252
f 253/327/254 237/306/236 240/305/235
f 256/328/251 131/171/129 134/170/128
f 251/330/256 233/303/233 236/302/232
f 242/307/237 259/427/267 260/331/257
f 252/319/247 261/345/270 262/332/258
f 254/322/249 263/346/271 264/333/259
f 258/325/252 257/426/255 265/334/260
f 282/338/264 267/383/288 268/382/287
f 268/382/287 269/379/285 270/381/286
f 270/381/286 271/375/283 272/377/284
f 272/377/284 273/372/282 274/336/262
f 274/336/262 275/369/281 276/368/280
f 276/368/280 277/365/279 278/337/263
f 278/337/263 279/361/277 280/363/278
f 280/363/278 281/357/276 282/338/264
f 282/338/264 268/382/287 270/381/286
f 270/381/286 272/377/284 274/336/262
f 274/336/262 276/368/280 278/337/263
f 278/337/263 280/363/278 282/338/264
f 282/338/264 270/381/286 274/336/262
f 240/305/235 239/308/238 260/331/257
f 134/170/128 133/310/240 250/318/246
f 248/320/248 262/332/258 259/341/267
f 244/309/239 246/425/250 264/342/259
f 231/299/229 258/325/252 266/335/261
f 236/302/232 286/348/273 261/345/270
f 240/305/235 283/339/265 263/346/271
f 236/302/232 235/424/241 287/347/272
f 134/170/128 284/340/266 265/349/260
f 235/311/241 232/300/230 288/350/274
f 255/326/253 258/325/252 231/299/229
f 130/167/125 129/219/170 255/326/253
f 155/197/149 233/303/233 251/330/256
f 163/353/173 131/428/129 256/324/251
f 159/222/172 237/306/236 253/327/254
f 164/203/155 256/324/251 255/326/253
f 180/354/168 160/200/152 253/327/254
f 178/215/167 156/198/150 251/330/256
f 178/215/167 247/315/244 241/317/245
f 180/217/168 245/313/242 243/314/243
f 167/206/158 229/298/228 234/312/231
f 176/212/164 175/228/176 243/314/243
f 172/209/161 171/419/175 241/355/245
f 159/222/172 172/209/161 238/304/234
f 155/197/149 168/221/159 234/301/231
f 130/167/125 230/352/275 229/298/228
f 163/223/173 176/212/164 132/169/127
f 287/356/272 288/359/274 282/338/264
f 285/358/269 267/383/288 282/338/264
f 286/360/273 280/363/278 279/361/277
f 287/356/272 281/357/276 280/363/278
f 259/364/267 262/366/258 278/337/263
f 261/362/270 279/361/277 278/337/263
f 283/367/265 260/370/257 276/368/280
f 259/364/267 277/365/279 276/368/280
f 263/371/271 274/336/262 273/372/282
f 283/367/265 275/369/281 274/336/262
f 249/374/268 272/377/284 271/375/283
f 249/374/268 264/373/259 273/372/282
f 284/378/266 270/381/286 269/379/285
f 284/378/266 250/376/246 271/375/283
f 285/358/269 266/384/261 268/382/287
f 266/384/261 265/380/260 269/379/285
f 231/299/229 285/344/269 288/350/274
