# Blender 5.1.2
# www.blender.org
mtllib banner2.mtl
o GenMesh
v -0.026657 7.908114 -0.109423
v -0.026657 7.955991 -0.156275
v -0.026657 8.003867 -0.109423
v -0.026657 7.979929 -0.062571
v -0.026657 7.932052 -0.062571
v 1.790060 7.955990 -0.156275
v 1.790060 7.908115 -0.109423
v 1.790060 7.932052 -0.062571
v 1.790060 7.979929 -0.062571
v 1.790060 8.003867 -0.109423
v 1.873549 7.927421 -0.055318
v 1.873549 7.898850 -0.111236
v 1.873549 7.955990 -0.167154
v 1.873549 8.013131 -0.111236
v 1.873549 7.984561 -0.055318
v 2.168383 7.955991 -0.100053
v 1.747252 7.908115 -0.109423
v 1.747252 7.932052 -0.062571
v 1.747252 7.979929 -0.062571
v 1.747252 8.003867 -0.109423
v 1.747252 7.955990 -0.156275
v 1.767072 7.925567 -0.052417
v 1.767072 7.986414 -0.052417
v 1.767072 8.016837 -0.111961
v 1.767072 7.955990 -0.171506
v 1.767072 7.895145 -0.111961
v -0.042438 0.053282 -0.061008
v -0.066440 0.053282 -0.102470
v -0.022354 0.053280 -0.143932
v 0.029343 0.053282 -0.102470
v 0.005377 0.053282 -0.061008
v -0.022605 2.288985 -0.148011
v 0.033326 2.288986 -0.103150
v -0.070281 2.288986 -0.103150
v -0.044354 2.288985 -0.058288
v 0.007434 2.288986 -0.058288
v 0.029334 8.191245 -0.102469
v 0.003432 8.191245 -0.143931
v -0.018541 8.262344 -0.184708
v 0.076419 8.262344 -0.102469
v -0.066418 8.191245 -0.102469
v -0.113504 8.262344 -0.102469
v -0.042480 8.191245 -0.061007
v -0.066023 8.262344 -0.020230
v 0.005396 8.191245 -0.061007
v 0.028938 8.262344 -0.020230
v -0.018547 8.370255 -0.182983
v 0.078171 8.370255 -0.099228
v -0.115255 8.370255 -0.099228
v -0.066899 8.370255 -0.015472
v 0.029814 8.370255 -0.015472
v -0.018542 9.040083 -0.099228
v 0.033324 3.264742 -0.103150
v -0.022523 3.264740 -0.148013
v -0.070281 3.264742 -0.103150
v -0.044376 3.264742 -0.058287
v 0.007434 3.264742 -0.058287
v -0.023123 3.241824 -0.156455
v 0.041576 3.241827 -0.104556
v 0.041579 2.311902 -0.104557
v -0.023123 2.311900 -0.156454
v -0.078274 3.241827 -0.104556
v -0.078277 2.311902 -0.104557
v -0.048309 3.241827 -0.052660
v -0.048285 2.311902 -0.052660
v 0.011625 3.241827 -0.052659
v 0.011626 2.311902 -0.052660
v 1.706391 4.828492 -0.085505
v 1.706391 8.017011 -0.108761
v 1.280863 4.867647 -0.097706
v 1.280863 8.017010 -0.109056
v 0.855335 4.892699 -0.097706
v 0.855338 8.017012 -0.109056
v 0.429808 4.903617 -0.085606
v 0.429810 8.017011 -0.108763
v 0.004282 4.903616 -0.065466
v 0.004284 8.017011 -0.108275
v 0.004285 7.981211 -0.057471
v 0.429811 7.981310 -0.058246
v 0.855340 7.981409 -0.058694
v 1.280865 7.981506 -0.058674
v 1.706394 7.981606 -0.058208
v 0.004285 7.888503 -0.064550
v 0.429813 7.888503 -0.065494
v 0.855341 7.888502 -0.066042
v 1.280867 7.888502 -0.066020
v 1.706396 7.888502 -0.065449
v 1.706396 7.913352 -0.058030
v 1.280867 7.913352 -0.058543
v 0.855341 7.913352 -0.058552
v 0.429813 7.913352 -0.058036
v 0.004285 7.913352 -0.057154
v 1.706395 7.656397 -0.066970
v 0.004285 7.656397 -0.064621
v 0.429812 7.656397 -0.067058
v 0.855340 7.656397 -0.068495
v 1.280867 7.656397 -0.068455
v 1.706395 7.422762 -0.068501
v 0.004285 7.422762 -0.064693
v 0.429812 7.422762 -0.068632
v 0.855340 7.422762 -0.070965
v 1.280866 7.422762 -0.070905
v 1.706395 7.200686 -0.069957
v 0.004285 7.200686 -0.064761
v 0.429812 7.200686 -0.070128
v 0.855340 7.200686 -0.073312
v 1.280866 7.200686 -0.073234
v 1.706394 6.973175 -0.071448
v 0.004284 6.973175 -0.064831
v 0.429811 6.973175 -0.071661
v 0.855339 6.973175 -0.075716
v 1.280866 6.973175 -0.075621
v 1.706394 6.762876 -0.072826
v 0.004284 6.762876 -0.064895
v 0.429811 6.762876 -0.073078
v 0.855339 6.762876 -0.077939
v 1.280865 6.762876 -0.077827
v 1.706394 6.541471 -0.074278
v 0.004284 6.541471 -0.064963
v 0.429811 6.541471 -0.074570
v 0.855338 6.541471 -0.080279
v 1.280865 6.541471 -0.080149
v 1.706393 6.314630 -0.075764
v 0.004283 6.314630 -0.065033
v 0.429810 6.314630 -0.076098
v 0.855338 6.314630 -0.082677
v 1.280865 6.314630 -0.082528
v 1.706393 6.071038 -0.077361
v 0.004283 6.071038 -0.065107
v 0.429810 6.071038 -0.077740
v 0.855337 6.071038 -0.085252
v 1.280864 6.071038 -0.085083
v 1.706393 5.833355 -0.078919
v 0.004283 5.833355 -0.065180
v 0.429810 5.833355 -0.079341
v 0.855337 5.833355 -0.087764
v 1.280864 5.833355 -0.087577
v 1.706392 5.590253 -0.080512
v 0.004282 5.590253 -0.065255
v 0.429809 5.590253 -0.080979
v 0.855336 5.590253 -0.090333
v 1.280864 5.590253 -0.090126
v 1.706392 5.336077 -0.082178
v 0.004282 5.336077 -0.065333
v 0.429809 5.336077 -0.082692
v 0.855336 5.336077 -0.093020
v 1.280864 5.336077 -0.092793
v 1.706391 5.116122 -0.083620
v 0.004282 5.116122 -0.065400
v 0.429809 5.116122 -0.084174
v 0.855335 5.116122 -0.095345
v 1.280863 5.116122 -0.095100
v 0.209830 4.903617 -0.075194
v 0.209830 7.888503 -0.065006
v 0.209830 7.656397 -0.065798
v 0.209830 7.422762 -0.066596
v 0.209830 7.200686 -0.067354
v 0.209830 6.973175 -0.068130
v 0.209830 6.762876 -0.068848
v 0.209830 6.541471 -0.069604
v 0.209830 6.314630 -0.070378
v 0.209830 6.071038 -0.071209
v 0.209830 5.833355 -0.072021
v 0.209830 5.590253 -0.072850
v 0.209830 5.336077 -0.073718
v 0.209830 5.116122 -0.074469
v 0.640241 4.898218 -0.091590
v 0.640241 7.888503 -0.065765
v 0.640241 7.656397 -0.067769
v 0.640241 7.422762 -0.069785
v 0.640241 7.200686 -0.071703
v 0.640241 6.973175 -0.073667
v 0.640241 6.762876 -0.075482
v 0.640241 6.541471 -0.077393
v 0.640241 6.314630 -0.079352
v 0.640241 6.071038 -0.081454
v 0.640241 5.833355 -0.083506
v 0.640241 5.590253 -0.085605
v 0.640241 5.336077 -0.087799
v 0.640241 5.116122 -0.089698
v 1.053366 4.881041 -0.097706
v 1.053366 7.888502 -0.066032
v 1.053366 7.656397 -0.068476
v 1.053366 7.422762 -0.070937
v 1.053366 7.200686 -0.073276
v 1.053366 6.973175 -0.075672
v 1.053366 6.762876 -0.077887
v 1.053366 6.541471 -0.080219
v 1.053366 6.314630 -0.082608
v 1.053366 6.071038 -0.085173
v 1.053366 5.833355 -0.087677
v 1.053366 5.590253 -0.090237
v 1.053366 5.336077 -0.092914
v 1.053366 5.116122 -0.095231
v 1.483179 4.849030 -0.091905
v 1.483179 7.888502 -0.065748
v 1.483179 7.656397 -0.067749
v 1.483179 7.422762 -0.069762
v 1.483179 7.200686 -0.071676
v 1.483179 6.973175 -0.073637
v 1.483179 6.762876 -0.075449
v 1.483179 6.541471 -0.077358
v 1.483179 6.314630 -0.079312
v 1.483179 6.071038 -0.081412
v 1.483179 5.833355 -0.083460
v 1.483179 5.590253 -0.085555
v 1.483179 5.336077 -0.087746
v 1.483179 5.116122 -0.089642
v 1.706391 4.828492 -0.135766
v 1.706391 8.017011 -0.112510
v 1.280863 4.867647 -0.123565
v 1.280863 8.017010 -0.112214
v 0.855335 4.892699 -0.123565
v 0.855338 8.017012 -0.112214
v 0.429808 4.903617 -0.135665
v 0.429810 8.017011 -0.112508
v 0.004282 4.903616 -0.155805
v 0.004284 8.017011 -0.112996
v 0.004285 7.981211 -0.163800
v 0.429811 7.981310 -0.163025
v 0.855340 7.981409 -0.162577
v 1.280865 7.981506 -0.162597
v 1.706394 7.981606 -0.163063
v 0.004285 7.888503 -0.156721
v 0.429813 7.888503 -0.155777
v 0.855341 7.888502 -0.155229
v 1.280867 7.888502 -0.155251
v 1.706396 7.888502 -0.155822
v 1.706396 7.913352 -0.163241
v 1.280867 7.913352 -0.162728
v 0.855341 7.913352 -0.162719
v 0.429813 7.913352 -0.163234
v 0.004285 7.913352 -0.164116
v 1.706395 7.656397 -0.154301
v 0.004285 7.656397 -0.156650
v 0.429812 7.656397 -0.154213
v 0.855340 7.656397 -0.152776
v 1.280867 7.656397 -0.152816
v 1.706395 7.422762 -0.152769
v 0.004285 7.422762 -0.156578
v 0.429812 7.422762 -0.152639
v 0.855340 7.422762 -0.150306
v 1.280866 7.422762 -0.150366
v 1.706395 7.200686 -0.151314
v 0.004285 7.200686 -0.156510
v 0.429812 7.200686 -0.151143
v 0.855340 7.200686 -0.147959
v 1.280866 7.200686 -0.148036
v 1.706394 6.973175 -0.149823
v 0.004284 6.973175 -0.156440
v 0.429811 6.973175 -0.149610
v 0.855339 6.973175 -0.145554
v 1.280866 6.973175 -0.145650
v 1.706394 6.762876 -0.148444
v 0.004284 6.762876 -0.156376
v 0.429811 6.762876 -0.148193
v 0.855339 6.762876 -0.143332
v 1.280865 6.762876 -0.143444
v 1.706394 6.541471 -0.146993
v 0.004284 6.541471 -0.156308
v 0.429811 6.541471 -0.146701
v 0.855338 6.541471 -0.140991
v 1.280865 6.541471 -0.141122
v 1.706393 6.314630 -0.145506
v 0.004283 6.314630 -0.156238
v 0.429810 6.314630 -0.145172
v 0.855338 6.314630 -0.138594
v 1.280865 6.314630 -0.138742
v 1.706393 6.071038 -0.143910
v 0.004283 6.071038 -0.156163
v 0.429810 6.071038 -0.143531
v 0.855337 6.071038 -0.136019
v 1.280864 6.071038 -0.136187
v 1.706393 5.833355 -0.142352
v 0.004283 5.833355 -0.156090
v 0.429810 5.833355 -0.141930
v 0.855337 5.833355 -0.133507
v 1.280864 5.833355 -0.133694
v 1.706392 5.590253 -0.140759
v 0.004282 5.590253 -0.156016
v 0.429809 5.590253 -0.140292
v 0.855336 5.590253 -0.130938
v 1.280864 5.590253 -0.131144
v 1.706392 5.336077 -0.139093
v 0.004282 5.336077 -0.155938
v 0.429809 5.336077 -0.138579
v 0.855336 5.336077 -0.128251
v 1.280864 5.336077 -0.128478
v 1.706391 5.116122 -0.137651
v 0.004282 5.116122 -0.155870
v 0.429809 5.116122 -0.137097
v 0.855335 5.116122 -0.125926
v 1.280863 5.116122 -0.126171
v 0.209830 4.903617 -0.146077
v 0.209830 7.888503 -0.156265
v 0.209830 7.656397 -0.155473
v 0.209830 7.422762 -0.154675
v 0.209830 7.200686 -0.153917
v 0.209830 6.973175 -0.153141
v 0.209830 6.762876 -0.152423
v 0.209830 6.541471 -0.151667
v 0.209830 6.314630 -0.150893
v 0.209830 6.071038 -0.150061
v 0.209830 5.833355 -0.149250
v 0.209830 5.590253 -0.148420
v 0.209830 5.336077 -0.147553
v 0.209830 5.116122 -0.146802
v 0.640241 4.898218 -0.129681
v 0.640241 7.888503 -0.155506
v 0.640241 7.656397 -0.153502
v 0.640241 7.422762 -0.151485
v 0.640241 7.200686 -0.149568
v 0.640241 6.973175 -0.147604
v 0.640241 6.762876 -0.145789
v 0.640241 6.541471 -0.143877
v 0.640241 6.314630 -0.141919
v 0.640241 6.071038 -0.139816
v 0.640241 5.833355 -0.137764
v 0.640241 5.590253 -0.135666
v 0.640241 5.336077 -0.133472
v 0.640241 5.116122 -0.131573
v 1.053366 4.881041 -0.123565
v 1.053366 7.888502 -0.155239
v 1.053366 7.656397 -0.152795
v 1.053366 7.422762 -0.150334
v 1.053366 7.200686 -0.147995
v 1.053366 6.973175 -0.145599
v 1.053366 6.762876 -0.143384
v 1.053366 6.541471 -0.141052
v 1.053366 6.314630 -0.138663
v 1.053366 6.071038 -0.136097
v 1.053366 5.833355 -0.133594
v 1.053366 5.590253 -0.131034
v 1.053366 5.336077 -0.128357
v 1.053366 5.116122 -0.126040
v 1.483179 4.849030 -0.129366
v 1.483179 7.888502 -0.155522
v 1.483179 7.656397 -0.153522
v 1.483179 7.422762 -0.151509
v 1.483179 7.200686 -0.149595
v 1.483179 6.973175 -0.147634
v 1.483179 6.762876 -0.145821
v 1.483179 6.541471 -0.143913
v 1.483179 6.314630 -0.141958
v 1.483179 6.071038 -0.139859
v 1.483179 5.833355 -0.137811
v 1.483179 5.590253 -0.135715
v 1.483179 5.336077 -0.133525
v 1.483179 5.116122 -0.131629
v 1.790060 7.932052 -0.062571
v 1.790060 7.908115 -0.109423
v 1.790060 7.955990 -0.156275
v 1.790060 8.003867 -0.109423
v 1.790060 7.979929 -0.062571
v 1.747252 7.932052 -0.062571
v 1.747252 7.908115 -0.109423
v 1.747252 7.979929 -0.062571
v 1.747252 8.003867 -0.109423
v 1.747252 7.955990 -0.156275
v 0.029343 0.053282 -0.102470
v -0.022354 0.053280 -0.143932
v -0.066440 0.053282 -0.102470
v -0.042438 0.053282 -0.061008
v 0.005377 0.053282 -0.061008
v 0.003432 8.191245 -0.143931
v 0.029334 8.191245 -0.102469
v -0.066418 8.191245 -0.102469
v -0.042480 8.191245 -0.061007
v 0.005396 8.191245 -0.061007
v -0.048285 2.311902 -0.052660
v -0.048309 3.241827 -0.052660
v 0.041579 2.311902 -0.104557
v 0.041576 3.241827 -0.104556
v 0.011625 3.241827 -0.052659
v -0.022605 2.288985 -0.148011
v -0.023123 2.311900 -0.156454
v 0.033326 2.288986 -0.103150
v -0.070281 2.288986 -0.103150
v -0.078277 2.311902 -0.104557
v -0.044354 2.288985 -0.058288
v 0.007434 2.288986 -0.058288
v 0.033324 3.264742 -0.103150
v -0.023123 3.241824 -0.156455
v -0.022523 3.264740 -0.148013
v -0.078274 3.241827 -0.104556
v -0.070281 3.264742 -0.103150
v -0.044376 3.264742 -0.058287
v 0.007434 3.264742 -0.058287
v 1.053366 7.422762 -0.070937
v 1.483179 7.422762 -0.069762
v 1.280866 7.422762 -0.070905
v 0.209830 7.200686 -0.067354
v 0.004285 7.200686 -0.064761
v 0.640241 7.200686 -0.071703
v 0.429812 7.200686 -0.070128
v 1.053366 7.200686 -0.073276
v 0.855340 7.200686 -0.073312
v 1.483179 7.200686 -0.071676
v 1.280866 7.200686 -0.073234
v 0.209830 6.973175 -0.068130
v 0.004284 6.973175 -0.064831
v 0.640241 6.973175 -0.073667
v 0.429811 6.973175 -0.071661
v 1.053366 6.973175 -0.075672
v 0.855339 6.973175 -0.075716
v 1.483179 6.973175 -0.073637
v 1.280866 6.973175 -0.075621
v 0.209830 6.762876 -0.068848
v 0.004284 6.762876 -0.064895
v 0.640241 6.762876 -0.075482
v 0.429811 6.762876 -0.073078
v 1.053366 6.762876 -0.077887
v 0.855339 6.762876 -0.077939
v 1.483179 6.762876 -0.075449
v 1.280865 6.762876 -0.077827
v 0.209830 6.541471 -0.069604
v 0.004284 6.541471 -0.064963
v 0.640241 6.541471 -0.077393
v 0.429811 6.541471 -0.074570
v 1.053366 6.541471 -0.080219
v 0.855338 6.541471 -0.080279
v 1.483179 6.541471 -0.077358
v 1.280865 6.541471 -0.080149
v 0.209830 6.314630 -0.070378
v 0.004283 6.314630 -0.065033
v 0.640241 6.314630 -0.079352
v 0.429810 6.314630 -0.076098
v 1.053366 6.314630 -0.082608
v 0.855338 6.314630 -0.082677
v 1.483179 6.314630 -0.079312
v 1.280865 6.314630 -0.082528
v 0.209830 6.071038 -0.071209
v 0.004283 6.071038 -0.065107
v 0.640241 6.071038 -0.081454
v 0.429810 6.071038 -0.077740
v 1.053366 6.071038 -0.085173
v 0.855337 6.071038 -0.085252
v 1.483179 6.071038 -0.081412
v 1.280864 6.071038 -0.085083
v 0.209830 5.833355 -0.072021
v 0.004283 5.833355 -0.065180
v 0.640241 5.833355 -0.083506
v 0.429810 5.833355 -0.079341
v 1.053366 5.833355 -0.087677
v 0.855337 5.833355 -0.087764
v 1.483179 5.833355 -0.083460
v 1.280864 5.833355 -0.087577
v 0.004282 5.590253 -0.065255
v 0.640241 5.590253 -0.085605
v 1.053366 5.590253 -0.090237
v 0.855336 5.590253 -0.090333
v 1.483179 5.590253 -0.085555
v 1.280864 5.590253 -0.090126
v 0.209830 5.336077 -0.073718
v 0.004282 5.336077 -0.065333
v 0.640241 5.336077 -0.087799
v 1.053366 5.336077 -0.092914
v 1.483179 5.336077 -0.087746
v 0.209830 5.116122 -0.074469
v 0.640241 5.116122 -0.089698
v 1.053366 5.116122 -0.095231
v 1.483179 5.116122 -0.089642
v 0.429812 7.656397 -0.067058
v 0.429813 7.888503 -0.065494
v 0.209830 7.888503 -0.065006
v 0.209830 7.656397 -0.065798
v 0.429812 7.422762 -0.068632
v 0.209830 7.656397 -0.065798
v 0.209830 7.422762 -0.066596
v 0.429812 7.200686 -0.070128
v 0.209830 7.422762 -0.066596
v 0.209830 7.200686 -0.067354
v 0.429811 6.973175 -0.071661
v 0.209830 7.200686 -0.067354
v 0.209830 6.973175 -0.068130
v 0.429811 6.762876 -0.073078
v 0.429811 6.973175 -0.071661
v 0.209830 6.973175 -0.068130
v 0.209830 6.762876 -0.068848
v 0.429811 6.541471 -0.074570
v 0.209830 6.762876 -0.068848
v 0.209830 6.541471 -0.069604
v 0.429810 6.314630 -0.076098
v 0.209830 6.314630 -0.070378
v 0.429810 6.071038 -0.077740
v 0.209830 6.314630 -0.070378
v 0.209830 6.071038 -0.071209
v 0.429810 5.833355 -0.079341
v 0.429810 6.071038 -0.077740
v 0.209830 6.071038 -0.071209
v 0.209830 5.833355 -0.072021
v 0.429809 5.590253 -0.080979
v 0.209830 5.590253 -0.072850
v 0.429809 5.336077 -0.082692
v 0.209830 5.336077 -0.073718
v 0.429809 5.116122 -0.084174
v 0.429809 5.336077 -0.082692
v 0.209830 5.336077 -0.073718
v 0.209830 5.116122 -0.074469
v 0.429808 4.903617 -0.085606
v 0.209830 5.116122 -0.074469
v 0.209830 4.903617 -0.075194
v 0.855340 7.656397 -0.068495
v 0.855341 7.888502 -0.066042
v 0.640241 7.888503 -0.065765
v 0.640241 7.656397 -0.067769
v 0.855340 7.422762 -0.070965
v 0.640241 7.656397 -0.067769
v 0.640241 7.422762 -0.069785
v 0.855340 7.200686 -0.073312
v 0.855340 7.422762 -0.070965
v 0.640241 7.422762 -0.069785
v 0.640241 7.200686 -0.071703
v 0.855339 6.973175 -0.075716
v 0.640241 6.973175 -0.073667
v 0.855339 6.762876 -0.077939
v 0.640241 6.762876 -0.075482
v 0.855338 6.541471 -0.080279
v 0.855339 6.762876 -0.077939
v 0.640241 6.762876 -0.075482
v 0.640241 6.541471 -0.077393
v 0.855338 6.314630 -0.082677
v 0.855338 6.541471 -0.080279
v 0.640241 6.541471 -0.077393
v 0.640241 6.314630 -0.079352
v 0.855337 6.071038 -0.085252
v 0.855338 6.314630 -0.082677
v 0.640241 6.314630 -0.079352
v 0.640241 6.071038 -0.081454
v 0.855337 6.071038 -0.085252
v 0.640241 6.071038 -0.081454
v 0.855336 5.590253 -0.090333
v 0.640241 5.833355 -0.083506
v 0.855336 5.336077 -0.093020
v 0.640241 5.590253 -0.085605
v 0.640241 5.336077 -0.087799
v 0.855335 5.116122 -0.095345
v 0.640241 4.898218 -0.091590
v 0.855335 4.892699 -0.097706
v 0.855335 5.116122 -0.095345
v 0.640241 5.116122 -0.089698
v 1.280867 7.656397 -0.068455
v 1.280867 7.888502 -0.066020
v 1.053366 7.888502 -0.066032
v 1.053366 7.656397 -0.068476
v 1.280866 7.422762 -0.070905
v 1.053366 7.656397 -0.068476
v 1.053366 7.422762 -0.070937
v 1.280866 7.200686 -0.073234
v 1.053366 7.422762 -0.070937
v 1.053366 7.200686 -0.073276
v 1.280866 6.973175 -0.075621
v 1.053366 7.200686 -0.073276
v 1.053366 6.973175 -0.075672
v 1.280865 6.762876 -0.077827
v 1.053366 6.973175 -0.075672
v 1.053366 6.762876 -0.077887
v 1.280865 6.541471 -0.080149
v 1.053366 6.762876 -0.077887
v 1.053366 6.541471 -0.080219
v 1.280865 6.314630 -0.082528
v 1.053366 6.541471 -0.080219
v 1.053366 6.314630 -0.082608
v 1.053366 6.314630 -0.082608
v 1.053366 6.071038 -0.085173
v 1.280864 5.833355 -0.087577
v 1.053366 6.071038 -0.085173
v 1.053366 5.833355 -0.087677
v 1.053366 5.833355 -0.087677
v 1.053366 5.590253 -0.090237
v 1.280864 5.336077 -0.092793
v 1.053366 5.590253 -0.090237
v 1.053366 5.336077 -0.092914
v 1.280863 5.116122 -0.095100
v 1.053366 5.336077 -0.092914
v 1.053366 5.116122 -0.095231
v 1.053366 4.881041 -0.097706
v 1.053366 5.116122 -0.095231
v 1.706396 7.888502 -0.065449
v 1.483179 7.888502 -0.065748
v 1.483179 7.656397 -0.067749
v 1.706395 7.656397 -0.066970
v 1.483179 7.656397 -0.067749
v 1.483179 7.422762 -0.069762
v 1.483179 7.200686 -0.071676
v 1.483179 6.973175 -0.073637
v 1.706394 6.973175 -0.071448
v 1.483179 6.973175 -0.073637
v 1.483179 6.762876 -0.075449
v 1.483179 6.541471 -0.077358
v 1.483179 6.314630 -0.079312
v 1.706393 6.314630 -0.075764
v 1.483179 6.314630 -0.079312
v 1.483179 6.071038 -0.081412
v 1.706393 6.071038 -0.077361
v 1.483179 6.071038 -0.081412
v 1.483179 5.833355 -0.083460
v 1.483179 5.590253 -0.085555
v 1.483179 5.336077 -0.087746
v 1.706392 5.336077 -0.082178
v 1.483179 5.336077 -0.087746
v 1.483179 5.116122 -0.089642
v 1.483179 4.849030 -0.091905
v 1.280863 8.017010 -0.112214
v 0.855340 7.981409 -0.162577
v 0.429810 8.017011 -0.112508
v 0.429811 7.981310 -0.163025
v 0.429813 7.888503 -0.155777
v 0.429813 7.913352 -0.163234
v 0.855341 7.888502 -0.155229
v 0.855341 7.913352 -0.162719
v 1.280867 7.888502 -0.155251
v 1.280867 7.913352 -0.162728
v 0.004285 7.888503 -0.156721
v 0.209830 7.888503 -0.156265
v 0.429813 7.888503 -0.155777
v 0.640241 7.888503 -0.155506
v 0.855341 7.888502 -0.155229
v 1.053366 7.888502 -0.155239
v 1.280867 7.888502 -0.155251
v 1.483179 7.888502 -0.155522
v 1.706394 7.981606 -0.163063
v 1.706396 7.913352 -0.163241
v 1.280867 7.913352 -0.162728
v 1.280865 7.981506 -0.162597
v 1.280865 7.981506 -0.162597
v 1.280867 7.913352 -0.162728
v 0.855341 7.913352 -0.162719
v 0.855340 7.981409 -0.162577
v 0.429813 7.913352 -0.163234
v 0.429811 7.981310 -0.163025
v 0.429811 7.981310 -0.163025
v 0.004285 7.913352 -0.164116
v 0.004285 7.981211 -0.163800
v 0.004285 7.656397 -0.156650
v 0.209830 7.656397 -0.155473
v 0.429812 7.656397 -0.154213
v 0.640241 7.656397 -0.153502
v 0.855340 7.656397 -0.152776
v 1.053366 7.656397 -0.152795
v 1.280867 7.656397 -0.152816
v 1.483179 7.656397 -0.153522
v 0.004285 7.422762 -0.156578
v 0.209830 7.422762 -0.154675
v 0.429812 7.422762 -0.152639
v 0.640241 7.422762 -0.151485
v 0.855340 7.422762 -0.150306
v 1.053366 7.422762 -0.150334
v 1.280866 7.422762 -0.150366
v 1.483179 7.422762 -0.151509
v 0.004285 7.200686 -0.156510
v 0.209830 7.200686 -0.153917
v 0.429812 7.200686 -0.151143
v 0.640241 7.200686 -0.149568
v 0.855340 7.200686 -0.147959
v 1.280866 7.200686 -0.148036
v 1.483179 7.200686 -0.149595
v 0.004284 6.973175 -0.156440
v 0.209830 6.973175 -0.153141
v 0.429811 6.973175 -0.149610
v 0.640241 6.973175 -0.147604
v 0.855339 6.973175 -0.145554
v 1.053366 6.973175 -0.145599
v 1.280866 6.973175 -0.145650
v 1.483179 6.973175 -0.147634
v 0.004284 6.762876 -0.156376
v 0.209830 6.762876 -0.152423
v 0.429811 6.762876 -0.148193
v 0.640241 6.762876 -0.145789
v 0.855339 6.762876 -0.143332
v 1.053366 6.762876 -0.143384
v 1.280865 6.762876 -0.143444
v 1.483179 6.762876 -0.145821
v 0.004284 6.541471 -0.156308
v 0.209830 6.541471 -0.151667
v 0.429811 6.541471 -0.146701
v 0.640241 6.541471 -0.143877
v 0.855338 6.541471 -0.140991
v 1.053366 6.541471 -0.141052
v 1.280865 6.541471 -0.141122
v 1.483179 6.541471 -0.143913
v 0.004283 6.314630 -0.156238
v 0.209830 6.314630 -0.150893
v 0.429810 6.314630 -0.145172
v 0.640241 6.314630 -0.141919
v 1.053366 6.314630 -0.138663
v 1.280865 6.314630 -0.138742
v 1.483179 6.314630 -0.141958
v 0.004283 6.071038 -0.156163
v 0.209830 6.071038 -0.150061
v 0.429810 6.071038 -0.143531
v 0.640241 6.071038 -0.139816
v 1.053366 6.071038 -0.136097
v 1.280864 6.071038 -0.136187
v 1.483179 6.071038 -0.139859
v 0.209830 5.833355 -0.149250
v 0.429810 5.833355 -0.141930
v 0.640241 5.833355 -0.137764
v 1.053366 5.833355 -0.133594
v 1.280864 5.833355 -0.133694
v 1.483179 5.833355 -0.137811
v 0.209830 5.590253 -0.148420
v 0.429809 5.590253 -0.140292
v 0.640241 5.590253 -0.135666
v 1.053366 5.590253 -0.131034
v 1.280864 5.590253 -0.131144
v 1.483179 5.590253 -0.135715
v 0.209830 5.336077 -0.147553
v 0.429809 5.336077 -0.138579
v 0.640241 5.336077 -0.133472
v 1.053366 5.336077 -0.128357
v 1.280864 5.336077 -0.128478
v 1.483179 5.336077 -0.133525
v 0.209830 5.116122 -0.146802
v 0.429809 5.116122 -0.137097
v 0.640241 5.116122 -0.131573
v 1.053366 5.116122 -0.126040
v 1.280863 5.116122 -0.126171
v 1.483179 5.116122 -0.131629
v 0.429812 7.656397 -0.154213
v 0.209830 7.656397 -0.155473
v 0.209830 7.888503 -0.156265
v 0.429813 7.888503 -0.155777
v 0.429812 7.422762 -0.152639
v 0.209830 7.422762 -0.154675
v 0.209830 7.656397 -0.155473
v 0.429812 7.656397 -0.154213
v 0.429812 7.200686 -0.151143
v 0.209830 7.200686 -0.153917
v 0.209830 7.422762 -0.154675
v 0.429812 7.422762 -0.152639
v 0.429811 6.973175 -0.149610
v 0.209830 6.973175 -0.153141
v 0.209830 7.200686 -0.153917
v 0.429812 7.200686 -0.151143
v 0.429811 6.762876 -0.148193
v 0.209830 6.762876 -0.152423
v 0.209830 6.973175 -0.153141
v 0.429811 6.973175 -0.149610
v 0.209830 6.541471 -0.151667
v 0.209830 6.762876 -0.152423
v 0.429811 6.762876 -0.148193
v 0.209830 6.314630 -0.150893
v 0.209830 6.541471 -0.151667
v 0.429811 6.541471 -0.146701
v 0.429810 6.071038 -0.143531
v 0.209830 6.071038 -0.150061
v 0.209830 6.314630 -0.150893
v 0.429810 6.314630 -0.145172
v 0.429810 5.833355 -0.141930
v 0.209830 6.071038 -0.150061
v 0.429810 6.071038 -0.143531
v 0.429809 5.590253 -0.140292
v 0.429810 5.833355 -0.141930
v 0.429809 5.336077 -0.138579
v 0.429809 5.590253 -0.140292
v 0.429809 5.116122 -0.137097
v 0.429809 5.336077 -0.138579
v 0.429808 4.903617 -0.135665
v 0.209830 4.903617 -0.146077
v 0.429809 5.116122 -0.137097
v 0.855340 7.656397 -0.152776
v 0.640241 7.656397 -0.153502
v 0.640241 7.888503 -0.155506
v 0.855341 7.888502 -0.155229
v 0.855340 7.422762 -0.150306
v 0.640241 7.422762 -0.151485
v 0.855340 7.656397 -0.152776
v 0.855340 7.200686 -0.147959
v 0.640241 7.200686 -0.149568
v 0.855339 6.973175 -0.145554
v 0.640241 6.973175 -0.147604
v 0.855339 6.762876 -0.143332
v 0.640241 6.762876 -0.145789
v 0.640241 6.541471 -0.143877
v 0.640241 6.314630 -0.141919
v 0.855337 6.071038 -0.136019
v 0.640241 6.071038 -0.139816
v 0.855338 6.314630 -0.138594
v 0.855337 5.833355 -0.133507
v 0.640241 5.833355 -0.137764
v 0.855337 6.071038 -0.136019
v 0.855336 5.590253 -0.130938
v 0.640241 5.590253 -0.135666
v 0.855337 5.833355 -0.133507
v 0.855336 5.336077 -0.128251
v 0.640241 5.336077 -0.133472
v 0.855336 5.590253 -0.130938
v 0.855335 5.116122 -0.125926
v 0.640241 5.116122 -0.131573
v 0.855336 5.336077 -0.128251
v 0.640241 4.898218 -0.129681
v 0.855335 5.116122 -0.125926
v 0.855335 4.892699 -0.123565
v 1.280867 7.656397 -0.152816
v 1.053366 7.656397 -0.152795
v 1.053366 7.888502 -0.155239
v 1.280867 7.888502 -0.155251
v 1.280866 7.422762 -0.150366
v 1.053366 7.422762 -0.150334
v 1.053366 7.656397 -0.152795
v 1.280867 7.656397 -0.152816
v 1.280866 7.200686 -0.148036
v 1.053366 7.200686 -0.147995
v 1.053366 7.422762 -0.150334
v 1.280866 6.973175 -0.145650
v 1.053366 6.973175 -0.145599
v 1.053366 7.200686 -0.147995
v 1.280866 7.200686 -0.148036
v 1.053366 6.762876 -0.143384
v 1.053366 6.541471 -0.141052
v 1.053366 6.762876 -0.143384
v 1.280865 6.762876 -0.143444
v 1.280865 6.314630 -0.138742
v 1.053366 6.314630 -0.138663
v 1.053366 6.541471 -0.141052
v 1.280865 6.541471 -0.141122
v 1.280864 6.071038 -0.136187
v 1.280865 6.314630 -0.138742
v 1.280864 5.833355 -0.133694
v 1.053366 5.833355 -0.133594
v 1.053366 6.071038 -0.136097
v 1.280864 6.071038 -0.136187
v 1.280864 5.590253 -0.131144
v 1.053366 5.590253 -0.131034
v 1.280864 5.833355 -0.133694
v 1.280864 5.336077 -0.128478
v 1.053366 5.336077 -0.128357
v 1.053366 5.590253 -0.131034
v 1.280863 5.116122 -0.126171
v 1.280864 5.336077 -0.128478
v 1.053366 4.881041 -0.123565
v 1.053366 5.116122 -0.126040
v 1.280863 4.867647 -0.123565
v 1.483179 7.656397 -0.153522
v 1.483179 7.888502 -0.155522
v 1.706396 7.888502 -0.155822
v 1.483179 7.656397 -0.153522
v 1.706395 7.656397 -0.154301
v 1.483179 7.200686 -0.149595
v 1.483179 7.422762 -0.151509
v 1.706395 7.422762 -0.152769
v 1.483179 6.973175 -0.147634
v 1.483179 7.200686 -0.149595
v 1.706395 7.200686 -0.151314
v 1.483179 6.762876 -0.145821
v 1.483179 6.973175 -0.147634
v 1.706394 6.973175 -0.149823
v 1.483179 6.541471 -0.143913
v 1.483179 6.762876 -0.145821
v 1.706394 6.762876 -0.148444
v 1.483179 6.314630 -0.141958
v 1.483179 6.541471 -0.143913
v 1.706394 6.541471 -0.146993
v 1.483179 6.314630 -0.141958
v 1.706393 6.314630 -0.145506
v 1.483179 5.833355 -0.137811
v 1.483179 6.071038 -0.139859
v 1.706393 6.071038 -0.143910
v 1.483179 5.833355 -0.137811
v 1.706393 5.833355 -0.142352
v 1.483179 5.336077 -0.133525
v 1.483179 5.590253 -0.135715
v 1.706392 5.590253 -0.140759
v 1.483179 5.336077 -0.133525
v 1.706392 5.336077 -0.139093
v 1.483179 4.849030 -0.129366
v 1.483179 5.116122 -0.131629
v 1.706391 5.116122 -0.137651
v 1.767072 8.016837 -0.111961
v 1.790060 8.003867 -0.109423
v 1.790060 7.908115 -0.109423
v 1.767072 7.895145 -0.111961
v 1.790060 7.908115 -0.109423
v 1.873549 7.898850 -0.111236
v 1.790060 8.003867 -0.109423
v 1.873549 8.013131 -0.111236
v 2.168383 7.955991 -0.100053
v -0.026657 8.003867 -0.109423
v 1.747252 8.003867 -0.109423
v -0.026657 7.908114 -0.109423
v 1.747252 7.908115 -0.109423
v 1.747252 8.003867 -0.109423
v 1.747252 7.908115 -0.109423
v -0.070281 2.288986 -0.103150
v -0.066440 0.053282 -0.102470
v 0.029343 0.053282 -0.102470
v 0.033326 2.288986 -0.103150
v -0.113504 8.262344 -0.102469
v -0.066418 8.191245 -0.102469
v 0.076419 8.262344 -0.102469
v 0.029334 8.191245 -0.102469
v -0.115255 8.370255 -0.099228
v 0.078171 8.370255 -0.099228
v -0.018542 9.040083 -0.099228
v -0.070281 3.264742 -0.103150
v -0.066418 8.191245 -0.102469
v 0.033324 3.264742 -0.103150
v 0.029334 8.191245 -0.102469
v -0.078277 2.311902 -0.104557
v -0.078274 3.241827 -0.104556
v 0.041579 2.311902 -0.104557
v -0.078277 2.311902 -0.104557
v -0.070281 2.288986 -0.103150
v 0.033326 2.288986 -0.103150
v 0.041576 3.241827 -0.104556
v -0.070281 3.264742 -0.103150
v -0.078274 3.241827 -0.104556
v 0.033324 3.264742 -0.103150
vn -0.0286 -0.0079 -0.9996
vn -0.0271 -0.0076 -0.9996
vn -0.0293 -0.0066 -0.9996
vn -0.0275 -0.0090 -0.9996
vn -0.0271 -0.0075 -0.9996
vn -0.0256 -0.0086 -0.9996
vn -0.0241 -0.0072 -0.9997
vn -0.0275 -0.0089 -0.9996
vn -0.0241 -0.0073 -0.9997
vn -0.0234 -0.0085 -0.9997
vn -0.0219 -0.0072 -0.9997
vn -0.0255 -0.0086 -0.9996
vn -0.0218 -0.0073 -0.9997
vn -0.0211 -0.0086 -0.9997
vn -0.0196 -0.0072 -0.9998
vn -0.0232 -0.0086 -0.9997
vn -0.0197 -0.0072 -0.9998
vn -0.0189 -0.0086 -0.9998
vn -0.0174 -0.0072 -0.9998
vn -0.0174 -0.0073 -0.9998
vn -0.0167 -0.0085 -0.9998
vn -0.0152 -0.0072 -0.9999
vn -0.0187 -0.0086 -0.9998
vn -0.0151 -0.0074 -0.9999
vn -0.0145 -0.0085 -0.9999
vn -0.0132 -0.0072 -0.9999
vn -0.0167 -0.0086 -0.9998
vn -0.0131 -0.0072 -0.9999
vn -0.0124 -0.0086 -0.9999
vn -0.0111 -0.0073 -0.9999
vn -0.0144 -0.0086 -0.9999
vn -0.0111 -0.0072 -0.9999
vn -0.0104 -0.0086 -0.9999
vn -0.0091 -0.0072 -0.9999
vn -0.0125 -0.0086 -0.9999
vn -0.0091 -0.0073 -0.9999
vn -0.0084 -0.0087 -0.9999
vn -0.0070 -0.0073 -0.9999
vn -0.0106 -0.0086 -0.9999
vn -0.0071 -0.0072 -0.9999
vn -0.0063 -0.0086 -0.9999
vn -0.0050 -0.0072 -1.0000
vn -0.0085 -0.0086 -0.9999
vn -0.0048 -0.0074 -1.0000
vn -0.0042 -0.0087 -1.0000
vn -0.0027 -0.0073 -1.0000
vn -0.0065 -0.0086 -0.9999
vn -0.0027 -0.0074 -1.0000
vn -0.0021 -0.1020 -0.9948
vn -0.0013 -0.1478 -0.9890
vn -0.0042 -0.0086 -1.0000
vn -0.0006 -0.0105 -0.9999
vn -0.0116 -0.0102 -0.9999
vn -0.0190 -0.0098 -0.9998
vn -0.0123 -0.0102 -0.9999
vn -0.0005 -0.0105 -0.9999
vn -0.0112 -0.0102 -0.9999
vn -0.0111 -0.0102 -0.9999
vn -0.0100 -0.0102 -0.9999
vn -0.0004 -0.0105 -0.9999
vn -0.0089 -0.0102 -0.9999
vn -0.0078 -0.0102 -0.9999
vn -0.0003 -0.0105 -0.9999
vn -0.0067 -0.0102 -0.9999
vn -0.0057 -0.0102 -0.9999
vn -0.0002 -0.0105 -0.9999
vn -0.0046 -0.0102 -0.9999
vn -0.0036 -0.0102 -0.9999
vn -0.0025 -0.0102 -0.9999
vn -0.0001 -0.0105 -0.9999
vn -0.0015 -0.0102 -0.9999
vn -0.0014 -0.0102 -0.9999
vn -0.0001 -0.1039 -0.9946
vn -0.0001 -0.1783 -0.9840
vn 0.0275 -0.0093 -0.9996
vn 0.0147 -0.0100 -0.9998
vn 0.0090 -0.0106 -0.9999
vn 0.0265 -0.0084 -0.9996
vn 0.0148 -0.0100 -0.9998
vn 0.0249 -0.0086 -0.9997
vn 0.0115 -0.0102 -0.9999
vn 0.0266 -0.0083 -0.9996
vn 0.0228 -0.0088 -0.9997
vn 0.0104 -0.0102 -0.9999
vn 0.0250 -0.0086 -0.9996
vn 0.0205 -0.0086 -0.9998
vn 0.0093 -0.0102 -0.9999
vn 0.0226 -0.0086 -0.9997
vn 0.0183 -0.0086 -0.9998
vn 0.0083 -0.0102 -0.9999
vn 0.0206 -0.0086 -0.9998
vn 0.0162 -0.0086 -0.9998
vn 0.0072 -0.0102 -0.9999
vn 0.0184 -0.0086 -0.9998
vn 0.0071 -0.0101 -0.9999
vn 0.0141 -0.0087 -0.9999
vn 0.0062 -0.0102 -0.9999
vn 0.0161 -0.0086 -0.9998
vn 0.0120 -0.0088 -0.9999
vn 0.0053 -0.0102 -0.9999
vn 0.0102 -0.0086 -0.9999
vn 0.0043 -0.0102 -0.9999
vn 0.0082 -0.0086 -0.9999
vn 0.0033 -0.0102 -0.9999
vn 0.0061 -0.0088 -0.9999
vn 0.0024 -0.0102 -0.9999
vn 0.0041 -0.0086 -1.0000
vn 0.0013 -0.0102 -0.9999
vn 0.0020 -0.1029 -0.9947
vn 0.0013 -0.1790 -0.9839
vn 0.0364 -0.0064 -0.9993
vn 0.0451 -0.0034 -0.9990
vn 0.0343 -0.0065 -0.9994
vn 0.0473 -0.0034 -0.9989
vn 0.0419 -0.0035 -0.9991
vn 0.0315 -0.0065 -0.9995
vn 0.0452 -0.0034 -0.9990
vn 0.0382 -0.0035 -0.9993
vn 0.0285 -0.0065 -0.9996
vn 0.0419 -0.0034 -0.9991
vn 0.0345 -0.0034 -0.9994
vn 0.0255 -0.0065 -0.9997
vn 0.0382 -0.0034 -0.9993
vn 0.0256 -0.0065 -0.9997
vn 0.0309 -0.0035 -0.9995
vn 0.0227 -0.0065 -0.9997
vn 0.0272 -0.0035 -0.9996
vn 0.0198 -0.0065 -0.9998
vn 0.0309 -0.0034 -0.9995
vn 0.0199 -0.0065 -0.9998
vn 0.0237 -0.0034 -0.9997
vn 0.0171 -0.0065 -0.9998
vn 0.0272 -0.0034 -0.9996
vn 0.0204 -0.0035 -0.9998
vn 0.0144 -0.0065 -0.9999
vn 0.0238 -0.0035 -0.9997
vn 0.0145 -0.0065 -0.9999
vn 0.0171 -0.0035 -0.9998
vn 0.0119 -0.0065 -0.9999
vn 0.0203 -0.0034 -0.9998
vn 0.0137 -0.0034 -0.9999
vn 0.0092 -0.0065 -0.9999
vn 0.0172 -0.0035 -0.9998
vn 0.0091 -0.0065 -0.9999
vn 0.0104 -0.0035 -0.9999
vn 0.0065 -0.0065 -1.0000
vn 0.0139 -0.0035 -0.9999
vn 0.0064 -0.0065 -1.0000
vn 0.0069 -0.0034 -1.0000
vn 0.0036 -0.0065 -1.0000
vn 0.0034 -0.0990 -0.9951
vn 0.0022 -0.1771 -0.9842
vn 0.0068 -0.0034 -1.0000
vn -0.0285 -0.0078 -0.9996
vn -0.0006 -0.0106 -0.9999
vn 0.0267 -0.0082 -0.9996
vn 0.0276 -0.0093 -0.9996
vn 0.0457 -0.0019 -0.9990
vn 0.0430 -0.0013 -0.9991
vn -0.0256 -0.0085 -0.9996
vn -0.0274 -0.0089 -0.9996
vn 0.0249 -0.0087 -0.9997
vn 0.0395 -0.0013 -0.9992
vn -0.0124 -0.0102 -0.9999
vn -0.0234 -0.0086 -0.9997
vn -0.0005 -0.0106 -0.9999
vn 0.0227 -0.0086 -0.9997
vn 0.0394 -0.0015 -0.9992
vn 0.0357 -0.0013 -0.9994
vn 0.0356 -0.0015 -0.9994
vn 0.0321 -0.0013 -0.9995
vn -0.0210 -0.0086 -0.9997
vn 0.0094 -0.0102 -0.9999
vn -0.0004 -0.0106 -0.9999
vn 0.0320 -0.0014 -0.9995
vn 0.0285 -0.0013 -0.9996
vn -0.0166 -0.0086 -0.9998
vn -0.0077 -0.0102 -0.9999
vn 0.0082 -0.0102 -0.9999
vn 0.0162 -0.0087 -0.9998
vn 0.0284 -0.0015 -0.9996
vn 0.0308 -0.0034 -0.9995
vn 0.0249 -0.0013 -0.9997
vn -0.0145 -0.0087 -0.9999
vn -0.0003 -0.0106 -0.9999
vn 0.0141 -0.0086 -0.9999
vn 0.0160 -0.0086 -0.9998
vn 0.0215 -0.0013 -0.9998
vn -0.0145 -0.0086 -0.9999
vn 0.0052 -0.0102 -0.9999
vn 0.0121 -0.0085 -0.9999
vn 0.0203 -0.0035 -0.9998
vn 0.0182 -0.0013 -0.9998
vn -0.0047 -0.0102 -0.9999
vn -0.0002 -0.0106 -0.9999
vn 0.0121 -0.0086 -0.9999
vn 0.0204 -0.0034 -0.9998
vn 0.0149 -0.0013 -0.9999
vn -0.0084 -0.0086 -0.9999
vn 0.0082 -0.0087 -0.9999
vn 0.0138 -0.0035 -0.9999
vn 0.0115 -0.0013 -0.9999
vn -0.0083 -0.0086 -0.9999
vn 0.0023 -0.0102 -0.9999
vn 0.0061 -0.0087 -0.9999
vn 0.0114 -0.0014 -0.9999
vn 0.0081 -0.0013 -1.0000
vn -0.0001 -0.0106 -0.9999
vn 0.0062 -0.0086 -0.9999
vn 0.0080 -0.0014 -1.0000
vn 0.0104 -0.0034 -0.9999
vn 0.0046 -0.0013 -1.0000
vn 0.0013 0.4614 -0.8872
vn 0.0020 -0.0934 -0.9956
vn 0.0012 0.6057 -0.7957
vn 0.0017 -0.1645 -0.9864
vn 0.0005 0.4611 -0.8874
vn 0.0017 -0.1644 -0.9864
vn 0.0012 0.4614 -0.8872
vn 0.0007 -0.1656 -0.9862
vn -0.0005 0.4617 -0.8870
vn -0.0005 -0.1655 -0.9862
vn -0.0012 0.3048 -0.9524
vn -0.0012 -0.2161 -0.9764
vn -0.0023 -0.1019 -0.9948
vn -0.0043 -0.0086 -1.0000
vn -0.0008 -0.1783 -0.9840
vn 0.0014 -0.0102 -0.9999
vn 0.0005 -0.1790 -0.9839
vn 0.0023 -0.1028 -0.9947
vn 0.0040 -0.0086 -1.0000
vn 0.0016 -0.1771 -0.9842
vn 0.0038 -0.0990 -0.9951
vn 0.0021 -0.1928 -0.9812
vn -0.0012 -0.1784 -0.9840
vn -0.0005 -0.1656 -0.9862
vn -0.0012 -0.2162 -0.9764
vn -0.0000 -0.1790 -0.9838
vn 0.0007 -0.1657 -0.9862
vn -0.0001 -0.1040 -0.9946
vn -0.0008 -0.1784 -0.9840
vn 0.0012 -0.1771 -0.9842
vn 0.0005 -0.1790 -0.9838
vn 0.0020 -0.1928 -0.9812
vn 0.0034 -0.0991 -0.9951
vn 0.0006 0.8170 -0.5767
vn 0.0007 0.8174 -0.5760
vn 0.0004 0.8166 -0.5772
vn 0.0006 0.8169 -0.5768
vn 0.0005 0.4610 -0.8874
vn -0.0002 0.8174 -0.5761
vn 0.0004 0.4611 -0.8874
vn -0.0000 0.8166 -0.5772
vn -0.0006 0.8183 -0.5748
vn -0.0004 0.4617 -0.8870
vn -0.0002 0.8172 -0.5764
vn -0.0286 -0.0079 0.9996
vn -0.0270 -0.0076 0.9996
vn -0.0274 -0.0089 0.9996
vn -0.0293 -0.0066 0.9996
vn -0.0256 -0.0086 0.9996
vn -0.0241 -0.0072 0.9997
vn -0.0241 -0.0073 0.9997
vn -0.0233 -0.0085 0.9997
vn -0.0255 -0.0086 0.9996
vn -0.0217 -0.0074 0.9997
vn -0.0211 -0.0086 0.9997
vn -0.0198 -0.0071 0.9998
vn -0.0189 -0.0086 0.9998
vn -0.0174 -0.0072 0.9998
vn -0.0174 -0.0073 0.9998
vn -0.0167 -0.0085 0.9998
vn -0.0187 -0.0086 0.9998
vn -0.0152 -0.0072 0.9999
vn -0.0151 -0.0074 0.9999
vn -0.0145 -0.0085 0.9999
vn -0.0167 -0.0086 0.9998
vn -0.0130 -0.0073 0.9999
vn -0.0124 -0.0086 0.9999
vn -0.0112 -0.0071 0.9999
vn -0.0104 -0.0086 0.9999
vn -0.0091 -0.0072 0.9999
vn -0.0091 -0.0073 0.9999
vn -0.0084 -0.0086 0.9999
vn -0.0106 -0.0086 0.9999
vn -0.0070 -0.0073 0.9999
vn -0.0063 -0.0086 0.9999
vn -0.0051 -0.0071 1.0000
vn -0.0042 -0.0087 1.0000
vn -0.0027 -0.0073 1.0000
vn -0.0027 -0.0074 1.0000
vn -0.0024 -0.1020 0.9948
vn -0.0042 -0.0086 1.0000
vn -0.0013 -0.1478 0.9890
vn -0.0006 -0.0105 0.9999
vn -0.0116 -0.0102 0.9999
vn -0.0190 -0.0098 0.9998
vn -0.0123 -0.0102 0.9999
vn -0.0005 -0.0105 0.9999
vn -0.0112 -0.0102 0.9999
vn -0.0111 -0.0102 0.9999
vn -0.0100 -0.0102 0.9999
vn -0.0004 -0.0105 0.9999
vn -0.0089 -0.0102 0.9999
vn -0.0078 -0.0102 0.9999
vn -0.0003 -0.0105 0.9999
vn -0.0067 -0.0102 0.9999
vn -0.0057 -0.0102 0.9999
vn -0.0002 -0.0105 0.9999
vn -0.0047 -0.0102 0.9999
vn -0.0046 -0.0102 0.9999
vn -0.0036 -0.0102 0.9999
vn -0.0025 -0.0102 0.9999
vn -0.0001 -0.0105 0.9999
vn -0.0015 -0.0102 0.9999
vn -0.0014 -0.0102 0.9999
vn -0.0001 -0.1039 0.9946
vn -0.0008 -0.1783 0.9840
vn 0.0275 -0.0093 0.9996
vn 0.0147 -0.0100 0.9998
vn 0.0265 -0.0084 0.9996
vn 0.0090 -0.0106 0.9999
vn 0.0148 -0.0100 0.9998
vn 0.0249 -0.0086 0.9997
vn 0.0266 -0.0083 0.9996
vn 0.0115 -0.0102 0.9999
vn 0.0228 -0.0088 0.9997
vn 0.0250 -0.0086 0.9996
vn 0.0104 -0.0102 0.9999
vn 0.0205 -0.0086 0.9998
vn 0.0226 -0.0086 0.9997
vn 0.0093 -0.0102 0.9999
vn 0.0183 -0.0086 0.9998
vn 0.0206 -0.0086 0.9998
vn 0.0083 -0.0102 0.9999
vn 0.0162 -0.0086 0.9998
vn 0.0184 -0.0086 0.9998
vn 0.0072 -0.0102 0.9999
vn 0.0141 -0.0086 0.9999
vn 0.0161 -0.0086 0.9998
vn 0.0062 -0.0102 0.9999
vn 0.0121 -0.0088 0.9999
vn 0.0053 -0.0102 0.9999
vn 0.0102 -0.0086 0.9999
vn 0.0121 -0.0086 0.9999
vn 0.0043 -0.0102 0.9999
vn 0.0082 -0.0086 0.9999
vn 0.0033 -0.0102 0.9999
vn 0.0061 -0.0086 0.9999
vn 0.0023 -0.0102 0.9999
vn 0.0041 -0.0086 1.0000
vn 0.0062 -0.0086 0.9999
vn 0.0013 -0.0102 0.9999
vn 0.0023 -0.1029 0.9947
vn 0.0005 -0.1790 0.9839
vn 0.0364 -0.0064 0.9993
vn 0.0451 -0.0035 0.9990
vn 0.0473 -0.0034 0.9989
vn 0.0343 -0.0065 0.9994
vn 0.0419 -0.0035 0.9991
vn 0.0452 -0.0034 0.9990
vn 0.0315 -0.0065 0.9995
vn 0.0382 -0.0035 0.9993
vn 0.0419 -0.0034 0.9991
vn 0.0285 -0.0065 0.9996
vn 0.0345 -0.0035 0.9994
vn 0.0256 -0.0065 0.9997
vn 0.0309 -0.0035 0.9995
vn 0.0227 -0.0065 0.9997
vn 0.0272 -0.0035 0.9996
vn 0.0309 -0.0034 0.9995
vn 0.0198 -0.0065 0.9998
vn 0.0199 -0.0065 0.9998
vn 0.0237 -0.0034 0.9997
vn 0.0272 -0.0034 0.9996
vn 0.0171 -0.0065 0.9998
vn 0.0204 -0.0035 0.9998
vn 0.0144 -0.0065 0.9999
vn 0.0145 -0.0065 0.9999
vn 0.0171 -0.0035 0.9998
vn 0.0203 -0.0034 0.9998
vn 0.0119 -0.0065 0.9999
vn 0.0137 -0.0034 0.9999
vn 0.0172 -0.0035 0.9998
vn 0.0092 -0.0065 0.9999
vn 0.0091 -0.0065 0.9999
vn 0.0104 -0.0035 0.9999
vn 0.0138 -0.0035 0.9999
vn 0.0065 -0.0065 1.0000
vn 0.0064 -0.0065 1.0000
vn 0.0069 -0.0034 1.0000
vn 0.0036 -0.0065 1.0000
vn 0.0039 -0.0990 0.9951
vn 0.0068 -0.0034 1.0000
vn 0.0016 -0.1771 0.9842
vn -0.0275 -0.0089 0.9996
vn -0.0285 -0.0078 0.9996
vn -0.0006 -0.0106 0.9999
vn 0.0267 -0.0082 0.9996
vn 0.0457 -0.0019 0.9990
vn 0.0430 -0.0013 0.9991
vn -0.0256 -0.0085 0.9996
vn 0.0249 -0.0087 0.9997
vn 0.0429 -0.0014 0.9991
vn 0.0395 -0.0013 0.9992
vn 0.0451 -0.0034 0.9990
vn -0.0124 -0.0102 0.9999
vn -0.0234 -0.0086 0.9997
vn -0.0005 -0.0106 0.9999
vn 0.0227 -0.0086 0.9997
vn 0.0394 -0.0015 0.9992
vn 0.0382 -0.0034 0.9993
vn 0.0357 -0.0013 0.9994
vn 0.0356 -0.0015 0.9994
vn 0.0345 -0.0034 0.9994
vn 0.0321 -0.0013 0.9995
vn -0.0210 -0.0086 0.9997
vn 0.0094 -0.0102 0.9999
vn -0.0004 -0.0106 0.9999
vn 0.0320 -0.0014 0.9995
vn 0.0285 -0.0013 0.9996
vn -0.0166 -0.0086 0.9998
vn -0.0077 -0.0102 0.9999
vn 0.0082 -0.0102 0.9999
vn 0.0162 -0.0087 0.9998
vn 0.0284 -0.0015 0.9996
vn 0.0249 -0.0013 0.9997
vn 0.0308 -0.0034 0.9995
vn -0.0145 -0.0087 0.9999
vn -0.0003 -0.0106 0.9999
vn 0.0160 -0.0086 0.9998
vn 0.0215 -0.0013 0.9998
vn -0.0145 -0.0086 0.9999
vn 0.0052 -0.0102 0.9999
vn 0.0121 -0.0085 0.9999
vn 0.0203 -0.0035 0.9998
vn 0.0182 -0.0013 0.9998
vn 0.0238 -0.0035 0.9997
vn -0.0125 -0.0086 0.9999
vn -0.0002 -0.0106 0.9999
vn 0.0149 -0.0013 0.9999
vn 0.0204 -0.0034 0.9998
vn 0.0082 -0.0087 0.9999
vn 0.0115 -0.0013 0.9999
vn -0.0083 -0.0086 0.9999
vn 0.0061 -0.0085 0.9999
vn 0.0114 -0.0014 0.9999
vn 0.0104 -0.0034 0.9999
vn 0.0081 -0.0013 1.0000
vn 0.0138 -0.0034 0.9999
vn -0.0041 -0.0088 1.0000
vn -0.0065 -0.0086 0.9999
vn 0.0024 -0.0102 0.9999
vn 0.0036 -0.0066 1.0000
vn 0.0046 -0.0013 1.0000
vn 0.0012 0.4613 0.8873
vn 0.0020 -0.0934 0.9956
vn 0.0017 -0.1645 0.9864
vn 0.0013 0.6056 0.7958
vn 0.0004 0.4608 0.8875
vn 0.0007 -0.1656 0.9862
vn -0.0005 0.4617 0.8870
vn -0.0005 -0.1656 0.9862
vn -0.0011 0.3049 0.9524
vn -0.0012 -0.2161 0.9764
vn -0.0021 -0.1020 0.9948
vn -0.0008 -0.1784 0.9840
vn -0.0001 -0.1040 0.9946
vn 0.0005 -0.1790 0.9838
vn 0.0020 -0.1029 0.9947
vn 0.0034 -0.0991 0.9951
vn 0.0021 -0.1928 0.9812
vn 0.0006 0.8167 0.5771
vn 0.0007 0.8174 0.5760
vn 0.0002 0.8166 0.5772
vn -0.0002 0.8171 0.5765
vn -0.0006 0.8183 0.5748
vn 0.6466 0.1487 0.7482
vn 0.9811 0.1706 0.0910
vn 0.9099 0.1649 -0.3807
vn 0.3231 0.1421 0.9356
vn -0.3234 0.1408 0.9357
vn -0.6471 0.1450 0.7485
vn -0.9801 0.1649 0.1105
vn -0.9067 0.1672 -0.3873
vn -0.2687 0.1700 -0.9481
vn -0.9066 0.1673 -0.3873
vn 0.2374 0.1703 -0.9564
vn 0.9811 0.1706 0.0911
vn 0.9660 -0.1781 -0.1872
vn 0.6467 -0.1484 0.7482
vn 0.4964 -0.1455 0.8558
vn 0.8812 -0.1690 -0.4416
vn -0.3233 -0.1404 0.9358
vn -0.4909 -0.1483 0.8585
vn -0.9801 -0.1645 0.1110
vn -0.9752 -0.1733 -0.1377
vn -0.9752 -0.1733 -0.1376
vn -0.3108 -0.1724 -0.9347
vn -0.0435 -0.1780 -0.9831
vn -0.9801 -0.1645 0.1109
vn 0.8811 -0.1691 -0.4416
vn 0.3230 0.1420 0.9357
vn -0.6471 0.1449 0.7485
vn -0.9066 0.1672 -0.3873
vn -0.3232 -0.1404 0.9359
vn 0.9793 -0.1915 -0.0654
vn 0.4666 -0.2937 0.8343
vn 0.9099 0.1650 -0.3807
vn -0.3234 0.1407 0.9357
vn -0.4892 -0.2936 0.8213
vn -0.9243 -0.2994 -0.2366
vn -0.9244 -0.2993 -0.2366
vn 0.1796 -0.2077 -0.9616
vn 0.9793 -0.1916 -0.0654
vn -0.0000 0.7599 0.6500
vn 0.3970 0.0302 0.9173
vn 0.9990 0.0441 -0.0033
vn -0.5960 0.0336 0.8023
vn -0.9442 0.0546 -0.3249
vn -0.0001 0.7599 0.6501
vn 0.1706 0.0585 -0.9836
vn 0.9990 0.0441 -0.0032
vn 0.4862 -0.3123 0.8162
vn 0.9345 -0.3053 -0.1831
vn -0.4634 -0.3150 0.8283
vn -0.9337 -0.3133 -0.1734
vn 0.0568 -0.2216 -0.9735
vn -0.4892 -0.2937 0.8212
vn 0.1796 -0.2078 -0.9615
vn 0.9793 -0.1916 -0.0653
vn 0.4964 -0.1454 0.8559
vn 0.7600 -0.6461 0.0709
vn 0.3059 -0.3547 0.8835
vn -0.4909 -0.1482 0.8585
vn -0.4324 -0.7504 0.4999
vn -0.8499 -0.3817 -0.3633
vn 0.1830 -0.6477 -0.7396
vn 0.7600 -0.6460 0.0710
vn 0.3059 -0.3548 0.8835
vn -0.4325 -0.7503 0.5000
vn 0.7600 -0.6460 0.0709
vn -0.8499 -0.3817 -0.3632
vn -0.2997 -0.9441 -0.1375
vn -0.0356 -0.3100 -0.9501
vn -0.0354 -0.9961 0.0813
vn -0.3378 -0.0202 -0.9410
vn -0.0359 0.9206 -0.3888
vn -0.2960 0.9405 -0.1669
vn -0.2961 0.9405 -0.1669
vn -0.0334 0.6808 0.7318
vn -0.0358 0.9206 -0.3888
vn -0.2740 0.5114 0.8145
vn -0.0304 -0.3397 0.9400
vn -0.2757 -0.4912 0.8263
vn -0.0355 -0.9961 0.0813
vn -0.2998 -0.9441 -0.1375
vn -0.0000 -0.9201 -0.3917
vn -0.3377 -0.0202 -0.9410
vn -0.2998 -0.9440 -0.1375
vn -0.0000 0.3101 -0.9507
vn -0.0000 0.9969 0.0785
vn -0.2738 0.5114 0.8145
vn -0.0000 0.3410 0.9401
vn -0.2756 -0.4912 0.8263
vn -0.0000 -0.6819 0.7314
vn 0.8526 -0.0001 0.5226
vn 0.0093 0.6220 0.7830
vn 0.0098 -0.4141 0.9102
vn 0.0098 0.9528 -0.3034
vn 0.8526 0.0001 0.5226
vn 0.0119 -0.1927 -0.9812
vn 0.0099 0.9528 -0.3034
vn 0.0109 -0.9998 -0.0151
vn 0.1887 0.3344 0.9234
vn 0.1900 -0.6692 0.7184
vn 0.2029 0.9761 0.0781
vn 0.2285 0.3019 -0.9255
vn 0.2056 -0.9009 -0.3821
vn 0.2286 0.3019 -0.9255
vn 0.2028 0.9761 0.0781
vn 0.1887 0.3344 0.9233
vn 0.2056 -0.9009 -0.3822
vt 0.287047 0.579289
vt 0.305307 0.612016
vt 0.305307 0.579289
vt 0.287047 0.609859
vt 0.287047 0.635046
vt 0.305307 0.637043
vt 0.287047 0.664151
vt 0.305307 0.665964
vt 0.287047 0.691988
vt 0.305307 0.693625
vt 0.287047 0.719205
vt 0.305307 0.720669
vt 0.287047 0.747098
vt 0.305307 0.748385
vt 0.287047 0.773073
vt 0.305307 0.774196
vt 0.287047 0.798425
vt 0.305307 0.799388
vt 0.287047 0.822506
vt 0.305307 0.823316
vt 0.287047 0.848558
vt 0.305307 0.849203
vt 0.287047 0.873988
vt 0.305307 0.874471
vt 0.287047 0.900741
vt 0.305307 0.901055
vt 0.287047 0.927318
vt 0.305307 0.927464
vt 0.251862 0.579289
vt 0.270497 0.607904
vt 0.270497 0.579289
vt 0.251862 0.606467
vt 0.251862 0.631902
vt 0.270497 0.633236
vt 0.251862 0.661293
vt 0.270497 0.662508
vt 0.251862 0.689405
vt 0.270497 0.690505
vt 0.251862 0.716889
vt 0.270497 0.717877
vt 0.251862 0.745057
vt 0.270497 0.745931
vt 0.251862 0.771288
vt 0.270497 0.772055
vt 0.251862 0.796890
vt 0.270497 0.797553
vt 0.251862 0.821208
vt 0.270497 0.821772
vt 0.251862 0.847517
vt 0.270497 0.847974
vt 0.251862 0.873196
vt 0.270497 0.873549
vt 0.251862 0.900213
vt 0.270497 0.900456
vt 0.251862 0.927052
vt 0.270497 0.927186
vt 0.218001 0.579289
vt 0.235642 0.605216
vt 0.235642 0.579289
vt 0.218001 0.604613
vt 0.218001 0.630177
vt 0.235642 0.630740
vt 0.218001 0.659718
vt 0.235642 0.660236
vt 0.218001 0.687972
vt 0.235642 0.688447
vt 0.218001 0.715596
vt 0.235642 0.716029
vt 0.218001 0.743907
vt 0.235642 0.744297
vt 0.218001 0.770271
vt 0.235642 0.770620
vt 0.218001 0.796004
vt 0.235642 0.796313
vt 0.218001 0.820445
vt 0.235642 0.820717
vt 0.218001 0.846887
vt 0.235642 0.847119
vt 0.218001 0.872697
vt 0.235642 0.872890
vt 0.218001 0.899851
vt 0.235642 0.900002
vt 0.218001 0.926827
vt 0.235642 0.926936
vt 0.200742 0.579289
vt 0.182686 0.604017
vt 0.200742 0.604024
vt 0.182686 0.579289
vt 0.182686 0.629612
vt 0.200742 0.629626
vt 0.182686 0.659189
vt 0.200742 0.659211
vt 0.182686 0.687477
vt 0.200742 0.687507
vt 0.182686 0.715135
vt 0.200742 0.715173
vt 0.182686 0.743480
vt 0.200742 0.743526
vt 0.182686 0.769876
vt 0.200742 0.769930
vt 0.182685 0.795640
vt 0.200742 0.795701
vt 0.182685 0.820111
vt 0.200742 0.820179
vt 0.182685 0.846586
vt 0.200742 0.846660
vt 0.182685 0.872427
vt 0.200742 0.872509
vt 0.182685 0.899614
vt 0.200742 0.899704
vt 0.182685 0.926623
vt 0.200742 0.926720
vt 0.165813 0.579289
vt 0.165813 0.604010
vt 0.165813 0.629598
vt 0.165813 0.659168
vt 0.165813 0.687449
vt 0.165813 0.715099
vt 0.165813 0.743437
vt 0.165813 0.769826
vt 0.165813 0.795583
vt 0.165813 0.820048
vt 0.165813 0.846515
vt 0.165813 0.872350
vt 0.165813 0.899530
vt 0.200742 0.929747
vt 0.165813 0.927851
vt 0.165813 0.929546
vt 0.200742 0.928044
vt 0.235642 0.929965
vt 0.235642 0.928260
vt 0.270497 0.930204
vt 0.270497 0.928504
vt 0.305307 0.930458
vt 0.305307 0.928771
vt 0.165813 0.926532
vt 0.200742 0.934921
vt 0.165813 0.934921
vt 0.235642 0.934921
vt 0.270497 0.934921
vt 0.305307 0.934921
vt 0.495264 0.078176
vt 0.491815 0.090282
vt 0.495264 0.087356
vt 0.491815 0.079662
vt 0.495264 0.059805
vt 0.491815 0.058410
vt 0.495264 0.050619
vt 0.491815 0.047785
vt 0.495264 0.067554
vt 0.491814 0.067341
vt 0.349991 0.087357
vt 0.353441 0.079663
vt 0.349991 0.078176
vt 0.353441 0.090284
vt 0.353441 0.058419
vt 0.349991 0.059813
vt 0.353441 0.047784
vt 0.349991 0.050619
vt 0.353441 0.067341
vt 0.349991 0.067525
vt 0.324586 0.031969
vt 0.497122 0.039261
vt 0.497122 0.031291
vt 0.324586 0.040590
vt 0.324586 0.014718
vt 0.497122 0.015350
vt 0.324586 0.006093
vt 0.497122 0.007380
vt 0.324586 0.021995
vt 0.497122 0.030637
vt 0.312872 0.001950
vt 0.317774 0.012045
vt 0.322675 0.012045
vt 0.307970 0.012045
vt 0.303069 0.012045
vt 0.312871 0.012045
vt 0.316248 0.065887
vt 0.319624 0.065887
vt 0.309496 0.065887
vt 0.306120 0.065887
vt 0.312872 0.065887
vt 0.314574 0.089003
vt 0.316276 0.089003
vt 0.311170 0.089003
vt 0.309468 0.089003
vt 0.314434 0.089003
vt 0.497122 0.033126
vt 0.324586 0.041399
vt 0.497122 0.042904
vt 0.324586 0.032349
vt 0.497122 0.013570
vt 0.324586 0.014294
vt 0.497122 0.003779
vt 0.324586 0.005230
vt 0.497122 0.021783
vt 0.324586 0.021878
vt 0.357840 0.023748
vt 0.357840 0.027854
vt 0.357840 0.021695
vt 0.357840 0.029908
vt 0.430989 0.053207
vt 0.407115 0.069448
vt 0.407115 0.048807
vt 0.430989 0.069448
vt 0.407115 0.090088
vt 0.430989 0.085689
vt 0.407115 0.079768
vt 0.430989 0.077568
vt 0.407115 0.059127
vt 0.430989 0.061327
vt 0.496655 0.007583
vt 0.325756 0.024034
vt 0.325756 0.007583
vt 0.496655 0.024035
vt 0.325756 0.040486
vt 0.496655 0.040486
vt 0.325756 0.032260
vt 0.496655 0.032260
vt 0.325756 0.015809
vt 0.496655 0.015809
vt 0.312740 0.011844
vt 0.308840 0.041298
vt 0.316640 0.041298
vt 0.304939 0.041298
vt 0.312740 0.041298
vt 0.320540 0.041298
vt 0.309472 0.065843
vt 0.316008 0.065843
vt 0.306204 0.065843
vt 0.312740 0.065843
vt 0.319276 0.065843
vt 0.379424 0.053207
vt 0.379424 0.069448
vt 0.379424 0.085689
vt 0.379424 0.077568
vt 0.379424 0.061327
s 1
usemtl bannerbump__faction_banner_england.dds
f 867/1/1 869/2/2 209/3/3
f 869/2/2 867/1/1 868/4/4
f 289/2/5 865/5/6 866/6/7
f 865/5/6 289/2/5 719/4/8
f 284/6/9 863/7/10 864/8/11
f 863/7/10 284/6/9 862/5/12
f 279/8/13 860/9/14 861/10/15
f 860/9/14 279/8/13 707/7/16
f 274/10/17 858/11/18 859/12/19
f 858/11/18 274/10/17 857/9/14
f 269/12/20 855/13/21 856/14/22
f 855/13/21 269/12/20 695/11/23
f 264/14/24 853/15/25 854/16/26
f 853/15/25 264/14/24 852/13/27
f 259/16/28 850/17/29 851/18/30
f 850/17/29 259/16/28 849/15/31
f 254/18/32 847/19/33 848/20/34
f 847/19/33 254/18/32 846/17/35
f 249/20/36 844/21/37 845/22/38
f 844/21/37 249/20/36 843/19/39
f 244/22/40 841/23/41 842/24/42
f 841/23/41 244/22/40 840/21/43
f 239/24/44 838/25/45 839/26/46
f 838/25/45 239/24/44 650/23/47
f 234/26/48 836/27/49 837/28/50
f 836/27/49 234/26/48 835/25/51
f 832/29/52 293/30/53 834/31/54
f 293/30/53 832/29/52 833/32/52
f 830/30/53 711/33/52 831/34/55
f 711/33/52 830/30/53 717/32/52
f 827/34/55 829/35/56 283/36/57
f 829/35/56 827/34/55 828/33/56
f 824/36/58 821/37/56 826/38/59
f 821/37/56 824/36/58 825/35/56
f 820/38/59 822/39/60 823/40/61
f 822/39/60 820/38/59 821/37/60
f 818/40/61 686/41/60 819/42/62
f 686/41/60 818/40/61 693/39/60
f 814/42/62 816/43/63 817/44/64
f 816/43/63 814/42/62 815/41/63
f 263/44/64 812/45/63 813/46/65
f 812/45/63 263/44/64 811/43/63
f 672/46/65 807/47/66 806/48/67
f 807/47/66 672/46/65 810/45/63
f 806/48/67 808/49/66 809/50/68
f 808/49/66 806/48/67 807/47/66
f 803/50/68 805/51/66 799/52/69
f 805/51/66 803/50/68 804/49/66
f 799/52/69 801/53/70 802/54/71
f 801/53/70 799/52/69 800/51/70
f 795/54/72 797/55/73 798/56/74
f 797/55/73 795/54/72 796/53/70
f 792/57/75 793/58/76 794/59/77
f 793/58/76 792/57/75 321/60/78
f 789/58/79 320/61/80 791/62/81
f 320/61/80 789/58/79 790/60/82
f 786/62/81 319/63/83 788/64/84
f 319/63/83 786/62/81 787/61/85
f 783/64/84 318/65/86 785/66/87
f 318/65/86 783/64/84 784/63/88
f 780/66/87 317/67/89 782/68/90
f 317/67/89 780/66/87 781/65/91
f 777/68/90 776/69/92 779/70/93
f 776/69/92 777/68/90 778/67/94
f 267/70/95 775/71/96 678/72/97
f 775/71/96 267/70/95 776/69/98
f 678/72/97 774/73/99 773/74/100
f 774/73/99 678/72/97 775/71/96
f 773/74/100 772/75/101 771/76/102
f 772/75/101 773/74/100 774/73/99
f 771/76/102 770/77/103 769/78/104
f 770/77/103 771/76/102 772/75/101
f 769/78/104 767/79/105 766/80/106
f 767/79/105 769/78/104 770/77/103
f 766/80/106 763/81/107 768/82/108
f 763/81/107 766/80/106 767/79/105
f 762/82/108 764/83/109 765/84/110
f 764/83/109 762/82/108 763/81/107
f 759/85/111 307/86/112 761/87/113
f 307/86/112 759/85/111 760/88/114
f 757/87/113 306/89/115 758/90/116
f 306/89/115 757/87/113 714/86/117
f 755/90/116 305/91/118 756/92/119
f 305/91/118 755/90/116 708/89/120
f 753/92/119 304/93/121 754/94/122
f 304/93/121 753/92/119 702/91/123
f 750/94/124 751/95/125 752/96/126
f 751/95/125 750/94/124 696/93/121
f 746/96/126 748/97/127 749/98/128
f 748/97/127 746/96/126 747/95/129
f 684/98/130 744/99/131 745/100/132
f 744/99/131 684/98/130 743/97/133
f 676/100/132 741/101/134 742/102/135
f 741/101/134 676/100/132 740/99/136
f 736/102/137 738/103/138 739/104/139
f 738/103/138 736/102/137 737/101/140
f 732/104/139 734/105/141 735/106/142
f 734/105/141 732/104/139 733/103/143
f 728/106/144 730/107/145 731/108/146
f 730/107/145 728/106/144 729/105/147
f 724/108/148 726/109/149 727/110/150
f 726/109/149 724/108/148 725/107/145
f 720/110/150 722/111/151 723/112/152
f 722/111/151 720/110/150 721/109/153
f 211/31/54 719/4/8 336/1/154
f 719/4/8 211/31/54 718/30/53
f 213/59/77 717/32/155 322/29/52
f 717/32/155 213/59/77 292/58/79
f 215/85/111 716/60/156 308/57/157
f 716/60/156 215/85/111 715/87/113
f 217/113/158 714/86/112 294/88/114
f 714/86/112 217/113/158 290/114/159
f 293/30/53 713/5/160 349/4/161
f 713/5/160 293/30/53 712/34/55
f 292/58/76 711/33/155 335/32/52
f 711/33/155 292/58/76 287/62/81
f 291/87/113 710/61/162 321/60/78
f 710/61/162 291/87/113 709/90/116
f 290/114/159 708/89/120 307/86/112
f 708/89/120 290/114/159 285/115/163
f 288/34/164 707/7/165 348/5/12
f 707/7/165 288/34/164 706/36/58
f 287/62/81 705/35/166 334/33/56
f 705/35/166 287/62/81 282/64/84
f 286/90/116 704/63/167 320/61/80
f 704/63/167 286/90/116 703/92/119
f 285/115/168 702/91/123 306/89/120
f 702/91/123 285/115/168 280/116/169
f 283/36/57 701/9/14 347/7/165
f 701/9/14 283/36/57 700/38/59
f 282/64/84 699/37/166 333/35/56
f 699/37/166 282/64/84 277/66/87
f 281/92/119 698/65/86 319/63/88
f 698/65/86 281/92/119 697/94/124
f 280/116/170 696/93/121 305/91/123
f 696/93/121 280/116/170 275/117/171
f 278/38/59 695/11/18 346/9/172
f 695/11/18 278/38/59 694/40/61
f 277/66/173 693/39/174 332/37/60
f 693/39/174 277/66/173 272/68/90
f 276/94/124 692/67/94 318/65/86
f 692/67/94 276/94/124 691/96/126
f 275/117/175 690/95/129 304/93/121
f 690/95/129 275/117/175 689/118/176
f 273/40/61 688/13/177 345/11/18
f 688/13/177 273/40/61 687/42/178
f 272/68/179 686/41/174 331/39/60
f 686/41/174 272/68/179 267/70/93
f 271/96/126 685/69/180 317/67/89
f 685/69/180 271/96/126 684/98/128
f 270/118/181 683/97/133 303/95/182
f 683/97/133 270/118/181 682/119/183
f 268/42/62 681/15/184 344/13/27
f 681/15/184 268/42/62 680/44/64
f 267/70/95 679/43/185 330/41/63
f 679/43/185 267/70/95 678/72/97
f 266/98/128 677/71/186 316/69/187
f 677/71/186 266/98/128 676/100/132
f 265/119/183 675/99/131 302/97/133
f 675/99/131 265/119/183 674/120/188
f 263/44/64 673/17/29 343/15/189
f 673/17/29 263/44/64 672/46/65
f 262/72/97 671/45/185 329/43/63
f 671/45/185 262/72/97 670/74/190
f 261/100/132 669/73/191 315/71/186
f 669/73/191 261/100/132 668/102/137
f 260/120/188 667/101/192 301/99/136
f 667/101/192 260/120/188 666/121/193
f 258/46/65 665/19/33 342/17/35
f 665/19/33 258/46/65 664/48/194
f 257/74/100 663/47/195 328/45/63
f 663/47/195 257/74/100 662/76/102
f 256/102/137 661/75/101 314/73/196
f 661/75/101 256/102/137 660/104/139
f 255/121/193 659/103/138 300/101/197
f 659/103/138 255/121/193 658/122/198
f 253/48/67 657/21/199 341/19/33
f 657/21/199 253/48/67 656/50/68
f 252/76/102 326/49/195 327/47/66
f 326/49/195 252/76/102 655/78/104
f 251/104/139 654/77/200 313/75/101
f 654/77/200 251/104/139 653/106/144
f 250/122/198 652/105/201 299/103/143
f 652/105/201 250/122/198 651/123/202
f 248/50/68 650/23/41 340/21/203
f 650/23/41 248/50/68 649/52/69
f 247/78/104 648/51/195 326/49/66
f 648/51/195 247/78/104 647/80/204
f 246/106/142 646/79/205 312/77/103
f 646/79/205 246/106/142 645/108/146
f 245/123/206 644/107/145 298/105/201
f 644/107/145 245/123/206 643/124/207
f 243/52/69 642/25/51 339/23/47
f 642/25/51 243/52/69 641/54/72
f 242/80/106 640/53/208 325/51/70
f 640/53/208 242/80/106 639/82/108
f 241/108/148 638/81/107 311/79/209
f 638/81/107 241/108/148 637/110/150
f 240/124/210 636/109/149 297/107/211
f 636/109/149 240/124/210 635/125/212
f 632/126/213 633/127/214 634/128/215
f 633/127/214 632/126/213 630/129/216
f 629/130/217 630/129/218 631/126/219
f 630/129/218 629/130/217 628/131/220
f 626/132/221 628/131/220 629/130/217
f 628/131/220 626/132/221 627/133/222
f 622/134/223 624/133/222 625/132/221
f 624/133/222 622/134/223 623/135/224
f 238/54/72 621/27/225 338/25/226
f 621/27/225 238/54/72 620/56/227
f 237/82/228 619/55/73 324/53/70
f 619/55/73 237/82/228 618/84/229
f 236/110/150 617/83/230 310/81/231
f 617/83/230 236/110/150 616/112/232
f 235/125/212 615/111/233 296/109/149
f 615/111/233 235/125/212 614/136/234
f 612/56/235 613/133/236 229/135/237
f 612/56/235 229/135/237 337/27/49
f 337/27/49 229/135/237 228/28/50
f 610/84/238 611/131/239 230/133/236
f 610/84/238 230/133/236 323/55/240
f 323/55/240 230/133/236 227/56/241
f 608/112/242 609/129/216 231/131/239
f 608/112/242 231/131/239 309/83/109
f 309/83/109 231/131/239 226/84/243
f 224/136/244 233/127/214 232/129/216
f 224/136/244 232/129/216 295/111/245
f 295/111/245 232/129/216 225/112/232
f 606/137/246 219/128/215 218/138/247
f 219/128/215 606/137/246 607/126/219
f 214/139/248 220/126/219 216/137/249
f 220/126/219 214/139/248 605/130/250
f 604/140/251 221/130/252 214/139/253
f 221/130/252 604/140/251 222/132/221
f 210/141/254 222/132/255 212/140/256
f 222/132/255 210/141/254 223/134/223
f 603/1/257 148/2/258 602/4/259
f 148/2/258 603/1/257 68/3/260
f 148/2/258 601/5/261 602/4/259
f 601/5/261 148/2/258 600/6/262
f 143/6/263 598/7/264 599/5/265
f 598/7/264 143/6/263 138/8/266
f 138/8/266 597/9/267 598/7/264
f 597/9/267 138/8/266 133/10/268
f 133/10/268 596/11/269 597/9/267
f 596/11/269 133/10/268 595/12/270
f 128/12/271 593/13/272 594/11/273
f 593/13/272 128/12/271 592/14/274
f 123/14/275 590/15/276 591/13/277
f 590/15/276 123/14/275 118/16/278
f 118/16/278 589/17/279 590/15/276
f 589/17/279 118/16/278 113/18/280
f 113/18/280 588/19/281 589/17/279
f 588/19/281 113/18/280 587/20/282
f 108/20/283 585/21/284 586/19/285
f 585/21/284 108/20/283 103/22/286
f 103/22/286 584/23/287 585/21/284
f 584/23/287 103/22/286 98/24/288
f 98/24/288 583/25/289 584/23/287
f 583/25/289 98/24/288 582/26/290
f 93/26/291 580/27/292 581/25/293
f 580/27/292 93/26/291 579/28/294
f 577/29/295 574/30/296 578/32/295
f 574/30/296 577/29/295 70/31/297
f 574/30/296 575/33/295 576/32/295
f 575/33/295 574/30/296 571/34/298
f 571/34/298 572/35/299 573/33/299
f 572/35/299 571/34/298 142/36/300
f 142/36/301 569/37/299 570/35/299
f 569/37/299 142/36/301 566/38/302
f 566/38/302 567/39/303 568/37/303
f 567/39/303 566/38/302 439/40/304
f 439/40/304 564/41/303 565/39/303
f 564/41/303 439/40/304 561/42/305
f 561/42/305 562/43/306 563/41/306
f 562/43/306 561/42/305 558/44/307
f 558/44/307 559/45/306 560/43/306
f 559/45/306 558/44/307 555/46/308
f 555/46/308 556/47/309 557/45/306
f 556/47/309 555/46/308 552/48/310
f 552/48/311 553/49/309 554/47/309
f 553/49/309 552/48/311 549/50/312
f 549/50/312 550/51/309 551/49/309
f 550/51/309 549/50/312 546/52/313
f 546/52/313 547/53/314 548/51/314
f 547/53/314 546/52/313 542/54/315
f 542/54/316 544/55/317 545/53/314
f 544/55/317 542/54/316 543/56/318
f 538/57/319 540/58/320 541/60/321
f 540/58/320 538/57/319 539/59/322
f 537/58/323 179/61/324 180/60/325
f 179/61/324 537/58/323 534/62/326
f 534/62/326 535/63/327 536/61/328
f 535/63/327 534/62/326 141/64/329
f 532/64/329 533/65/330 178/63/331
f 533/65/330 532/64/329 445/66/332
f 445/66/332 531/67/333 442/65/334
f 531/67/333 445/66/332 530/68/335
f 526/68/335 528/69/336 529/67/337
f 528/69/336 526/68/335 527/70/338
f 522/70/338 524/71/339 525/69/340
f 524/71/339 522/70/338 523/72/341
f 518/72/341 520/73/342 521/71/339
f 520/73/342 518/72/341 519/74/343
f 516/74/343 515/75/344 517/73/345
f 515/75/344 516/74/343 514/76/346
f 514/76/346 513/77/347 515/75/344
f 513/77/347 514/76/346 510/78/348
f 510/78/348 512/79/349 513/77/347
f 512/79/349 510/78/348 511/80/350
f 507/80/350 508/81/351 509/79/352
f 508/81/351 507/80/350 503/82/353
f 503/82/353 505/83/354 506/81/351
f 505/83/354 503/82/353 504/84/355
f 500/85/356 501/86/357 502/88/358
f 501/86/357 500/85/356 496/87/359
f 496/87/359 498/89/360 499/86/361
f 498/89/360 496/87/359 497/90/362
f 494/90/362 493/91/363 495/89/364
f 493/91/363 494/90/362 492/92/365
f 492/92/365 491/93/366 493/91/363
f 491/93/366 492/92/365 488/94/367
f 488/94/367 490/95/368 491/93/366
f 490/95/368 488/94/367 489/96/369
f 485/96/369 486/97/370 487/95/371
f 486/97/370 485/96/369 483/98/372
f 483/98/373 482/99/374 484/97/375
f 482/99/374 483/98/373 480/100/376
f 480/100/376 481/101/377 482/99/374
f 481/101/377 480/100/376 476/102/378
f 476/102/379 478/103/380 479/101/381
f 478/103/380 476/102/379 477/104/382
f 473/104/382 474/105/383 475/103/384
f 474/105/383 473/104/382 470/106/385
f 470/106/386 471/107/387 472/105/388
f 471/107/387 470/106/386 467/108/389
f 467/108/390 468/109/391 469/107/387
f 468/109/391 467/108/390 463/110/392
f 463/110/392 465/111/393 466/109/394
f 465/111/393 463/110/392 464/112/395
f 70/31/297 462/4/396 152/30/296
f 462/4/396 70/31/297 195/1/397
f 72/59/322 461/32/398 151/58/323
f 461/32/398 72/59/322 181/29/295
f 74/85/356 460/60/399 150/87/359
f 460/60/399 74/85/356 167/57/319
f 76/113/400 459/86/357 149/114/401
f 459/86/357 76/113/400 153/88/358
f 152/30/296 458/5/402 147/34/298
f 458/5/402 152/30/296 208/4/259
f 151/58/320 457/33/398 146/62/326
f 457/33/398 151/58/320 194/32/295
f 150/87/359 456/61/403 145/90/362
f 456/61/403 150/87/359 180/60/321
f 149/114/404 454/89/364 455/115/405
f 454/89/364 149/114/404 166/86/406
f 147/34/407 452/7/408 453/36/301
f 452/7/408 147/34/407 207/5/265
f 146/62/326 450/35/409 451/64/329
f 450/35/409 146/62/326 193/33/299
f 145/90/362 449/63/410 140/92/365
f 449/63/410 145/90/362 179/61/324
f 144/115/411 164/91/412 448/116/413
f 164/91/412 144/115/411 165/89/364
f 142/36/300 446/9/267 447/38/302
f 446/9/267 142/36/300 206/7/408
f 141/64/329 444/37/409 445/66/332
f 444/37/409 141/64/329 192/35/299
f 140/92/365 442/65/330 443/94/367
f 442/65/330 140/92/365 178/63/331
f 139/116/414 440/93/415 441/117/416
f 440/93/415 139/116/414 164/91/412
f 137/38/302 438/11/269 439/40/304
f 438/11/269 137/38/302 205/9/417
f 136/66/418 436/39/419 437/68/335
f 436/39/419 136/66/418 191/37/303
f 135/94/367 434/67/337 435/96/369
f 434/67/337 135/94/367 177/65/330
f 134/117/420 432/95/371 433/118/421
f 432/95/371 134/117/420 163/93/415
f 132/40/304 430/13/422 431/42/423
f 430/13/422 132/40/304 204/11/269
f 131/68/424 428/41/419 429/70/338
f 428/41/419 131/68/424 190/39/303
f 130/96/369 426/69/425 427/98/372
f 426/69/425 130/96/369 176/67/333
f 129/118/426 424/97/375 425/119/427
f 424/97/375 129/118/426 162/95/428
f 127/42/305 422/15/429 423/44/307
f 422/15/429 127/42/305 203/13/277
f 126/70/338 420/43/430 421/72/341
f 420/43/430 126/70/338 189/41/306
f 125/98/372 418/71/339 419/100/376
f 418/71/339 125/98/372 175/69/431
f 124/119/427 416/99/374 417/120/432
f 416/99/374 124/119/427 161/97/375
f 122/44/307 414/17/279 415/46/308
f 414/17/279 122/44/307 202/15/433
f 121/72/341 412/45/430 413/74/434
f 412/45/430 121/72/341 188/43/306
f 120/100/376 410/73/435 411/102/379
f 410/73/435 120/100/376 174/71/339
f 119/120/432 408/101/436 409/121/437
f 408/101/436 119/120/432 160/99/438
f 117/46/308 406/19/281 407/48/310
f 406/19/281 117/46/308 201/17/439
f 116/74/343 404/47/440 405/76/346
f 404/47/440 116/74/343 187/45/306
f 115/102/379 402/75/344 403/104/382
f 402/75/344 115/102/379 173/73/345
f 114/121/437 400/103/380 401/122/441
f 400/103/380 114/121/437 159/101/442
f 112/48/311 398/21/284 399/50/312
f 398/21/284 112/48/311 200/19/281
f 111/76/346 396/49/440 397/78/348
f 396/49/440 111/76/346 186/47/309
f 110/104/382 394/77/443 395/106/386
f 394/77/443 110/104/382 172/75/344
f 109/122/441 392/105/388 393/123/444
f 392/105/388 109/122/441 158/103/384
f 107/50/312 390/23/287 391/52/313
f 390/23/287 107/50/312 199/21/445
f 106/78/348 389/51/440 101/80/350
f 389/51/440 106/78/348 185/49/309
f 105/106/385 170/79/446 100/108/390
f 170/79/446 105/106/385 171/77/347
f 104/123/447 156/107/448 99/124/449
f 156/107/448 104/123/447 157/105/450
f 102/52/313 197/25/451 97/54/315
f 197/25/451 102/52/313 198/23/452
f 101/80/453 183/53/314 96/82/353
f 183/53/314 101/80/453 184/51/314
f 100/108/390 169/81/351 95/110/454
f 169/81/351 100/108/390 170/79/446
f 99/124/449 155/109/391 94/125/455
f 155/109/391 99/124/449 156/107/448
f 79/126/456 92/127/457 91/129/458
f 92/127/457 79/126/456 78/128/459
f 80/130/460 91/129/458 90/131/461
f 91/129/458 80/130/460 79/126/456
f 81/132/462 90/131/461 89/133/463
f 90/131/461 81/132/462 80/130/460
f 82/134/464 89/133/463 88/135/465
f 89/133/463 82/134/464 81/132/462
f 97/54/315 196/27/466 86/56/467
f 196/27/466 97/54/315 197/25/451
f 96/82/353 182/55/468 85/84/469
f 182/55/468 96/82/353 183/53/314
f 95/110/454 168/83/470 84/112/395
f 168/83/470 95/110/454 169/81/351
f 94/125/455 154/111/471 83/136/472
f 154/111/471 94/125/455 155/109/391
f 88/135/465 89/133/463 86/56/467
f 88/135/465 86/56/467 196/27/466
f 88/135/465 196/27/466 87/28/294
f 89/133/463 90/131/461 85/84/469
f 89/133/463 85/84/469 182/55/468
f 89/133/463 182/55/468 86/56/467
f 90/131/461 91/129/458 84/112/395
f 90/131/461 84/112/395 168/83/470
f 90/131/461 168/83/470 85/84/469
f 91/129/458 92/127/457 83/136/472
f 91/129/458 83/136/472 154/111/471
f 91/129/458 154/111/471 84/112/395
f 75/137/473 78/128/459 79/126/456
f 78/128/459 75/137/473 77/138/474
f 73/139/475 79/126/456 80/130/460
f 79/126/456 73/139/475 75/137/473
f 71/140/476 80/130/460 81/132/462
f 80/130/460 71/140/476 73/139/475
f 69/141/477 81/132/462 82/134/464
f 81/132/462 69/141/477 71/140/476
f 388/142/478 373/143/479 909/144/480
f 373/143/479 388/142/478 374/145/481
f 387/146/482 374/145/481 388/142/478
f 374/145/481 387/146/482 371/147/483
f 907/148/484 371/147/483 387/146/482
f 371/147/483 907/148/484 908/149/485
f 384/150/486 385/149/487 386/148/484
f 385/149/487 384/150/486 383/151/488
f 382/144/480 383/151/488 384/150/486
f 383/151/488 382/144/480 906/143/489
f 905/152/490 67/153/491 381/154/492
f 67/153/491 905/152/490 372/155/493
f 381/154/492 370/156/494 380/157/495
f 370/156/494 381/154/492 67/153/491
f 380/157/495 903/158/496 904/159/497
f 903/158/496 380/157/495 370/156/494
f 378/159/498 376/160/499 375/161/500
f 376/160/499 378/159/498 379/158/501
f 375/161/500 902/155/502 377/152/490
f 902/155/502 375/161/500 376/160/499
f 67/153/491 373/143/479 374/145/481
f 373/143/479 67/153/491 372/155/493
f 370/156/494 66/145/503 371/147/483
f 66/145/503 370/156/494 67/153/491
f 900/158/496 64/147/504 901/149/505
f 64/147/504 900/158/496 65/156/506
f 61/160/499 62/149/485 58/151/488
f 62/149/485 61/160/499 63/158/496
f 60/155/502 58/151/488 59/143/479
f 58/151/488 60/155/502 61/160/499
f 57/162/478 899/163/507 369/164/508
f 899/163/507 57/162/478 898/165/509
f 56/166/510 369/164/508 368/167/511
f 369/164/508 56/166/510 57/162/478
f 896/168/484 368/167/511 897/169/512
f 368/167/511 896/168/484 56/166/510
f 54/170/486 367/169/513 365/171/514
f 367/169/513 54/170/486 55/168/484
f 53/165/480 365/171/514 366/163/515
f 365/171/514 53/165/480 54/170/486
f 895/172/516 51/173/517 894/174/518
f 895/172/516 50/175/519 51/173/517
f 895/172/516 893/176/520 50/175/519
f 52/172/521 47/177/522 49/176/520
f 52/172/521 48/174/523 47/177/522
f 894/174/518 46/178/524 891/179/525
f 46/178/524 894/174/518 51/173/517
f 51/173/517 44/180/526 46/178/524
f 44/180/526 51/173/517 50/175/519
f 50/175/519 889/181/527 44/180/526
f 889/181/527 50/175/519 893/176/520
f 49/176/520 39/182/528 42/181/527
f 39/182/528 49/176/520 47/177/522
f 47/177/522 40/179/525 39/182/528
f 40/179/525 47/177/522 48/174/523
f 891/179/525 45/183/508 892/184/515
f 45/183/508 891/179/525 46/178/524
f 46/178/524 43/185/529 45/183/508
f 43/185/529 46/178/524 44/180/526
f 44/180/526 890/186/513 43/185/529
f 890/186/513 44/180/526 889/181/527
f 42/181/527 38/187/530 41/186/513
f 38/187/530 42/181/527 39/182/528
f 39/182/528 37/184/531 38/187/530
f 37/184/531 39/182/528 40/179/525
f 36/188/532 887/189/533 888/190/490
f 887/189/533 36/188/532 364/191/534
f 35/192/535 364/191/534 36/188/532
f 364/191/534 35/192/535 363/193/536
f 885/194/497 363/193/536 35/192/535
f 363/193/536 885/194/497 886/195/537
f 32/196/500 362/195/537 34/194/498
f 362/195/537 32/196/500 361/197/538
f 33/190/490 361/197/538 32/196/500
f 361/197/538 33/190/490 360/189/539
f 31/198/540 27/199/541 30/200/542
f 30/200/542 27/199/541 29/199/538
f 29/199/538 27/199/541 28/201/543
f 884/202/544 25/203/545 873/204/546
f 25/203/545 884/202/544 359/205/547
f 359/205/547 870/206/548 25/203/545
f 870/206/548 359/205/547 883/207/549
f 358/207/550 23/208/551 24/206/552
f 23/208/551 358/207/550 357/209/553
f 357/209/553 22/210/554 23/208/551
f 22/210/554 357/209/553 355/211/555
f 355/211/555 26/204/556 22/210/554
f 26/204/556 355/211/555 356/202/557
f 881/212/558 21/213/559 882/214/560
f 21/213/559 881/212/558 2/215/561
f 2/215/561 880/216/550 21/213/559
f 880/216/550 2/215/561 879/217/562
f 3/217/562 19/218/563 20/216/550
f 19/218/563 3/217/562 4/219/564
f 4/219/564 18/220/565 19/218/563
f 18/220/565 4/219/564 5/221/566
f 5/221/566 17/214/560 18/220/565
f 17/214/560 5/221/566 1/212/558
f 16/222/567 15/223/568 11/224/569
f 16/222/567 877/225/570 15/223/568
f 878/222/571 13/226/572 14/225/573
f 878/222/571 875/227/574 13/226/572
f 16/222/567 11/224/569 12/227/574
f 354/228/575 11/224/569 15/223/568
f 11/224/569 354/228/575 350/229/576
f 876/230/577 15/223/568 877/225/570
f 15/223/568 876/230/577 354/228/575
f 352/231/578 14/225/573 13/226/572
f 14/225/573 352/231/578 353/230/577
f 874/232/579 13/226/572 875/227/574
f 13/226/572 874/232/579 352/231/578
f 350/229/576 12/227/574 11/224/569
f 12/227/574 350/229/576 351/232/579
f 872/233/579 25/203/545 6/234/580
f 25/203/545 872/233/579 873/204/546
f 6/234/580 870/206/548 871/235/581
f 870/206/548 6/234/580 25/203/545
f 10/235/577 23/208/551 9/236/582
f 23/208/551 10/235/577 24/206/552
f 9/236/582 22/210/554 8/237/576
f 22/210/554 9/236/582 23/208/551
f 8/237/576 26/204/556 7/233/583
f 26/204/556 8/237/576 22/210/554
