# Blender 5.1.2
# www.blender.org
mtllib byzantium_banner.mtl
o GenMesh.002
v 0.848537 -1.777859 5.959592
v 0.848537 1.410659 5.936337
v 0.423009 -1.738704 5.947392
v 0.423009 1.410658 5.936041
v -0.002519 -1.713653 5.947392
v -0.002516 1.410660 5.936041
v -0.428046 -1.702735 5.959492
v -0.428044 1.410659 5.936334
v -0.853572 -1.702736 5.979631
v -0.853570 1.410659 5.936822
v -0.853569 1.374860 5.987626
v -0.428043 1.374958 5.986851
v -0.002514 1.375057 5.986403
v 0.423011 1.375154 5.986423
v 0.848540 1.375254 5.986889
v -0.853569 1.282151 5.980547
v -0.428041 1.282151 5.979603
v -0.002513 1.282151 5.979055
v 0.423013 1.282151 5.979077
v 0.848542 1.282151 5.979648
v 0.848542 1.307000 5.987067
v 0.423013 1.307000 5.986554
v -0.002513 1.307000 5.986545
v -0.428041 1.307000 5.987062
v -0.853569 1.307000 5.987943
v 0.848541 1.050045 5.978127
v -0.853569 1.050045 5.980476
v -0.428042 1.050045 5.978039
v -0.002514 1.050045 5.976602
v 0.423013 1.050045 5.976642
v 0.848541 0.816410 5.976596
v -0.853569 0.816410 5.980404
v -0.428042 0.816410 5.976465
v -0.002514 0.816410 5.974133
v 0.423012 0.816410 5.974192
v 0.848541 0.594334 5.975141
v -0.853569 0.594334 5.980336
v -0.428042 0.594335 5.974969
v -0.002514 0.594335 5.971786
v 0.423012 0.594335 5.971863
v 0.848540 0.366823 5.973650
v -0.853570 0.366823 5.980267
v -0.428043 0.366823 5.973436
v -0.002515 0.366823 5.969381
v 0.423012 0.366823 5.969476
v 0.848540 0.156524 5.972271
v -0.853570 0.156524 5.980202
v -0.428043 0.156524 5.972019
v -0.002515 0.156524 5.967158
v 0.423011 0.156524 5.967270
v 0.848540 -0.064881 5.970819
v -0.853570 -0.064881 5.980134
v -0.428043 -0.064881 5.970527
v -0.002516 -0.064881 5.964818
v 0.423011 -0.064881 5.964948
v 0.848539 -0.291722 5.969334
v -0.853571 -0.291722 5.980064
v -0.428044 -0.291722 5.968999
v -0.002516 -0.291722 5.962420
v 0.423011 -0.291722 5.962569
v 0.848539 -0.535314 5.967736
v -0.853571 -0.535314 5.979990
v -0.428044 -0.535314 5.967358
v -0.002517 -0.535314 5.959846
v 0.423010 -0.535314 5.960014
v 0.848539 -0.772997 5.966178
v -0.853571 -0.772997 5.979918
v -0.428044 -0.772997 5.965756
v -0.002517 -0.772997 5.957334
v 0.423010 -0.772997 5.957520
v 0.848539 -1.016099 5.964585
v -0.853572 -1.016099 5.979843
v -0.428045 -1.016099 5.964118
v -0.002517 -1.016098 5.954764
v 0.423010 -1.016099 5.954971
v 0.848539 -1.270274 5.962920
v -0.853572 -1.270274 5.979764
v -0.428045 -1.270274 5.962406
v -0.002518 -1.270274 5.952077
v 0.423010 -1.270274 5.952304
v 0.848537 -1.490230 5.961477
v -0.853572 -1.490230 5.979698
v -0.428045 -1.490230 5.960924
v -0.002519 -1.490229 5.949752
v 0.423009 -1.490230 5.949997
v -0.648024 -1.702735 5.969903
v -0.648024 1.282151 5.980091
v -0.648024 1.050045 5.979300
v -0.648024 0.816410 5.978501
v -0.648024 0.594334 5.977743
v -0.648024 0.366823 5.976967
v -0.648024 0.156524 5.976249
v -0.648024 -0.064881 5.975493
v -0.648024 -0.291722 5.974720
v -0.648024 -0.535314 5.973888
v -0.648024 -0.772997 5.973076
v -0.648024 -1.016099 5.972248
v -0.648024 -1.270274 5.971379
v -0.648024 -1.490230 5.970629
v -0.217613 -1.708133 5.953507
v -0.217613 1.282151 5.979332
v -0.217613 1.050045 5.977328
v -0.217613 0.816410 5.975312
v -0.217613 0.594335 5.973394
v -0.217613 0.366823 5.971430
v -0.217613 0.156524 5.969615
v -0.217613 -0.064881 5.967704
v -0.217613 -0.291722 5.965745
v -0.217613 -0.535314 5.963644
v -0.217613 -0.772997 5.961591
v -0.217613 -1.016098 5.959493
v -0.217613 -1.270274 5.957298
v -0.217613 -1.490229 5.955400
v 0.195512 -1.725311 5.947392
v 0.195512 1.282151 5.979065
v 0.195512 1.050045 5.976621
v 0.195512 0.816410 5.974160
v 0.195512 0.594334 5.971821
v 0.195512 0.366823 5.969425
v 0.195512 0.156524 5.967210
v 0.195512 -0.064881 5.964879
v 0.195512 -0.291722 5.962490
v 0.195512 -0.535314 5.959924
v 0.195512 -0.772997 5.957420
v 0.195512 -1.016099 5.954861
v 0.195512 -1.270274 5.952184
v 0.195512 -1.490230 5.949866
v 0.625325 -1.757322 5.953193
v 0.625325 1.282151 5.979349
v 0.625325 1.050045 5.977348
v 0.625325 0.816410 5.975335
v 0.625325 0.594335 5.973422
v 0.625325 0.366823 5.971460
v 0.625325 0.156524 5.969648
v 0.625325 -0.064881 5.967740
v 0.625325 -0.291722 5.965786
v 0.625325 -0.535314 5.963686
v 0.625325 -0.772997 5.961637
v 0.625325 -1.016098 5.959542
v 0.625325 -1.270274 5.957352
v 0.625325 -1.490229 5.955455
v 0.848537 1.410659 5.932587
v 0.423009 1.410658 5.932883
v -0.002516 1.410660 5.932883
v -0.428044 1.410659 5.932589
vn -0.0288 -0.0079 0.9996
vn -0.0270 -0.0076 0.9996
vn -0.0272 -0.0088 0.9996
vn -0.0293 -0.0066 0.9996
vn -0.0254 -0.0086 0.9996
vn -0.0240 -0.0075 0.9997
vn -0.0231 -0.0086 0.9997
vn -0.0221 -0.0071 0.9997
vn -0.0209 -0.0081 0.9997
vn -0.0198 -0.0071 0.9998
vn -0.0187 -0.0086 0.9998
vn -0.0173 -0.0074 0.9998
vn -0.0164 -0.0086 0.9998
vn -0.0154 -0.0071 0.9999
vn -0.0144 -0.0081 0.9999
vn -0.0129 -0.0074 0.9999
vn -0.0122 -0.0086 0.9999
vn -0.0112 -0.0071 0.9999
vn -0.0103 -0.0086 0.9999
vn -0.0093 -0.0071 0.9999
vn -0.0082 -0.0086 0.9999
vn -0.0072 -0.0071 0.9999
vn -0.0061 -0.0086 0.9999
vn -0.0051 -0.0071 1.0000
vn -0.0040 -0.0086 1.0000
vn -0.0030 -0.0071 1.0000
vn -0.0022 -0.1021 0.9948
vn -0.0013 -0.1478 0.9890
vn -0.0006 -0.0105 0.9999
vn -0.0115 -0.0102 0.9999
vn -0.0189 -0.0098 0.9998
vn -0.0005 -0.0105 0.9999
vn -0.0125 -0.0102 0.9999
vn -0.0113 -0.0102 0.9999
vn -0.0101 -0.0102 0.9999
vn -0.0004 -0.0105 0.9999
vn -0.0090 -0.0102 0.9999
vn -0.0079 -0.0102 0.9999
vn -0.0003 -0.0105 0.9999
vn -0.0068 -0.0102 0.9999
vn -0.0058 -0.0103 0.9999
vn -0.0002 -0.0105 0.9999
vn -0.0048 -0.0102 0.9999
vn -0.0037 -0.0102 0.9999
vn -0.0020 -0.0101 0.9999
vn -0.0001 -0.0105 0.9999
vn -0.0015 -0.0102 0.9999
vn -0.0001 -0.1040 0.9946
vn -0.0008 -0.1784 0.9840
vn 0.0274 -0.0095 0.9996
vn 0.0145 -0.0100 0.9998
vn 0.0265 -0.0084 0.9996
vn 0.0090 -0.0106 0.9999
vn 0.0247 -0.0086 0.9997
vn 0.0116 -0.0103 0.9999
vn 0.0226 -0.0089 0.9997
vn 0.0105 -0.0103 0.9999
vn 0.0203 -0.0086 0.9998
vn 0.0094 -0.0103 0.9999
vn 0.0181 -0.0086 0.9998
vn 0.0084 -0.0103 0.9999
vn 0.0160 -0.0086 0.9998
vn 0.0073 -0.0103 0.9999
vn 0.0139 -0.0086 0.9999
vn 0.0063 -0.0103 0.9999
vn 0.0119 -0.0086 0.9999
vn 0.0053 -0.0103 0.9999
vn 0.0100 -0.0086 0.9999
vn 0.0044 -0.0103 0.9999
vn 0.0080 -0.0086 0.9999
vn 0.0034 -0.0103 0.9999
vn 0.0060 -0.0086 0.9999
vn 0.0024 -0.0103 0.9999
vn 0.0039 -0.0086 1.0000
vn 0.0014 -0.0103 0.9999
vn 0.0021 -0.1030 0.9947
vn 0.0005 -0.1790 0.9839
vn 0.0364 -0.0064 0.9993
vn 0.0452 -0.0034 0.9990
vn 0.0473 -0.0034 0.9989
vn 0.0345 -0.0066 0.9994
vn 0.0416 -0.0034 0.9991
vn 0.0318 -0.0065 0.9995
vn 0.0378 -0.0034 0.9993
vn 0.0288 -0.0066 0.9996
vn 0.0341 -0.0034 0.9994
vn 0.0259 -0.0066 0.9996
vn 0.0305 -0.0034 0.9995
vn 0.0230 -0.0066 0.9997
vn 0.0268 -0.0034 0.9996
vn 0.0201 -0.0066 0.9998
vn 0.0236 -0.0037 0.9997
vn 0.0173 -0.0066 0.9998
vn 0.0200 -0.0034 0.9998
vn 0.0147 -0.0066 0.9999
vn 0.0168 -0.0034 0.9999
vn 0.0121 -0.0066 0.9999
vn 0.0134 -0.0034 0.9999
vn 0.0094 -0.0066 0.9999
vn 0.0101 -0.0034 0.9999
vn 0.0067 -0.0066 1.0000
vn 0.0066 -0.0034 1.0000
vn 0.0034 -0.0067 1.0000
vn 0.0036 -0.0991 0.9951
vn 0.0016 -0.1771 0.9842
vn 0.0457 -0.0019 0.9990
vn 0.0433 -0.0011 0.9991
vn 0.0392 -0.0017 0.9992
vn 0.0354 -0.0018 0.9994
vn 0.0316 -0.0019 0.9995
vn 0.0289 -0.0012 0.9996
vn 0.0252 -0.0011 0.9997
vn 0.0215 -0.0013 0.9998
vn 0.0184 -0.0011 0.9998
vn 0.0146 -0.0018 0.9999
vn 0.0112 -0.0017 0.9999
vn 0.0084 -0.0011 1.0000
vn 0.0049 -0.0011 1.0000
vn 0.0012 0.4613 0.8873
vn 0.0020 -0.0934 0.9956
vn 0.0017 -0.1645 0.9864
vn 0.0013 0.6052 0.7961
vn 0.0004 0.4608 0.8875
vn 0.0007 -0.1656 0.9862
vn -0.0005 0.4614 0.8872
vn -0.0005 -0.1656 0.9862
vn -0.0011 0.3053 0.9522
vn -0.0012 -0.2161 0.9764
vn 0.0021 -0.1928 0.9812
vn 0.0006 0.8167 0.5771
vn 0.0007 0.8174 0.5760
vn 0.0002 0.8166 0.5773
vn -0.0003 0.8174 0.5761
vn -0.0006 0.8185 0.5746
vt 0.287047 0.579289
vt 0.305307 0.612016
vt 0.287047 0.609859
vt 0.305307 0.579289
vt 0.287047 0.635046
vt 0.305307 0.637043
vt 0.287047 0.664151
vt 0.305307 0.665964
vt 0.287047 0.691988
vt 0.305307 0.693625
vt 0.287047 0.719205
vt 0.305307 0.720669
vt 0.287047 0.747098
vt 0.305307 0.748385
vt 0.287047 0.773073
vt 0.305307 0.774196
vt 0.287047 0.798425
vt 0.305307 0.799388
vt 0.287047 0.822506
vt 0.305307 0.823316
vt 0.287047 0.848558
vt 0.305307 0.849203
vt 0.287047 0.873988
vt 0.305307 0.874471
vt 0.287047 0.900741
vt 0.305307 0.901055
vt 0.287047 0.927318
vt 0.305307 0.927464
vt 0.251862 0.579289
vt 0.270497 0.607904
vt 0.251862 0.606467
vt 0.270497 0.579289
vt 0.251862 0.631902
vt 0.270497 0.633236
vt 0.251862 0.661293
vt 0.270497 0.662508
vt 0.251862 0.689405
vt 0.270497 0.690505
vt 0.251862 0.716889
vt 0.270497 0.717877
vt 0.251862 0.745057
vt 0.270497 0.745931
vt 0.251862 0.771288
vt 0.270497 0.772055
vt 0.251862 0.796890
vt 0.270497 0.797553
vt 0.251862 0.821208
vt 0.270497 0.821772
vt 0.251862 0.847517
vt 0.270497 0.847974
vt 0.251862 0.873196
vt 0.270497 0.873549
vt 0.251862 0.900213
vt 0.270497 0.900456
vt 0.251862 0.927052
vt 0.270497 0.927186
vt 0.218001 0.579289
vt 0.235642 0.605216
vt 0.218001 0.604613
vt 0.235642 0.579289
vt 0.218001 0.630177
vt 0.235642 0.630740
vt 0.218001 0.659718
vt 0.235642 0.660236
vt 0.218001 0.687972
vt 0.235642 0.688447
vt 0.218001 0.715596
vt 0.235642 0.716029
vt 0.218001 0.743907
vt 0.235642 0.744297
vt 0.218001 0.770271
vt 0.235642 0.770620
vt 0.218001 0.796004
vt 0.235642 0.796313
vt 0.218001 0.820445
vt 0.235642 0.820717
vt 0.218001 0.846887
vt 0.235642 0.847119
vt 0.218001 0.872697
vt 0.235642 0.872890
vt 0.218001 0.899851
vt 0.235642 0.900002
vt 0.218001 0.926827
vt 0.235642 0.926936
vt 0.200742 0.579289
vt 0.182686 0.604017
vt 0.182686 0.579289
vt 0.200742 0.604024
vt 0.182686 0.629612
vt 0.200742 0.629626
vt 0.182686 0.659189
vt 0.200742 0.659211
vt 0.182686 0.687477
vt 0.200742 0.687507
vt 0.182686 0.715135
vt 0.200742 0.715173
vt 0.182686 0.743480
vt 0.200742 0.743526
vt 0.182686 0.769876
vt 0.200742 0.769930
vt 0.182685 0.795640
vt 0.200742 0.795701
vt 0.182685 0.820111
vt 0.200742 0.820179
vt 0.182685 0.846586
vt 0.200742 0.846660
vt 0.182685 0.872427
vt 0.200742 0.872509
vt 0.182685 0.899614
vt 0.200742 0.899704
vt 0.182685 0.926623
vt 0.200742 0.926720
vt 0.165813 0.579289
vt 0.165813 0.604010
vt 0.165813 0.629598
vt 0.165813 0.659168
vt 0.165813 0.687449
vt 0.165813 0.715099
vt 0.165813 0.743437
vt 0.165813 0.769826
vt 0.165813 0.795583
vt 0.165813 0.820048
vt 0.165813 0.846515
vt 0.165813 0.872350
vt 0.165813 0.899530
vt 0.200742 0.929747
vt 0.165813 0.927851
vt 0.200742 0.928044
vt 0.165813 0.929546
vt 0.235642 0.929965
vt 0.235642 0.928260
vt 0.270497 0.930204
vt 0.270497 0.928504
vt 0.305307 0.930458
vt 0.305307 0.928771
vt 0.165813 0.926532
vt 0.200742 0.934921
vt 0.165813 0.934921
vt 0.235642 0.934921
vt 0.270497 0.934921
vt 0.305307 0.934921
s 1
usemtl bannerbump__faction_banner_england.dds
f 128/1/1 81/2/2 141/3/3
f 81/2/2 128/1/1 1/4/4
f 81/2/2 140/5/5 141/3/3
f 140/5/5 81/2/2 76/6/6
f 76/6/6 139/7/7 140/5/5
f 139/7/7 76/6/6 71/8/8
f 71/8/8 138/9/9 139/7/7
f 138/9/9 71/8/8 66/10/10
f 66/10/10 137/11/11 138/9/9
f 137/11/11 66/10/10 61/12/12
f 61/12/12 136/13/13 137/11/11
f 136/13/13 61/12/12 56/14/14
f 56/14/14 135/15/15 136/13/13
f 135/15/15 56/14/14 51/16/16
f 51/16/16 134/17/17 135/15/15
f 134/17/17 51/16/16 46/18/18
f 46/18/18 133/19/19 134/17/17
f 133/19/19 46/18/18 41/20/20
f 41/20/20 132/21/21 133/19/19
f 132/21/21 41/20/20 36/22/22
f 36/22/22 131/23/23 132/21/21
f 131/23/23 36/22/22 31/24/24
f 31/24/24 130/25/25 131/23/23
f 130/25/25 31/24/24 26/26/26
f 26/26/26 129/27/27 130/25/25
f 129/27/27 26/26/26 20/28/28
f 114/29/29 85/30/30 127/31/29
f 85/30/30 114/29/29 3/32/31
f 85/30/30 126/33/32 127/31/29
f 126/33/32 85/30/30 80/34/33
f 80/34/33 125/35/32 126/33/32
f 125/35/32 80/34/33 75/36/34
f 75/36/34 124/37/32 125/35/32
f 124/37/32 75/36/34 70/38/35
f 70/38/35 123/39/36 124/37/32
f 123/39/36 70/38/35 65/40/37
f 65/40/37 122/41/36 123/39/36
f 122/41/36 65/40/37 60/42/38
f 60/42/38 121/43/39 122/41/36
f 121/43/39 60/42/38 55/44/40
f 55/44/40 120/45/39 121/43/39
f 120/45/39 55/44/40 50/46/41
f 50/46/41 119/47/42 120/45/39
f 119/47/42 50/46/41 45/48/43
f 45/48/43 118/49/42 119/47/42
f 118/49/42 45/48/43 40/50/44
f 40/50/44 117/51/42 118/49/42
f 117/51/42 40/50/44 35/52/45
f 35/52/45 116/53/46 117/51/42
f 116/53/46 35/52/45 30/54/47
f 30/54/47 115/55/48 116/53/46
f 115/55/48 30/54/47 19/56/49
f 100/57/50 84/58/51 113/59/52
f 84/58/51 100/57/50 5/60/53
f 84/58/51 112/61/54 113/59/52
f 112/61/54 84/58/51 79/62/55
f 79/62/55 111/63/56 112/61/54
f 111/63/56 79/62/55 74/64/57
f 74/64/57 110/65/58 111/63/56
f 110/65/58 74/64/57 69/66/59
f 69/66/59 109/67/60 110/65/58
f 109/67/60 69/66/59 64/68/61
f 64/68/61 108/69/62 109/67/60
f 108/69/62 64/68/61 59/70/63
f 59/70/63 107/71/64 108/69/62
f 107/71/64 59/70/63 54/72/65
f 54/72/65 106/73/66 107/71/64
f 106/73/66 54/72/65 49/74/67
f 49/74/67 105/75/68 106/73/66
f 105/75/68 49/74/67 44/76/69
f 44/76/69 104/77/70 105/75/68
f 104/77/70 44/76/69 39/78/71
f 39/78/71 103/79/72 104/77/70
f 103/79/72 39/78/71 34/80/73
f 34/80/73 102/81/74 103/79/72
f 102/81/74 34/80/73 29/82/75
f 29/82/75 101/83/76 102/81/74
f 101/83/76 29/82/75 18/84/77
f 7/85/78 99/86/79 86/87/80
f 99/86/79 7/85/78 83/88/81
f 83/88/81 98/89/82 99/86/79
f 98/89/82 83/88/81 78/90/83
f 78/90/83 97/91/84 98/89/82
f 97/91/84 78/90/83 73/92/85
f 73/92/85 96/93/86 97/91/84
f 96/93/86 73/92/85 68/94/87
f 68/94/87 95/95/88 96/93/86
f 95/95/88 68/94/87 63/96/89
f 63/96/89 94/97/90 95/95/88
f 94/97/90 63/96/89 58/98/91
f 58/98/91 93/99/92 94/97/90
f 93/99/92 58/98/91 53/100/93
f 53/100/93 92/101/94 93/99/92
f 92/101/94 53/100/93 48/102/95
f 48/102/95 91/103/96 92/101/94
f 91/103/96 48/102/95 43/104/97
f 43/104/97 90/105/98 91/103/96
f 90/105/98 43/104/97 38/106/99
f 38/106/99 89/107/100 90/105/98
f 89/107/100 38/106/99 33/108/101
f 33/108/101 88/109/102 89/107/100
f 88/109/102 33/108/101 28/110/103
f 28/110/103 87/111/104 88/109/102
f 87/111/104 28/110/103 17/112/105
f 3/32/31 141/3/3 85/30/30
f 141/3/3 3/32/31 128/1/1
f 5/60/53 127/31/29 84/58/51
f 127/31/29 5/60/53 114/29/29
f 7/85/78 113/59/52 83/88/81
f 113/59/52 7/85/78 100/57/50
f 9/113/106 99/86/79 82/114/107
f 99/86/79 9/113/106 86/87/80
f 85/30/30 140/5/5 80/34/33
f 140/5/5 85/30/30 141/3/3
f 84/58/51 126/33/32 79/62/55
f 126/33/32 84/58/51 127/31/29
f 83/88/81 112/61/54 78/90/83
f 112/61/54 83/88/81 113/59/52
f 82/114/107 98/89/82 77/115/108
f 98/89/82 82/114/107 99/86/79
f 80/34/33 139/7/7 75/36/34
f 139/7/7 80/34/33 140/5/5
f 79/62/55 125/35/32 74/64/57
f 125/35/32 79/62/55 126/33/32
f 78/90/83 111/63/56 73/92/85
f 111/63/56 78/90/83 112/61/54
f 77/115/108 97/91/84 72/116/109
f 97/91/84 77/115/108 98/89/82
f 75/36/34 138/9/9 70/38/35
f 138/9/9 75/36/34 139/7/7
f 74/64/57 124/37/32 69/66/59
f 124/37/32 74/64/57 125/35/32
f 73/92/85 110/65/58 68/94/87
f 110/65/58 73/92/85 111/63/56
f 72/116/109 96/93/86 67/117/110
f 96/93/86 72/116/109 97/91/84
f 70/38/35 137/11/11 65/40/37
f 137/11/11 70/38/35 138/9/9
f 69/66/59 123/39/36 64/68/61
f 123/39/36 69/66/59 124/37/32
f 68/94/87 109/67/60 63/96/89
f 109/67/60 68/94/87 110/65/58
f 67/117/110 95/95/88 62/118/111
f 95/95/88 67/117/110 96/93/86
f 65/40/37 136/13/13 60/42/38
f 136/13/13 65/40/37 137/11/11
f 64/68/61 122/41/36 59/70/63
f 122/41/36 64/68/61 123/39/36
f 63/96/89 108/69/62 58/98/91
f 108/69/62 63/96/89 109/67/60
f 62/118/111 94/97/90 57/119/112
f 94/97/90 62/118/111 95/95/88
f 60/42/38 135/15/15 55/44/40
f 135/15/15 60/42/38 136/13/13
f 59/70/63 121/43/39 54/72/65
f 121/43/39 59/70/63 122/41/36
f 58/98/91 107/71/64 53/100/93
f 107/71/64 58/98/91 108/69/62
f 57/119/112 93/99/92 52/120/113
f 93/99/92 57/119/112 94/97/90
f 55/44/40 134/17/17 50/46/41
f 134/17/17 55/44/40 135/15/15
f 54/72/65 120/45/39 49/74/67
f 120/45/39 54/72/65 121/43/39
f 53/100/93 106/73/66 48/102/95
f 106/73/66 53/100/93 107/71/64
f 52/120/113 92/101/94 47/121/114
f 92/101/94 52/120/113 93/99/92
f 50/46/41 133/19/19 45/48/43
f 133/19/19 50/46/41 134/17/17
f 49/74/67 119/47/42 44/76/69
f 119/47/42 49/74/67 120/45/39
f 48/102/95 105/75/68 43/104/97
f 105/75/68 48/102/95 106/73/66
f 47/121/114 91/103/96 42/122/115
f 91/103/96 47/121/114 92/101/94
f 45/48/43 132/21/21 40/50/44
f 132/21/21 45/48/43 133/19/19
f 44/76/69 118/49/42 39/78/71
f 118/49/42 44/76/69 119/47/42
f 43/104/97 104/77/70 38/106/99
f 104/77/70 43/104/97 105/75/68
f 42/122/115 90/105/98 37/123/116
f 90/105/98 42/122/115 91/103/96
f 40/50/44 131/23/23 35/52/45
f 131/23/23 40/50/44 132/21/21
f 39/78/71 117/51/42 34/80/73
f 117/51/42 39/78/71 118/49/42
f 38/106/99 103/79/72 33/108/101
f 103/79/72 38/106/99 104/77/70
f 37/123/116 89/107/100 32/124/117
f 89/107/100 37/123/116 90/105/98
f 35/52/45 130/25/25 30/54/47
f 130/25/25 35/52/45 131/23/23
f 34/80/73 116/53/46 29/82/75
f 116/53/46 34/80/73 117/51/42
f 33/108/101 102/81/74 28/110/103
f 102/81/74 33/108/101 103/79/72
f 32/124/117 88/109/102 27/125/118
f 88/109/102 32/124/117 89/107/100
f 12/126/119 25/127/120 24/128/121
f 25/127/120 12/126/119 11/129/122
f 13/130/123 24/128/121 23/131/124
f 24/128/121 13/130/123 12/126/119
f 14/132/125 23/131/124 22/133/126
f 23/131/124 14/132/125 13/130/123
f 15/134/127 22/133/126 21/135/128
f 22/133/126 15/134/127 14/132/125
f 30/54/47 129/27/27 19/56/49
f 129/27/27 30/54/47 130/25/25
f 29/82/75 115/55/48 18/84/77
f 115/55/48 29/82/75 116/53/46
f 28/110/103 101/83/76 17/112/105
f 101/83/76 28/110/103 102/81/74
f 27/125/118 87/111/104 16/136/129
f 87/111/104 27/125/118 88/109/102
f 21/135/128 22/133/126 19/56/49
f 21/135/128 19/56/49 129/27/27
f 21/135/128 129/27/27 20/28/28
f 22/133/126 23/131/124 18/84/77
f 22/133/126 18/84/77 115/55/48
f 22/133/126 115/55/48 19/56/49
f 23/131/124 24/128/121 17/112/105
f 23/131/124 17/112/105 101/83/76
f 23/131/124 101/83/76 18/84/77
f 24/128/121 25/127/120 16/136/129
f 24/128/121 16/136/129 87/111/104
f 24/128/121 87/111/104 17/112/105
f 8/137/130 11/129/122 12/126/119
f 11/129/122 8/137/130 10/138/131
f 6/139/132 12/126/119 13/130/123
f 12/126/119 6/139/132 8/137/130
f 4/140/133 13/130/123 14/132/125
f 13/130/123 4/140/133 6/139/132
f 2/141/134 14/132/125 15/134/127
f 14/132/125 2/141/134 4/140/133
l 144 145
l 142 143
l 144 143
